%TF.GenerationSoftware,KiCad,Pcbnew,9.0.7*%
%TF.CreationDate,2026-02-02T14:24:47+05:30*%
%TF.ProjectId,MADPAD,4d414450-4144-42e6-9b69-6361645f7063,rev?*%
%TF.SameCoordinates,Original*%
%TF.FileFunction,Legend,Top*%
%TF.FilePolarity,Positive*%
%FSLAX46Y46*%
G04 Gerber Fmt 4.6, Leading zero omitted, Abs format (unit mm)*
G04 Created by KiCad (PCBNEW 9.0.7) date 2026-02-02 14:24:47*
%MOMM*%
%LPD*%
G01*
G04 APERTURE LIST*
G04 Aperture macros list*
%AMRoundRect*
0 Rectangle with rounded corners*
0 $1 Rounding radius*
0 $2 $3 $4 $5 $6 $7 $8 $9 X,Y pos of 4 corners*
0 Add a 4 corners polygon primitive as box body*
4,1,4,$2,$3,$4,$5,$6,$7,$8,$9,$2,$3,0*
0 Add four circle primitives for the rounded corners*
1,1,$1+$1,$2,$3*
1,1,$1+$1,$4,$5*
1,1,$1+$1,$6,$7*
1,1,$1+$1,$8,$9*
0 Add four rect primitives between the rounded corners*
20,1,$1+$1,$2,$3,$4,$5,0*
20,1,$1+$1,$4,$5,$6,$7,0*
20,1,$1+$1,$6,$7,$8,$9,0*
20,1,$1+$1,$8,$9,$2,$3,0*%
G04 Aperture macros list end*
%ADD10C,0.100000*%
%ADD11C,0.150000*%
%ADD12C,0.120000*%
%ADD13C,0.040000*%
%ADD14C,0.127000*%
%ADD15C,0.504000*%
%TA.AperFunction,ComponentPad*%
%ADD16C,2.200000*%
%TD*%
%TA.AperFunction,ComponentPad*%
%ADD17R,1.700000X1.700000*%
%TD*%
%TA.AperFunction,ComponentPad*%
%ADD18O,1.700000X1.700000*%
%TD*%
%TA.AperFunction,ComponentPad*%
%ADD19C,1.524000*%
%TD*%
%TA.AperFunction,ViaPad*%
%ADD20C,0.600000*%
%TD*%
%TA.AperFunction,Conductor*%
%ADD21C,0.200000*%
%TD*%
%ADD22C,1.700000*%
%ADD23C,4.000000*%
%ADD24C,2.200000*%
%ADD25R,1.700000X1.700000*%
%ADD26O,1.700000X1.700000*%
%ADD27C,1.524000*%
%ADD28C,0.300000*%
%ADD29C,0.000000*%
%TA.AperFunction,SMDPad,CuDef*%
%ADD30RoundRect,0.152400X1.063600X0.609600X-1.063600X0.609600X-1.063600X-0.609600X1.063600X-0.609600X0*%
%TD*%
%TA.AperFunction,SMDPad,CuDef*%
%ADD31RoundRect,0.152400X-1.063600X-0.609600X1.063600X-0.609600X1.063600X0.609600X-1.063600X0.609600X0*%
%TD*%
%ADD32RoundRect,0.152400X1.063600X0.609600X-1.063600X0.609600X-1.063600X-0.609600X1.063600X-0.609600X0*%
%ADD33RoundRect,0.152400X-1.063600X-0.609600X1.063600X-0.609600X1.063600X0.609600X-1.063600X0.609600X0*%
%ADD34C,0.050000*%
%ADD35C,0.101600*%
G04 APERTURE END LIST*
D10*
X129108646Y-76832419D02*
X129775312Y-77832419D01*
X129775312Y-76832419D02*
X129108646Y-77832419D01*
X130156265Y-77832419D02*
X130156265Y-76832419D01*
X130584836Y-77546704D02*
X131061026Y-77546704D01*
X130489598Y-77832419D02*
X130822931Y-76832419D01*
X130822931Y-76832419D02*
X131156264Y-77832419D01*
X131680074Y-76832419D02*
X131870550Y-76832419D01*
X131870550Y-76832419D02*
X131965788Y-76880038D01*
X131965788Y-76880038D02*
X132061026Y-76975276D01*
X132061026Y-76975276D02*
X132108645Y-77165752D01*
X132108645Y-77165752D02*
X132108645Y-77499085D01*
X132108645Y-77499085D02*
X132061026Y-77689561D01*
X132061026Y-77689561D02*
X131965788Y-77784800D01*
X131965788Y-77784800D02*
X131870550Y-77832419D01*
X131870550Y-77832419D02*
X131680074Y-77832419D01*
X131680074Y-77832419D02*
X131584836Y-77784800D01*
X131584836Y-77784800D02*
X131489598Y-77689561D01*
X131489598Y-77689561D02*
X131441979Y-77499085D01*
X131441979Y-77499085D02*
X131441979Y-77165752D01*
X131441979Y-77165752D02*
X131489598Y-76975276D01*
X131489598Y-76975276D02*
X131584836Y-76880038D01*
X131584836Y-76880038D02*
X131680074Y-76832419D01*
X133299122Y-77832419D02*
X133299122Y-76832419D01*
X133299122Y-77308609D02*
X133870550Y-77308609D01*
X133870550Y-77832419D02*
X133870550Y-76832419D01*
X134346741Y-77308609D02*
X134680074Y-77308609D01*
X134822931Y-77832419D02*
X134346741Y-77832419D01*
X134346741Y-77832419D02*
X134346741Y-76832419D01*
X134346741Y-76832419D02*
X134822931Y-76832419D01*
X135822931Y-77832419D02*
X135489598Y-77356228D01*
X135251503Y-77832419D02*
X135251503Y-76832419D01*
X135251503Y-76832419D02*
X135632455Y-76832419D01*
X135632455Y-76832419D02*
X135727693Y-76880038D01*
X135727693Y-76880038D02*
X135775312Y-76927657D01*
X135775312Y-76927657D02*
X135822931Y-77022895D01*
X135822931Y-77022895D02*
X135822931Y-77165752D01*
X135822931Y-77165752D02*
X135775312Y-77260990D01*
X135775312Y-77260990D02*
X135727693Y-77308609D01*
X135727693Y-77308609D02*
X135632455Y-77356228D01*
X135632455Y-77356228D02*
X135251503Y-77356228D01*
X136251503Y-77308609D02*
X136584836Y-77308609D01*
X136727693Y-77832419D02*
X136251503Y-77832419D01*
X136251503Y-77832419D02*
X136251503Y-76832419D01*
X136251503Y-76832419D02*
X136727693Y-76832419D01*
G36*
X157657978Y-63102930D02*
G01*
X157586060Y-62894892D01*
X157494030Y-62640945D01*
X157406904Y-62469258D01*
X157300956Y-62313232D01*
X157247999Y-62260615D01*
X157191835Y-62220822D01*
X157134231Y-62193926D01*
X157075554Y-62179208D01*
X157017229Y-62176476D01*
X156959857Y-62185422D01*
X156851582Y-62237977D01*
X156802345Y-62281859D01*
X156758258Y-62337121D01*
X156721367Y-62401526D01*
X156655857Y-62568116D01*
X156624647Y-62691320D01*
X156579243Y-62936381D01*
X156545861Y-63181445D01*
X156524719Y-63423752D01*
X156515415Y-63666065D01*
X156517935Y-63906790D01*
X156532222Y-64147523D01*
X156596103Y-64628169D01*
X156616221Y-64732519D01*
X156655940Y-64897175D01*
X156710324Y-65053960D01*
X156725580Y-65089541D01*
X156780922Y-65174493D01*
X156861924Y-65222795D01*
X156952360Y-65228026D01*
X157035262Y-65187452D01*
X157097989Y-65106346D01*
X157128764Y-64997034D01*
X157118046Y-64822128D01*
X157116125Y-64812203D01*
X157109294Y-64735141D01*
X157066993Y-64196897D01*
X157056009Y-63925672D01*
X157057323Y-63653026D01*
X157070703Y-63521464D01*
X157088452Y-63477845D01*
X157106192Y-63494688D01*
X157165944Y-63703149D01*
X157208449Y-63867349D01*
X157278378Y-64083069D01*
X157363970Y-64295629D01*
X157395932Y-64356765D01*
X157435606Y-64406233D01*
X157478540Y-64440859D01*
X157527383Y-64464614D01*
X157637320Y-64477903D01*
X157653764Y-64476247D01*
X157715136Y-64464449D01*
X157769579Y-64441883D01*
X157855340Y-64368735D01*
X157918279Y-64249467D01*
X157941001Y-64149148D01*
X157972868Y-64018475D01*
X157998707Y-63926897D01*
X158174551Y-63342349D01*
X158226809Y-63212928D01*
X158282794Y-63104076D01*
X158338198Y-63020510D01*
X158393477Y-62958917D01*
X158439346Y-62924789D01*
X158482759Y-62908749D01*
X158515074Y-62909584D01*
X158544545Y-62923136D01*
X158591130Y-62986635D01*
X158623789Y-63122793D01*
X158628110Y-63350593D01*
X158594405Y-63837857D01*
X158567149Y-64222605D01*
X158559897Y-64606290D01*
X158577735Y-64955085D01*
X158588816Y-65037016D01*
X158612028Y-65118094D01*
X158628110Y-65156585D01*
X158660185Y-65216010D01*
X158699545Y-65263480D01*
X158742755Y-65297194D01*
X158791911Y-65320659D01*
X158909478Y-65337203D01*
X158990470Y-65325760D01*
X159059775Y-65299391D01*
X159103334Y-65268398D01*
X159141078Y-65225791D01*
X159195059Y-65114637D01*
X159266606Y-64875496D01*
X159326032Y-64634992D01*
X159372026Y-64399475D01*
X159406079Y-64162664D01*
X159427644Y-63929527D01*
X159437343Y-63695149D01*
X159435100Y-63463125D01*
X159420953Y-63229898D01*
X159396742Y-63010423D01*
X159348146Y-62764601D01*
X159312686Y-62646336D01*
X159266084Y-62532885D01*
X159195059Y-62409952D01*
X159141978Y-62336390D01*
X159081788Y-62273445D01*
X159017242Y-62222986D01*
X158946376Y-62182614D01*
X158808728Y-62136828D01*
X158660588Y-62128238D01*
X158508817Y-62163328D01*
X158334391Y-62247668D01*
X158308824Y-62262857D01*
X158121669Y-62407887D01*
X157949749Y-62598238D01*
X157792066Y-62839848D01*
X157733449Y-62951622D01*
X157714893Y-62989693D01*
X157657978Y-63102930D01*
G37*
G36*
X161364118Y-61952547D02*
G01*
X161381178Y-61955314D01*
X161441241Y-61972202D01*
X161492922Y-61998499D01*
X161539055Y-62036095D01*
X161576206Y-62082704D01*
X161607796Y-62145290D01*
X161628633Y-62217062D01*
X161688560Y-62544505D01*
X161691648Y-62565291D01*
X161755068Y-62954357D01*
X161834908Y-63338779D01*
X162021973Y-64099947D01*
X162023391Y-64105486D01*
X162091985Y-64426743D01*
X162149836Y-64748802D01*
X162174699Y-64890788D01*
X162178725Y-64944466D01*
X162162060Y-65092472D01*
X162114304Y-65184544D01*
X162073893Y-65225892D01*
X162026679Y-65257148D01*
X161920126Y-65287034D01*
X161814065Y-65272020D01*
X161721140Y-65214288D01*
X161650226Y-65124506D01*
X161595111Y-65025244D01*
X161498601Y-64800856D01*
X161485935Y-64768972D01*
X161380788Y-64479178D01*
X161023949Y-64521310D01*
X160829666Y-64541614D01*
X160557751Y-64567472D01*
X160502878Y-64578076D01*
X160461954Y-64603372D01*
X160427508Y-64647156D01*
X160204942Y-65016817D01*
X160195878Y-65030927D01*
X160127865Y-65120481D01*
X160049420Y-65201648D01*
X160024167Y-65222269D01*
X159917728Y-65275903D01*
X159811790Y-65281585D01*
X159759426Y-65266540D01*
X159709251Y-65239384D01*
X159688592Y-65224012D01*
X159651863Y-65185943D01*
X159625151Y-65141402D01*
X159608710Y-65090632D01*
X159603563Y-65035566D01*
X159610314Y-64976766D01*
X159629567Y-64916067D01*
X159675729Y-64806891D01*
X160116442Y-63951541D01*
X160147529Y-63886950D01*
X160830692Y-63886950D01*
X160912651Y-63885950D01*
X161032192Y-63886950D01*
X161225450Y-63903803D01*
X161183086Y-63689550D01*
X161112060Y-63333190D01*
X160968827Y-63615101D01*
X160830692Y-63886950D01*
X160147529Y-63886950D01*
X160534612Y-63082684D01*
X160889494Y-62342908D01*
X160993322Y-62131093D01*
X160994457Y-62128951D01*
X161026341Y-62083739D01*
X161120178Y-61995520D01*
X161228776Y-61951544D01*
X161293504Y-61945789D01*
X161364118Y-61952547D01*
G37*
G36*
X162804480Y-61952547D02*
G01*
X162806701Y-61952978D01*
X162857741Y-61969119D01*
X162902958Y-61995665D01*
X162941770Y-62032234D01*
X162972583Y-62077684D01*
X162994437Y-62131340D01*
X163006163Y-62192149D01*
X163020140Y-62379211D01*
X163027229Y-62503009D01*
X163115313Y-62440481D01*
X163186781Y-62389619D01*
X163408920Y-62263690D01*
X163602891Y-62197412D01*
X163799891Y-62175296D01*
X163939463Y-62184211D01*
X164042187Y-62203527D01*
X164138780Y-62233379D01*
X164231026Y-62274361D01*
X164317136Y-62325715D01*
X164400955Y-62390380D01*
X164478293Y-62465797D01*
X164554278Y-62558377D01*
X164623112Y-62662561D01*
X164710646Y-62820987D01*
X164761229Y-62941335D01*
X164799867Y-63063739D01*
X164827437Y-63191393D01*
X164843034Y-63320704D01*
X164846898Y-63456705D01*
X164838515Y-63593927D01*
X164816930Y-63738997D01*
X164782663Y-63884752D01*
X164698782Y-64129426D01*
X164559876Y-64410906D01*
X164386997Y-64659809D01*
X164182520Y-64874804D01*
X163947905Y-65054897D01*
X163683694Y-65198954D01*
X163540563Y-65256937D01*
X163389649Y-65305328D01*
X163231144Y-65343685D01*
X163064965Y-65371641D01*
X163017942Y-65375864D01*
X162895444Y-65371249D01*
X162775170Y-65350575D01*
X162714526Y-65331100D01*
X162652714Y-65298283D01*
X162598714Y-65255279D01*
X162545849Y-65194723D01*
X162502229Y-65123796D01*
X162493395Y-65103047D01*
X162473154Y-64994166D01*
X162498420Y-64903514D01*
X162527394Y-64865598D01*
X162566553Y-64834587D01*
X162617635Y-64810590D01*
X162678633Y-64796083D01*
X162709152Y-64792418D01*
X162737435Y-64787840D01*
X162615619Y-64539994D01*
X162572793Y-64444148D01*
X162448247Y-64100188D01*
X162372433Y-63765098D01*
X162342494Y-63431193D01*
X162341770Y-63288643D01*
X163055835Y-63288643D01*
X163056538Y-63347112D01*
X163216090Y-64401325D01*
X163270389Y-64585628D01*
X163300170Y-64678480D01*
X163345712Y-64651790D01*
X163417773Y-64603009D01*
X163465098Y-64561751D01*
X163519511Y-64514270D01*
X163707568Y-64334098D01*
X163754016Y-64282457D01*
X163931438Y-64052264D01*
X164055933Y-63827101D01*
X164135847Y-63594958D01*
X164164323Y-63464476D01*
X164173370Y-63275025D01*
X164139675Y-63101274D01*
X164106170Y-63017814D01*
X164060376Y-62935502D01*
X163980875Y-62834541D01*
X163878640Y-62770077D01*
X163819683Y-62754032D01*
X163756818Y-62749699D01*
X163685731Y-62758125D01*
X163611031Y-62780163D01*
X163526360Y-62817346D01*
X163400921Y-62893553D01*
X163295006Y-62987705D01*
X163194227Y-63089981D01*
X163119553Y-63166495D01*
X163069443Y-63235751D01*
X163055835Y-63288643D01*
X162341770Y-63288643D01*
X162341204Y-63177251D01*
X162366415Y-62743730D01*
X162426575Y-62368553D01*
X162460189Y-62235906D01*
X162506442Y-62113564D01*
X162519872Y-62087220D01*
X162594460Y-61998983D01*
X162640424Y-61970608D01*
X162690943Y-61953129D01*
X162746302Y-61946836D01*
X162804480Y-61952547D01*
G37*
G36*
X165330039Y-61911276D02*
G01*
X165372910Y-61934650D01*
X165412444Y-61970315D01*
X165560758Y-62152253D01*
X165609731Y-62217978D01*
X165670164Y-62192035D01*
X165785645Y-62152192D01*
X165900879Y-62124824D01*
X166020140Y-62109071D01*
X166139204Y-62105610D01*
X166266197Y-62114847D01*
X166393050Y-62136762D01*
X166532739Y-62174769D01*
X166672370Y-62226404D01*
X166869841Y-62344007D01*
X166881427Y-62352359D01*
X166967990Y-62422804D01*
X167044564Y-62500021D01*
X167111060Y-62583577D01*
X167167145Y-62672763D01*
X167212765Y-62767339D01*
X167247507Y-62866407D01*
X167271257Y-62969869D01*
X167283630Y-63076673D01*
X167284400Y-63186750D01*
X167273280Y-63298993D01*
X167249949Y-63413249D01*
X167214223Y-63528463D01*
X167101638Y-63773673D01*
X167031685Y-63885470D01*
X166953262Y-63988895D01*
X166865477Y-64085035D01*
X166769320Y-64172715D01*
X166662082Y-64253960D01*
X166546341Y-64326404D01*
X166505616Y-64350605D01*
X166343942Y-64436841D01*
X166176727Y-64511610D01*
X165984180Y-64582568D01*
X165786135Y-64641477D01*
X165775190Y-64685566D01*
X165706451Y-64947941D01*
X165702570Y-64961910D01*
X165685718Y-65021456D01*
X165626584Y-65178934D01*
X165603517Y-65226582D01*
X165524574Y-65324214D01*
X165429398Y-65375400D01*
X165377531Y-65383887D01*
X165324150Y-65380617D01*
X165289285Y-65370968D01*
X165242328Y-65347866D01*
X165201881Y-65314729D01*
X165166912Y-65269515D01*
X165140304Y-65214187D01*
X165121868Y-65144970D01*
X165114223Y-65065544D01*
X165104392Y-64764560D01*
X165080518Y-63839139D01*
X165078291Y-63713967D01*
X165049523Y-62948025D01*
X165036930Y-62810205D01*
X165786135Y-62810205D01*
X165857576Y-63326779D01*
X165892410Y-63742464D01*
X165899525Y-63851779D01*
X165943145Y-63821911D01*
X166162563Y-63647890D01*
X166326079Y-63470052D01*
X166449804Y-63272191D01*
X166465126Y-63238647D01*
X166499776Y-63109723D01*
X166488366Y-63007766D01*
X166465963Y-62962701D01*
X166432111Y-62922571D01*
X166381001Y-62884091D01*
X166315348Y-62852154D01*
X166171570Y-62815828D01*
X166022946Y-62795199D01*
X165941657Y-62784926D01*
X165892178Y-62785765D01*
X165841781Y-62797471D01*
X165786135Y-62810205D01*
X165036930Y-62810205D01*
X164992407Y-62322941D01*
X164992407Y-62167602D01*
X165010883Y-62073435D01*
X165065626Y-61977792D01*
X165104806Y-61942392D01*
X165151959Y-61915544D01*
X165235770Y-61897600D01*
X165330039Y-61911276D01*
G37*
G36*
X168791055Y-61952547D02*
G01*
X168808114Y-61955314D01*
X168868177Y-61972202D01*
X168919858Y-61998499D01*
X168965992Y-62036095D01*
X169003143Y-62082704D01*
X169034733Y-62145290D01*
X169055570Y-62217062D01*
X169115497Y-62544505D01*
X169118585Y-62565291D01*
X169182004Y-62954357D01*
X169261845Y-63338779D01*
X169448909Y-64099947D01*
X169450327Y-64105486D01*
X169518921Y-64426743D01*
X169576773Y-64748802D01*
X169601636Y-64890788D01*
X169605661Y-64944466D01*
X169588996Y-65092472D01*
X169541240Y-65184544D01*
X169500829Y-65225892D01*
X169453615Y-65257148D01*
X169347062Y-65287034D01*
X169241001Y-65272020D01*
X169148077Y-65214288D01*
X169077163Y-65124506D01*
X169022048Y-65025244D01*
X168925538Y-64800856D01*
X168912871Y-64768972D01*
X168807725Y-64479178D01*
X168450886Y-64521310D01*
X168256603Y-64541614D01*
X167984687Y-64567472D01*
X167929815Y-64578076D01*
X167888890Y-64603372D01*
X167854445Y-64647156D01*
X167631878Y-65016817D01*
X167622814Y-65030927D01*
X167554801Y-65120481D01*
X167476357Y-65201648D01*
X167451103Y-65222269D01*
X167344665Y-65275903D01*
X167238726Y-65281585D01*
X167186363Y-65266540D01*
X167136188Y-65239384D01*
X167115528Y-65224012D01*
X167078800Y-65185943D01*
X167052087Y-65141402D01*
X167035647Y-65090632D01*
X167030499Y-65035566D01*
X167037251Y-64976766D01*
X167056503Y-64916067D01*
X167102665Y-64806891D01*
X167543378Y-63951541D01*
X167574465Y-63886950D01*
X168257629Y-63886950D01*
X168339588Y-63885950D01*
X168459129Y-63886950D01*
X168652386Y-63903803D01*
X168610022Y-63689550D01*
X168538996Y-63333190D01*
X168395763Y-63615101D01*
X168257629Y-63886950D01*
X167574465Y-63886950D01*
X167961548Y-63082684D01*
X168316430Y-62342908D01*
X168420259Y-62131093D01*
X168421393Y-62128951D01*
X168453278Y-62083739D01*
X168547114Y-61995520D01*
X168655713Y-61951544D01*
X168720440Y-61945789D01*
X168791055Y-61952547D01*
G37*
G36*
X170231416Y-61952547D02*
G01*
X170233638Y-61952978D01*
X170284677Y-61969119D01*
X170329894Y-61995665D01*
X170368706Y-62032234D01*
X170399520Y-62077684D01*
X170421373Y-62131340D01*
X170433100Y-62192149D01*
X170447076Y-62379211D01*
X170454166Y-62503009D01*
X170542249Y-62440481D01*
X170613717Y-62389619D01*
X170835856Y-62263690D01*
X171029828Y-62197412D01*
X171226828Y-62175296D01*
X171366400Y-62184211D01*
X171469124Y-62203527D01*
X171565717Y-62233379D01*
X171657963Y-62274361D01*
X171744073Y-62325715D01*
X171827892Y-62390380D01*
X171905229Y-62465797D01*
X171981215Y-62558377D01*
X172050048Y-62662561D01*
X172137582Y-62820987D01*
X172188165Y-62941335D01*
X172226804Y-63063739D01*
X172254374Y-63191393D01*
X172269970Y-63320704D01*
X172273834Y-63456705D01*
X172265451Y-63593927D01*
X172243866Y-63738997D01*
X172209600Y-63884752D01*
X172125719Y-64129426D01*
X171986812Y-64410906D01*
X171813934Y-64659809D01*
X171609456Y-64874804D01*
X171374841Y-65054897D01*
X171110631Y-65198954D01*
X170967500Y-65256937D01*
X170816586Y-65305328D01*
X170658080Y-65343685D01*
X170491901Y-65371641D01*
X170444879Y-65375864D01*
X170322381Y-65371249D01*
X170202107Y-65350575D01*
X170141463Y-65331100D01*
X170079651Y-65298283D01*
X170025650Y-65255279D01*
X169972786Y-65194723D01*
X169929166Y-65123796D01*
X169920331Y-65103047D01*
X169900091Y-64994166D01*
X169925356Y-64903514D01*
X169954330Y-64865598D01*
X169993489Y-64834587D01*
X170044571Y-64810590D01*
X170105570Y-64796083D01*
X170136089Y-64792418D01*
X170164371Y-64787840D01*
X170042555Y-64539994D01*
X169999730Y-64444148D01*
X169875183Y-64100188D01*
X169799370Y-63765098D01*
X169769431Y-63431193D01*
X169768707Y-63288643D01*
X170482771Y-63288643D01*
X170483475Y-63347112D01*
X170643026Y-64401325D01*
X170697326Y-64585628D01*
X170727107Y-64678480D01*
X170772649Y-64651790D01*
X170844710Y-64603009D01*
X170892034Y-64561751D01*
X170946447Y-64514270D01*
X171134504Y-64334098D01*
X171180953Y-64282457D01*
X171358374Y-64052264D01*
X171482870Y-63827101D01*
X171562784Y-63594958D01*
X171591260Y-63464476D01*
X171600306Y-63275025D01*
X171566611Y-63101274D01*
X171533107Y-63017814D01*
X171487313Y-62935502D01*
X171407811Y-62834541D01*
X171305577Y-62770077D01*
X171246620Y-62754032D01*
X171183755Y-62749699D01*
X171112667Y-62758125D01*
X171037967Y-62780163D01*
X170953297Y-62817346D01*
X170827857Y-62893553D01*
X170721943Y-62987705D01*
X170621163Y-63089981D01*
X170546489Y-63166495D01*
X170496379Y-63235751D01*
X170482771Y-63288643D01*
X169768707Y-63288643D01*
X169768141Y-63177251D01*
X169793351Y-62743730D01*
X169853511Y-62368553D01*
X169887125Y-62235906D01*
X169933379Y-62113564D01*
X169946808Y-62087220D01*
X170021397Y-61998983D01*
X170067361Y-61970608D01*
X170117879Y-61953129D01*
X170173238Y-61946836D01*
X170231416Y-61952547D01*
G37*
D11*
X172226667Y-124513200D02*
X172369524Y-124560819D01*
X172369524Y-124560819D02*
X172607619Y-124560819D01*
X172607619Y-124560819D02*
X172702857Y-124513200D01*
X172702857Y-124513200D02*
X172750476Y-124465580D01*
X172750476Y-124465580D02*
X172798095Y-124370342D01*
X172798095Y-124370342D02*
X172798095Y-124275104D01*
X172798095Y-124275104D02*
X172750476Y-124179866D01*
X172750476Y-124179866D02*
X172702857Y-124132247D01*
X172702857Y-124132247D02*
X172607619Y-124084628D01*
X172607619Y-124084628D02*
X172417143Y-124037009D01*
X172417143Y-124037009D02*
X172321905Y-123989390D01*
X172321905Y-123989390D02*
X172274286Y-123941771D01*
X172274286Y-123941771D02*
X172226667Y-123846533D01*
X172226667Y-123846533D02*
X172226667Y-123751295D01*
X172226667Y-123751295D02*
X172274286Y-123656057D01*
X172274286Y-123656057D02*
X172321905Y-123608438D01*
X172321905Y-123608438D02*
X172417143Y-123560819D01*
X172417143Y-123560819D02*
X172655238Y-123560819D01*
X172655238Y-123560819D02*
X172798095Y-123608438D01*
X173131429Y-123560819D02*
X173369524Y-124560819D01*
X173369524Y-124560819D02*
X173560000Y-123846533D01*
X173560000Y-123846533D02*
X173750476Y-124560819D01*
X173750476Y-124560819D02*
X173988572Y-123560819D01*
X174274286Y-123560819D02*
X174893333Y-123560819D01*
X174893333Y-123560819D02*
X174560000Y-123941771D01*
X174560000Y-123941771D02*
X174702857Y-123941771D01*
X174702857Y-123941771D02*
X174798095Y-123989390D01*
X174798095Y-123989390D02*
X174845714Y-124037009D01*
X174845714Y-124037009D02*
X174893333Y-124132247D01*
X174893333Y-124132247D02*
X174893333Y-124370342D01*
X174893333Y-124370342D02*
X174845714Y-124465580D01*
X174845714Y-124465580D02*
X174798095Y-124513200D01*
X174798095Y-124513200D02*
X174702857Y-124560819D01*
X174702857Y-124560819D02*
X174417143Y-124560819D01*
X174417143Y-124560819D02*
X174321905Y-124513200D01*
X174321905Y-124513200D02*
X174274286Y-124465580D01*
X132759819Y-80668333D02*
X133474104Y-80668333D01*
X133474104Y-80668333D02*
X133616961Y-80715952D01*
X133616961Y-80715952D02*
X133712200Y-80811190D01*
X133712200Y-80811190D02*
X133759819Y-80954047D01*
X133759819Y-80954047D02*
X133759819Y-81049285D01*
X133759819Y-79668333D02*
X133759819Y-80239761D01*
X133759819Y-79954047D02*
X132759819Y-79954047D01*
X132759819Y-79954047D02*
X132902676Y-80049285D01*
X132902676Y-80049285D02*
X132997914Y-80144523D01*
X132997914Y-80144523D02*
X133045533Y-80239761D01*
X148344878Y-76751428D02*
X148309164Y-76822857D01*
X148309164Y-76822857D02*
X148309164Y-76929999D01*
X148309164Y-76929999D02*
X148344878Y-77037142D01*
X148344878Y-77037142D02*
X148416307Y-77108571D01*
X148416307Y-77108571D02*
X148487735Y-77144285D01*
X148487735Y-77144285D02*
X148630592Y-77179999D01*
X148630592Y-77179999D02*
X148737735Y-77179999D01*
X148737735Y-77179999D02*
X148880592Y-77144285D01*
X148880592Y-77144285D02*
X148952021Y-77108571D01*
X148952021Y-77108571D02*
X149023450Y-77037142D01*
X149023450Y-77037142D02*
X149059164Y-76929999D01*
X149059164Y-76929999D02*
X149059164Y-76858571D01*
X149059164Y-76858571D02*
X149023450Y-76751428D01*
X149023450Y-76751428D02*
X148987735Y-76715714D01*
X148987735Y-76715714D02*
X148737735Y-76715714D01*
X148737735Y-76715714D02*
X148737735Y-76858571D01*
X149059164Y-76394285D02*
X148309164Y-76394285D01*
X148309164Y-76394285D02*
X149059164Y-75965714D01*
X149059164Y-75965714D02*
X148309164Y-75965714D01*
X149059164Y-75608571D02*
X148309164Y-75608571D01*
X148309164Y-75608571D02*
X148309164Y-75430000D01*
X148309164Y-75430000D02*
X148344878Y-75322857D01*
X148344878Y-75322857D02*
X148416307Y-75251428D01*
X148416307Y-75251428D02*
X148487735Y-75215714D01*
X148487735Y-75215714D02*
X148630592Y-75180000D01*
X148630592Y-75180000D02*
X148737735Y-75180000D01*
X148737735Y-75180000D02*
X148880592Y-75215714D01*
X148880592Y-75215714D02*
X148952021Y-75251428D01*
X148952021Y-75251428D02*
X149023450Y-75322857D01*
X149023450Y-75322857D02*
X149059164Y-75430000D01*
X149059164Y-75430000D02*
X149059164Y-75608571D01*
X160291428Y-71824819D02*
X160481904Y-71824819D01*
X160481904Y-71824819D02*
X160577142Y-71872438D01*
X160577142Y-71872438D02*
X160672380Y-71967676D01*
X160672380Y-71967676D02*
X160719999Y-72158152D01*
X160719999Y-72158152D02*
X160719999Y-72491485D01*
X160719999Y-72491485D02*
X160672380Y-72681961D01*
X160672380Y-72681961D02*
X160577142Y-72777200D01*
X160577142Y-72777200D02*
X160481904Y-72824819D01*
X160481904Y-72824819D02*
X160291428Y-72824819D01*
X160291428Y-72824819D02*
X160196190Y-72777200D01*
X160196190Y-72777200D02*
X160100952Y-72681961D01*
X160100952Y-72681961D02*
X160053333Y-72491485D01*
X160053333Y-72491485D02*
X160053333Y-72158152D01*
X160053333Y-72158152D02*
X160100952Y-71967676D01*
X160100952Y-71967676D02*
X160196190Y-71872438D01*
X160196190Y-71872438D02*
X160291428Y-71824819D01*
X161624761Y-72824819D02*
X161148571Y-72824819D01*
X161148571Y-72824819D02*
X161148571Y-71824819D01*
X161958095Y-72301009D02*
X162291428Y-72301009D01*
X162434285Y-72824819D02*
X161958095Y-72824819D01*
X161958095Y-72824819D02*
X161958095Y-71824819D01*
X161958095Y-71824819D02*
X162434285Y-71824819D01*
X162862857Y-72824819D02*
X162862857Y-71824819D01*
X162862857Y-71824819D02*
X163100952Y-71824819D01*
X163100952Y-71824819D02*
X163243809Y-71872438D01*
X163243809Y-71872438D02*
X163339047Y-71967676D01*
X163339047Y-71967676D02*
X163386666Y-72062914D01*
X163386666Y-72062914D02*
X163434285Y-72253390D01*
X163434285Y-72253390D02*
X163434285Y-72396247D01*
X163434285Y-72396247D02*
X163386666Y-72586723D01*
X163386666Y-72586723D02*
X163339047Y-72681961D01*
X163339047Y-72681961D02*
X163243809Y-72777200D01*
X163243809Y-72777200D02*
X163100952Y-72824819D01*
X163100952Y-72824819D02*
X162862857Y-72824819D01*
X164624762Y-72824819D02*
X164624762Y-71824819D01*
X164624762Y-71824819D02*
X165005714Y-71824819D01*
X165005714Y-71824819D02*
X165100952Y-71872438D01*
X165100952Y-71872438D02*
X165148571Y-71920057D01*
X165148571Y-71920057D02*
X165196190Y-72015295D01*
X165196190Y-72015295D02*
X165196190Y-72158152D01*
X165196190Y-72158152D02*
X165148571Y-72253390D01*
X165148571Y-72253390D02*
X165100952Y-72301009D01*
X165100952Y-72301009D02*
X165005714Y-72348628D01*
X165005714Y-72348628D02*
X164624762Y-72348628D01*
X166053333Y-72824819D02*
X166053333Y-72301009D01*
X166053333Y-72301009D02*
X166005714Y-72205771D01*
X166005714Y-72205771D02*
X165910476Y-72158152D01*
X165910476Y-72158152D02*
X165720000Y-72158152D01*
X165720000Y-72158152D02*
X165624762Y-72205771D01*
X166053333Y-72777200D02*
X165958095Y-72824819D01*
X165958095Y-72824819D02*
X165720000Y-72824819D01*
X165720000Y-72824819D02*
X165624762Y-72777200D01*
X165624762Y-72777200D02*
X165577143Y-72681961D01*
X165577143Y-72681961D02*
X165577143Y-72586723D01*
X165577143Y-72586723D02*
X165624762Y-72491485D01*
X165624762Y-72491485D02*
X165720000Y-72443866D01*
X165720000Y-72443866D02*
X165958095Y-72443866D01*
X165958095Y-72443866D02*
X166053333Y-72396247D01*
X166529524Y-72158152D02*
X166529524Y-72824819D01*
X166529524Y-72253390D02*
X166577143Y-72205771D01*
X166577143Y-72205771D02*
X166672381Y-72158152D01*
X166672381Y-72158152D02*
X166815238Y-72158152D01*
X166815238Y-72158152D02*
X166910476Y-72205771D01*
X166910476Y-72205771D02*
X166958095Y-72301009D01*
X166958095Y-72301009D02*
X166958095Y-72824819D01*
X167815238Y-72777200D02*
X167720000Y-72824819D01*
X167720000Y-72824819D02*
X167529524Y-72824819D01*
X167529524Y-72824819D02*
X167434286Y-72777200D01*
X167434286Y-72777200D02*
X167386667Y-72681961D01*
X167386667Y-72681961D02*
X167386667Y-72301009D01*
X167386667Y-72301009D02*
X167434286Y-72205771D01*
X167434286Y-72205771D02*
X167529524Y-72158152D01*
X167529524Y-72158152D02*
X167720000Y-72158152D01*
X167720000Y-72158152D02*
X167815238Y-72205771D01*
X167815238Y-72205771D02*
X167862857Y-72301009D01*
X167862857Y-72301009D02*
X167862857Y-72396247D01*
X167862857Y-72396247D02*
X167386667Y-72491485D01*
X168434286Y-72824819D02*
X168339048Y-72777200D01*
X168339048Y-72777200D02*
X168291429Y-72681961D01*
X168291429Y-72681961D02*
X168291429Y-71824819D01*
X149023450Y-69470713D02*
X149059164Y-69363571D01*
X149059164Y-69363571D02*
X149059164Y-69184999D01*
X149059164Y-69184999D02*
X149023450Y-69113571D01*
X149023450Y-69113571D02*
X148987735Y-69077856D01*
X148987735Y-69077856D02*
X148916307Y-69042142D01*
X148916307Y-69042142D02*
X148844878Y-69042142D01*
X148844878Y-69042142D02*
X148773450Y-69077856D01*
X148773450Y-69077856D02*
X148737735Y-69113571D01*
X148737735Y-69113571D02*
X148702021Y-69184999D01*
X148702021Y-69184999D02*
X148666307Y-69327856D01*
X148666307Y-69327856D02*
X148630592Y-69399285D01*
X148630592Y-69399285D02*
X148594878Y-69434999D01*
X148594878Y-69434999D02*
X148523450Y-69470713D01*
X148523450Y-69470713D02*
X148452021Y-69470713D01*
X148452021Y-69470713D02*
X148380592Y-69434999D01*
X148380592Y-69434999D02*
X148344878Y-69399285D01*
X148344878Y-69399285D02*
X148309164Y-69327856D01*
X148309164Y-69327856D02*
X148309164Y-69149285D01*
X148309164Y-69149285D02*
X148344878Y-69042142D01*
X149059164Y-68720713D02*
X148309164Y-68720713D01*
X148309164Y-68720713D02*
X148309164Y-68542142D01*
X148309164Y-68542142D02*
X148344878Y-68434999D01*
X148344878Y-68434999D02*
X148416307Y-68363570D01*
X148416307Y-68363570D02*
X148487735Y-68327856D01*
X148487735Y-68327856D02*
X148630592Y-68292142D01*
X148630592Y-68292142D02*
X148737735Y-68292142D01*
X148737735Y-68292142D02*
X148880592Y-68327856D01*
X148880592Y-68327856D02*
X148952021Y-68363570D01*
X148952021Y-68363570D02*
X149023450Y-68434999D01*
X149023450Y-68434999D02*
X149059164Y-68542142D01*
X149059164Y-68542142D02*
X149059164Y-68720713D01*
X148844878Y-68006427D02*
X148844878Y-67649285D01*
X149059164Y-68077856D02*
X148309164Y-67827856D01*
X148309164Y-67827856D02*
X149059164Y-67577856D01*
X148309164Y-74639999D02*
X149059164Y-74389999D01*
X149059164Y-74389999D02*
X148309164Y-74139999D01*
X148987735Y-73461428D02*
X149023450Y-73497142D01*
X149023450Y-73497142D02*
X149059164Y-73604285D01*
X149059164Y-73604285D02*
X149059164Y-73675713D01*
X149059164Y-73675713D02*
X149023450Y-73782856D01*
X149023450Y-73782856D02*
X148952021Y-73854285D01*
X148952021Y-73854285D02*
X148880592Y-73889999D01*
X148880592Y-73889999D02*
X148737735Y-73925713D01*
X148737735Y-73925713D02*
X148630592Y-73925713D01*
X148630592Y-73925713D02*
X148487735Y-73889999D01*
X148487735Y-73889999D02*
X148416307Y-73854285D01*
X148416307Y-73854285D02*
X148344878Y-73782856D01*
X148344878Y-73782856D02*
X148309164Y-73675713D01*
X148309164Y-73675713D02*
X148309164Y-73604285D01*
X148309164Y-73604285D02*
X148344878Y-73497142D01*
X148344878Y-73497142D02*
X148380592Y-73461428D01*
X148987735Y-72711428D02*
X149023450Y-72747142D01*
X149023450Y-72747142D02*
X149059164Y-72854285D01*
X149059164Y-72854285D02*
X149059164Y-72925713D01*
X149059164Y-72925713D02*
X149023450Y-73032856D01*
X149023450Y-73032856D02*
X148952021Y-73104285D01*
X148952021Y-73104285D02*
X148880592Y-73139999D01*
X148880592Y-73139999D02*
X148737735Y-73175713D01*
X148737735Y-73175713D02*
X148630592Y-73175713D01*
X148630592Y-73175713D02*
X148487735Y-73139999D01*
X148487735Y-73139999D02*
X148416307Y-73104285D01*
X148416307Y-73104285D02*
X148344878Y-73032856D01*
X148344878Y-73032856D02*
X148309164Y-72925713D01*
X148309164Y-72925713D02*
X148309164Y-72854285D01*
X148309164Y-72854285D02*
X148344878Y-72747142D01*
X148344878Y-72747142D02*
X148380592Y-72711428D01*
X149023450Y-71992856D02*
X149059164Y-71885714D01*
X149059164Y-71885714D02*
X149059164Y-71707142D01*
X149059164Y-71707142D02*
X149023450Y-71635714D01*
X149023450Y-71635714D02*
X148987735Y-71599999D01*
X148987735Y-71599999D02*
X148916307Y-71564285D01*
X148916307Y-71564285D02*
X148844878Y-71564285D01*
X148844878Y-71564285D02*
X148773450Y-71599999D01*
X148773450Y-71599999D02*
X148737735Y-71635714D01*
X148737735Y-71635714D02*
X148702021Y-71707142D01*
X148702021Y-71707142D02*
X148666307Y-71849999D01*
X148666307Y-71849999D02*
X148630592Y-71921428D01*
X148630592Y-71921428D02*
X148594878Y-71957142D01*
X148594878Y-71957142D02*
X148523450Y-71992856D01*
X148523450Y-71992856D02*
X148452021Y-71992856D01*
X148452021Y-71992856D02*
X148380592Y-71957142D01*
X148380592Y-71957142D02*
X148344878Y-71921428D01*
X148344878Y-71921428D02*
X148309164Y-71849999D01*
X148309164Y-71849999D02*
X148309164Y-71671428D01*
X148309164Y-71671428D02*
X148344878Y-71564285D01*
X148987735Y-70814285D02*
X149023450Y-70849999D01*
X149023450Y-70849999D02*
X149059164Y-70957142D01*
X149059164Y-70957142D02*
X149059164Y-71028570D01*
X149059164Y-71028570D02*
X149023450Y-71135713D01*
X149023450Y-71135713D02*
X148952021Y-71207142D01*
X148952021Y-71207142D02*
X148880592Y-71242856D01*
X148880592Y-71242856D02*
X148737735Y-71278570D01*
X148737735Y-71278570D02*
X148630592Y-71278570D01*
X148630592Y-71278570D02*
X148487735Y-71242856D01*
X148487735Y-71242856D02*
X148416307Y-71207142D01*
X148416307Y-71207142D02*
X148344878Y-71135713D01*
X148344878Y-71135713D02*
X148309164Y-71028570D01*
X148309164Y-71028570D02*
X148309164Y-70957142D01*
X148309164Y-70957142D02*
X148344878Y-70849999D01*
X148344878Y-70849999D02*
X148380592Y-70814285D01*
X149059164Y-70135713D02*
X149059164Y-70492856D01*
X149059164Y-70492856D02*
X148309164Y-70492856D01*
X130586667Y-125832200D02*
X130729524Y-125879819D01*
X130729524Y-125879819D02*
X130967619Y-125879819D01*
X130967619Y-125879819D02*
X131062857Y-125832200D01*
X131062857Y-125832200D02*
X131110476Y-125784580D01*
X131110476Y-125784580D02*
X131158095Y-125689342D01*
X131158095Y-125689342D02*
X131158095Y-125594104D01*
X131158095Y-125594104D02*
X131110476Y-125498866D01*
X131110476Y-125498866D02*
X131062857Y-125451247D01*
X131062857Y-125451247D02*
X130967619Y-125403628D01*
X130967619Y-125403628D02*
X130777143Y-125356009D01*
X130777143Y-125356009D02*
X130681905Y-125308390D01*
X130681905Y-125308390D02*
X130634286Y-125260771D01*
X130634286Y-125260771D02*
X130586667Y-125165533D01*
X130586667Y-125165533D02*
X130586667Y-125070295D01*
X130586667Y-125070295D02*
X130634286Y-124975057D01*
X130634286Y-124975057D02*
X130681905Y-124927438D01*
X130681905Y-124927438D02*
X130777143Y-124879819D01*
X130777143Y-124879819D02*
X131015238Y-124879819D01*
X131015238Y-124879819D02*
X131158095Y-124927438D01*
X131491429Y-124879819D02*
X131729524Y-125879819D01*
X131729524Y-125879819D02*
X131920000Y-125165533D01*
X131920000Y-125165533D02*
X132110476Y-125879819D01*
X132110476Y-125879819D02*
X132348572Y-124879819D01*
X132634286Y-124879819D02*
X133300952Y-124879819D01*
X133300952Y-124879819D02*
X132872381Y-125879819D01*
X130326667Y-105483200D02*
X130469524Y-105530819D01*
X130469524Y-105530819D02*
X130707619Y-105530819D01*
X130707619Y-105530819D02*
X130802857Y-105483200D01*
X130802857Y-105483200D02*
X130850476Y-105435580D01*
X130850476Y-105435580D02*
X130898095Y-105340342D01*
X130898095Y-105340342D02*
X130898095Y-105245104D01*
X130898095Y-105245104D02*
X130850476Y-105149866D01*
X130850476Y-105149866D02*
X130802857Y-105102247D01*
X130802857Y-105102247D02*
X130707619Y-105054628D01*
X130707619Y-105054628D02*
X130517143Y-105007009D01*
X130517143Y-105007009D02*
X130421905Y-104959390D01*
X130421905Y-104959390D02*
X130374286Y-104911771D01*
X130374286Y-104911771D02*
X130326667Y-104816533D01*
X130326667Y-104816533D02*
X130326667Y-104721295D01*
X130326667Y-104721295D02*
X130374286Y-104626057D01*
X130374286Y-104626057D02*
X130421905Y-104578438D01*
X130421905Y-104578438D02*
X130517143Y-104530819D01*
X130517143Y-104530819D02*
X130755238Y-104530819D01*
X130755238Y-104530819D02*
X130898095Y-104578438D01*
X131231429Y-104530819D02*
X131469524Y-105530819D01*
X131469524Y-105530819D02*
X131660000Y-104816533D01*
X131660000Y-104816533D02*
X131850476Y-105530819D01*
X131850476Y-105530819D02*
X132088572Y-104530819D01*
X132612381Y-104959390D02*
X132517143Y-104911771D01*
X132517143Y-104911771D02*
X132469524Y-104864152D01*
X132469524Y-104864152D02*
X132421905Y-104768914D01*
X132421905Y-104768914D02*
X132421905Y-104721295D01*
X132421905Y-104721295D02*
X132469524Y-104626057D01*
X132469524Y-104626057D02*
X132517143Y-104578438D01*
X132517143Y-104578438D02*
X132612381Y-104530819D01*
X132612381Y-104530819D02*
X132802857Y-104530819D01*
X132802857Y-104530819D02*
X132898095Y-104578438D01*
X132898095Y-104578438D02*
X132945714Y-104626057D01*
X132945714Y-104626057D02*
X132993333Y-104721295D01*
X132993333Y-104721295D02*
X132993333Y-104768914D01*
X132993333Y-104768914D02*
X132945714Y-104864152D01*
X132945714Y-104864152D02*
X132898095Y-104911771D01*
X132898095Y-104911771D02*
X132802857Y-104959390D01*
X132802857Y-104959390D02*
X132612381Y-104959390D01*
X132612381Y-104959390D02*
X132517143Y-105007009D01*
X132517143Y-105007009D02*
X132469524Y-105054628D01*
X132469524Y-105054628D02*
X132421905Y-105149866D01*
X132421905Y-105149866D02*
X132421905Y-105340342D01*
X132421905Y-105340342D02*
X132469524Y-105435580D01*
X132469524Y-105435580D02*
X132517143Y-105483200D01*
X132517143Y-105483200D02*
X132612381Y-105530819D01*
X132612381Y-105530819D02*
X132802857Y-105530819D01*
X132802857Y-105530819D02*
X132898095Y-105483200D01*
X132898095Y-105483200D02*
X132945714Y-105435580D01*
X132945714Y-105435580D02*
X132993333Y-105340342D01*
X132993333Y-105340342D02*
X132993333Y-105149866D01*
X132993333Y-105149866D02*
X132945714Y-105054628D01*
X132945714Y-105054628D02*
X132898095Y-105007009D01*
X132898095Y-105007009D02*
X132802857Y-104959390D01*
X172266667Y-104863200D02*
X172409524Y-104910819D01*
X172409524Y-104910819D02*
X172647619Y-104910819D01*
X172647619Y-104910819D02*
X172742857Y-104863200D01*
X172742857Y-104863200D02*
X172790476Y-104815580D01*
X172790476Y-104815580D02*
X172838095Y-104720342D01*
X172838095Y-104720342D02*
X172838095Y-104625104D01*
X172838095Y-104625104D02*
X172790476Y-104529866D01*
X172790476Y-104529866D02*
X172742857Y-104482247D01*
X172742857Y-104482247D02*
X172647619Y-104434628D01*
X172647619Y-104434628D02*
X172457143Y-104387009D01*
X172457143Y-104387009D02*
X172361905Y-104339390D01*
X172361905Y-104339390D02*
X172314286Y-104291771D01*
X172314286Y-104291771D02*
X172266667Y-104196533D01*
X172266667Y-104196533D02*
X172266667Y-104101295D01*
X172266667Y-104101295D02*
X172314286Y-104006057D01*
X172314286Y-104006057D02*
X172361905Y-103958438D01*
X172361905Y-103958438D02*
X172457143Y-103910819D01*
X172457143Y-103910819D02*
X172695238Y-103910819D01*
X172695238Y-103910819D02*
X172838095Y-103958438D01*
X173171429Y-103910819D02*
X173409524Y-104910819D01*
X173409524Y-104910819D02*
X173600000Y-104196533D01*
X173600000Y-104196533D02*
X173790476Y-104910819D01*
X173790476Y-104910819D02*
X174028572Y-103910819D01*
X174838095Y-103910819D02*
X174647619Y-103910819D01*
X174647619Y-103910819D02*
X174552381Y-103958438D01*
X174552381Y-103958438D02*
X174504762Y-104006057D01*
X174504762Y-104006057D02*
X174409524Y-104148914D01*
X174409524Y-104148914D02*
X174361905Y-104339390D01*
X174361905Y-104339390D02*
X174361905Y-104720342D01*
X174361905Y-104720342D02*
X174409524Y-104815580D01*
X174409524Y-104815580D02*
X174457143Y-104863200D01*
X174457143Y-104863200D02*
X174552381Y-104910819D01*
X174552381Y-104910819D02*
X174742857Y-104910819D01*
X174742857Y-104910819D02*
X174838095Y-104863200D01*
X174838095Y-104863200D02*
X174885714Y-104815580D01*
X174885714Y-104815580D02*
X174933333Y-104720342D01*
X174933333Y-104720342D02*
X174933333Y-104482247D01*
X174933333Y-104482247D02*
X174885714Y-104387009D01*
X174885714Y-104387009D02*
X174838095Y-104339390D01*
X174838095Y-104339390D02*
X174742857Y-104291771D01*
X174742857Y-104291771D02*
X174552381Y-104291771D01*
X174552381Y-104291771D02*
X174457143Y-104339390D01*
X174457143Y-104339390D02*
X174409524Y-104387009D01*
X174409524Y-104387009D02*
X174361905Y-104482247D01*
X131036667Y-85023200D02*
X131179524Y-85070819D01*
X131179524Y-85070819D02*
X131417619Y-85070819D01*
X131417619Y-85070819D02*
X131512857Y-85023200D01*
X131512857Y-85023200D02*
X131560476Y-84975580D01*
X131560476Y-84975580D02*
X131608095Y-84880342D01*
X131608095Y-84880342D02*
X131608095Y-84785104D01*
X131608095Y-84785104D02*
X131560476Y-84689866D01*
X131560476Y-84689866D02*
X131512857Y-84642247D01*
X131512857Y-84642247D02*
X131417619Y-84594628D01*
X131417619Y-84594628D02*
X131227143Y-84547009D01*
X131227143Y-84547009D02*
X131131905Y-84499390D01*
X131131905Y-84499390D02*
X131084286Y-84451771D01*
X131084286Y-84451771D02*
X131036667Y-84356533D01*
X131036667Y-84356533D02*
X131036667Y-84261295D01*
X131036667Y-84261295D02*
X131084286Y-84166057D01*
X131084286Y-84166057D02*
X131131905Y-84118438D01*
X131131905Y-84118438D02*
X131227143Y-84070819D01*
X131227143Y-84070819D02*
X131465238Y-84070819D01*
X131465238Y-84070819D02*
X131608095Y-84118438D01*
X131941429Y-84070819D02*
X132179524Y-85070819D01*
X132179524Y-85070819D02*
X132370000Y-84356533D01*
X132370000Y-84356533D02*
X132560476Y-85070819D01*
X132560476Y-85070819D02*
X132798572Y-84070819D01*
X133608095Y-84404152D02*
X133608095Y-85070819D01*
X133370000Y-84023200D02*
X133131905Y-84737485D01*
X133131905Y-84737485D02*
X133750952Y-84737485D01*
X151516667Y-84813200D02*
X151659524Y-84860819D01*
X151659524Y-84860819D02*
X151897619Y-84860819D01*
X151897619Y-84860819D02*
X151992857Y-84813200D01*
X151992857Y-84813200D02*
X152040476Y-84765580D01*
X152040476Y-84765580D02*
X152088095Y-84670342D01*
X152088095Y-84670342D02*
X152088095Y-84575104D01*
X152088095Y-84575104D02*
X152040476Y-84479866D01*
X152040476Y-84479866D02*
X151992857Y-84432247D01*
X151992857Y-84432247D02*
X151897619Y-84384628D01*
X151897619Y-84384628D02*
X151707143Y-84337009D01*
X151707143Y-84337009D02*
X151611905Y-84289390D01*
X151611905Y-84289390D02*
X151564286Y-84241771D01*
X151564286Y-84241771D02*
X151516667Y-84146533D01*
X151516667Y-84146533D02*
X151516667Y-84051295D01*
X151516667Y-84051295D02*
X151564286Y-83956057D01*
X151564286Y-83956057D02*
X151611905Y-83908438D01*
X151611905Y-83908438D02*
X151707143Y-83860819D01*
X151707143Y-83860819D02*
X151945238Y-83860819D01*
X151945238Y-83860819D02*
X152088095Y-83908438D01*
X152421429Y-83860819D02*
X152659524Y-84860819D01*
X152659524Y-84860819D02*
X152850000Y-84146533D01*
X152850000Y-84146533D02*
X153040476Y-84860819D01*
X153040476Y-84860819D02*
X153278572Y-83860819D01*
X153611905Y-83956057D02*
X153659524Y-83908438D01*
X153659524Y-83908438D02*
X153754762Y-83860819D01*
X153754762Y-83860819D02*
X153992857Y-83860819D01*
X153992857Y-83860819D02*
X154088095Y-83908438D01*
X154088095Y-83908438D02*
X154135714Y-83956057D01*
X154135714Y-83956057D02*
X154183333Y-84051295D01*
X154183333Y-84051295D02*
X154183333Y-84146533D01*
X154183333Y-84146533D02*
X154135714Y-84289390D01*
X154135714Y-84289390D02*
X153564286Y-84860819D01*
X153564286Y-84860819D02*
X154183333Y-84860819D01*
X151686667Y-124293200D02*
X151829524Y-124340819D01*
X151829524Y-124340819D02*
X152067619Y-124340819D01*
X152067619Y-124340819D02*
X152162857Y-124293200D01*
X152162857Y-124293200D02*
X152210476Y-124245580D01*
X152210476Y-124245580D02*
X152258095Y-124150342D01*
X152258095Y-124150342D02*
X152258095Y-124055104D01*
X152258095Y-124055104D02*
X152210476Y-123959866D01*
X152210476Y-123959866D02*
X152162857Y-123912247D01*
X152162857Y-123912247D02*
X152067619Y-123864628D01*
X152067619Y-123864628D02*
X151877143Y-123817009D01*
X151877143Y-123817009D02*
X151781905Y-123769390D01*
X151781905Y-123769390D02*
X151734286Y-123721771D01*
X151734286Y-123721771D02*
X151686667Y-123626533D01*
X151686667Y-123626533D02*
X151686667Y-123531295D01*
X151686667Y-123531295D02*
X151734286Y-123436057D01*
X151734286Y-123436057D02*
X151781905Y-123388438D01*
X151781905Y-123388438D02*
X151877143Y-123340819D01*
X151877143Y-123340819D02*
X152115238Y-123340819D01*
X152115238Y-123340819D02*
X152258095Y-123388438D01*
X152591429Y-123340819D02*
X152829524Y-124340819D01*
X152829524Y-124340819D02*
X153020000Y-123626533D01*
X153020000Y-123626533D02*
X153210476Y-124340819D01*
X153210476Y-124340819D02*
X153448572Y-123340819D01*
X154305714Y-123340819D02*
X153829524Y-123340819D01*
X153829524Y-123340819D02*
X153781905Y-123817009D01*
X153781905Y-123817009D02*
X153829524Y-123769390D01*
X153829524Y-123769390D02*
X153924762Y-123721771D01*
X153924762Y-123721771D02*
X154162857Y-123721771D01*
X154162857Y-123721771D02*
X154258095Y-123769390D01*
X154258095Y-123769390D02*
X154305714Y-123817009D01*
X154305714Y-123817009D02*
X154353333Y-123912247D01*
X154353333Y-123912247D02*
X154353333Y-124150342D01*
X154353333Y-124150342D02*
X154305714Y-124245580D01*
X154305714Y-124245580D02*
X154258095Y-124293200D01*
X154258095Y-124293200D02*
X154162857Y-124340819D01*
X154162857Y-124340819D02*
X153924762Y-124340819D01*
X153924762Y-124340819D02*
X153829524Y-124293200D01*
X153829524Y-124293200D02*
X153781905Y-124245580D01*
X151586667Y-104293200D02*
X151729524Y-104340819D01*
X151729524Y-104340819D02*
X151967619Y-104340819D01*
X151967619Y-104340819D02*
X152062857Y-104293200D01*
X152062857Y-104293200D02*
X152110476Y-104245580D01*
X152110476Y-104245580D02*
X152158095Y-104150342D01*
X152158095Y-104150342D02*
X152158095Y-104055104D01*
X152158095Y-104055104D02*
X152110476Y-103959866D01*
X152110476Y-103959866D02*
X152062857Y-103912247D01*
X152062857Y-103912247D02*
X151967619Y-103864628D01*
X151967619Y-103864628D02*
X151777143Y-103817009D01*
X151777143Y-103817009D02*
X151681905Y-103769390D01*
X151681905Y-103769390D02*
X151634286Y-103721771D01*
X151634286Y-103721771D02*
X151586667Y-103626533D01*
X151586667Y-103626533D02*
X151586667Y-103531295D01*
X151586667Y-103531295D02*
X151634286Y-103436057D01*
X151634286Y-103436057D02*
X151681905Y-103388438D01*
X151681905Y-103388438D02*
X151777143Y-103340819D01*
X151777143Y-103340819D02*
X152015238Y-103340819D01*
X152015238Y-103340819D02*
X152158095Y-103388438D01*
X152491429Y-103340819D02*
X152729524Y-104340819D01*
X152729524Y-104340819D02*
X152920000Y-103626533D01*
X152920000Y-103626533D02*
X153110476Y-104340819D01*
X153110476Y-104340819D02*
X153348572Y-103340819D01*
X153777143Y-104340819D02*
X153967619Y-104340819D01*
X153967619Y-104340819D02*
X154062857Y-104293200D01*
X154062857Y-104293200D02*
X154110476Y-104245580D01*
X154110476Y-104245580D02*
X154205714Y-104102723D01*
X154205714Y-104102723D02*
X154253333Y-103912247D01*
X154253333Y-103912247D02*
X154253333Y-103531295D01*
X154253333Y-103531295D02*
X154205714Y-103436057D01*
X154205714Y-103436057D02*
X154158095Y-103388438D01*
X154158095Y-103388438D02*
X154062857Y-103340819D01*
X154062857Y-103340819D02*
X153872381Y-103340819D01*
X153872381Y-103340819D02*
X153777143Y-103388438D01*
X153777143Y-103388438D02*
X153729524Y-103436057D01*
X153729524Y-103436057D02*
X153681905Y-103531295D01*
X153681905Y-103531295D02*
X153681905Y-103769390D01*
X153681905Y-103769390D02*
X153729524Y-103864628D01*
X153729524Y-103864628D02*
X153777143Y-103912247D01*
X153777143Y-103912247D02*
X153872381Y-103959866D01*
X153872381Y-103959866D02*
X154062857Y-103959866D01*
X154062857Y-103959866D02*
X154158095Y-103912247D01*
X154158095Y-103912247D02*
X154205714Y-103864628D01*
X154205714Y-103864628D02*
X154253333Y-103769390D01*
X172266667Y-84873200D02*
X172409524Y-84920819D01*
X172409524Y-84920819D02*
X172647619Y-84920819D01*
X172647619Y-84920819D02*
X172742857Y-84873200D01*
X172742857Y-84873200D02*
X172790476Y-84825580D01*
X172790476Y-84825580D02*
X172838095Y-84730342D01*
X172838095Y-84730342D02*
X172838095Y-84635104D01*
X172838095Y-84635104D02*
X172790476Y-84539866D01*
X172790476Y-84539866D02*
X172742857Y-84492247D01*
X172742857Y-84492247D02*
X172647619Y-84444628D01*
X172647619Y-84444628D02*
X172457143Y-84397009D01*
X172457143Y-84397009D02*
X172361905Y-84349390D01*
X172361905Y-84349390D02*
X172314286Y-84301771D01*
X172314286Y-84301771D02*
X172266667Y-84206533D01*
X172266667Y-84206533D02*
X172266667Y-84111295D01*
X172266667Y-84111295D02*
X172314286Y-84016057D01*
X172314286Y-84016057D02*
X172361905Y-83968438D01*
X172361905Y-83968438D02*
X172457143Y-83920819D01*
X172457143Y-83920819D02*
X172695238Y-83920819D01*
X172695238Y-83920819D02*
X172838095Y-83968438D01*
X173171429Y-83920819D02*
X173409524Y-84920819D01*
X173409524Y-84920819D02*
X173600000Y-84206533D01*
X173600000Y-84206533D02*
X173790476Y-84920819D01*
X173790476Y-84920819D02*
X174028572Y-83920819D01*
X174933333Y-84920819D02*
X174361905Y-84920819D01*
X174647619Y-84920819D02*
X174647619Y-83920819D01*
X174647619Y-83920819D02*
X174552381Y-84063676D01*
X174552381Y-84063676D02*
X174457143Y-84158914D01*
X174457143Y-84158914D02*
X174361905Y-84206533D01*
D12*
%TO.C,SW3*%
X166575000Y-124995000D02*
X180545000Y-124995000D01*
X166575000Y-138965000D02*
X166575000Y-124995000D01*
X180545000Y-124995000D02*
X180545000Y-138965000D01*
X180545000Y-138965000D02*
X166575000Y-138965000D01*
D13*
%TO.C,J1*%
X145220000Y-66370000D02*
X145220000Y-78370000D01*
X145220000Y-78370000D02*
X183220000Y-78370000D01*
X150220000Y-78370000D02*
X150220000Y-66370000D01*
X179720000Y-78370000D02*
X179720000Y-66370000D01*
X183220000Y-66370000D02*
X145220000Y-66370000D01*
X183220000Y-78370000D02*
X183220000Y-66370000D01*
D12*
%TO.C,SW7*%
X124935000Y-125425000D02*
X138905000Y-125425000D01*
X124935000Y-139395000D02*
X124935000Y-125425000D01*
X138905000Y-125425000D02*
X138905000Y-139395000D01*
X138905000Y-139395000D02*
X124935000Y-139395000D01*
D14*
%TO.C,U1*%
X123430000Y-80429000D02*
X123430000Y-63284000D01*
X125335000Y-82334000D02*
X139305000Y-82334000D01*
X127825000Y-61379000D02*
X127828728Y-60468728D01*
X128328728Y-59969000D02*
X136324000Y-59969000D01*
X136824000Y-60469000D02*
X136824000Y-61379000D01*
D10*
X139305000Y-61379000D02*
X125335000Y-61379000D01*
D14*
X139305000Y-61379000D02*
X125335000Y-61379000D01*
X141210000Y-80429000D02*
X141210000Y-63284000D01*
X123430000Y-63284000D02*
G75*
G02*
X125335000Y-61379000I1905001J-1D01*
G01*
X125335000Y-82334000D02*
G75*
G02*
X123430000Y-80429000I1J1905001D01*
G01*
X127828728Y-60468728D02*
G75*
G02*
X128328728Y-59969001I500018J-291D01*
G01*
X136324000Y-59969000D02*
G75*
G02*
X136824000Y-60469000I0J-500000D01*
G01*
X139305000Y-61379000D02*
G75*
G02*
X141210000Y-63284000I0J-1905000D01*
G01*
X141210000Y-80429000D02*
G75*
G02*
X139305000Y-82334000I-1905000J0D01*
G01*
D15*
X123622000Y-61620000D02*
G75*
G02*
X123118000Y-61620000I-252000J0D01*
G01*
X123118000Y-61620000D02*
G75*
G02*
X123622000Y-61620000I252000J0D01*
G01*
X124765000Y-62500000D02*
G75*
G02*
X124261000Y-62500000I-252000J0D01*
G01*
X124261000Y-62500000D02*
G75*
G02*
X124765000Y-62500000I252000J0D01*
G01*
D12*
%TO.C,SW8*%
X124675000Y-105965000D02*
X138645000Y-105965000D01*
X124675000Y-119935000D02*
X124675000Y-105965000D01*
X138645000Y-105965000D02*
X138645000Y-119935000D01*
X138645000Y-119935000D02*
X124675000Y-119935000D01*
%TO.C,SW6*%
X166615000Y-105345000D02*
X180585000Y-105345000D01*
X166615000Y-119315000D02*
X166615000Y-105345000D01*
X180585000Y-105345000D02*
X180585000Y-119315000D01*
X180585000Y-119315000D02*
X166615000Y-119315000D01*
%TO.C,SW4*%
X125385000Y-85505000D02*
X139355000Y-85505000D01*
X125385000Y-99475000D02*
X125385000Y-85505000D01*
X139355000Y-85505000D02*
X139355000Y-99475000D01*
X139355000Y-99475000D02*
X125385000Y-99475000D01*
%TO.C,SW2*%
X145865000Y-85295000D02*
X159835000Y-85295000D01*
X145865000Y-99265000D02*
X145865000Y-85295000D01*
X159835000Y-85295000D02*
X159835000Y-99265000D01*
X159835000Y-99265000D02*
X145865000Y-99265000D01*
%TO.C,SW5*%
X146035000Y-124775000D02*
X160005000Y-124775000D01*
X146035000Y-138745000D02*
X146035000Y-124775000D01*
X160005000Y-124775000D02*
X160005000Y-138745000D01*
X160005000Y-138745000D02*
X146035000Y-138745000D01*
%TO.C,SW9*%
X145935000Y-104775000D02*
X159905000Y-104775000D01*
X145935000Y-118745000D02*
X145935000Y-104775000D01*
X159905000Y-104775000D02*
X159905000Y-118745000D01*
X159905000Y-118745000D02*
X145935000Y-118745000D01*
%TO.C,SW1*%
X166615000Y-85355000D02*
X180585000Y-85355000D01*
X166615000Y-99325000D02*
X166615000Y-85355000D01*
X180585000Y-85355000D02*
X180585000Y-99325000D01*
X180585000Y-99325000D02*
X166615000Y-99325000D01*
%TD*%
D16*
%TO.P,SW3,1,1*%
%TO.N,GND*%
X176100000Y-126900000D03*
%TO.P,SW3,2,2*%
%TO.N,Net-(U1-GPIO2{slash}SCK)*%
X169750000Y-129440000D03*
%TD*%
D17*
%TO.P,J1,1,Pin_1*%
%TO.N,GND*%
X146720000Y-76180000D03*
D18*
%TO.P,J1,2,Pin_2*%
%TO.N,Net-(J1-Pin_2)*%
X146720000Y-73640000D03*
%TO.P,J1,3,Pin_3*%
%TO.N,Net-(J1-Pin_3)*%
X146720000Y-71100000D03*
%TO.P,J1,4,Pin_4*%
%TO.N,Net-(J1-Pin_4)*%
X146720000Y-68560000D03*
%TD*%
D16*
%TO.P,SW7,1,1*%
%TO.N,GND*%
X134460000Y-127330000D03*
%TO.P,SW7,2,2*%
%TO.N,Net-(U1-GPIO27{slash}ADC1{slash}A1)*%
X128110000Y-129870000D03*
%TD*%
D19*
%TO.P,U1,1,GPIO26/ADC0/A0*%
%TO.N,Net-(U1-GPIO26{slash}ADC0{slash}A0)*%
X124700000Y-64300000D03*
%TO.P,U1,2,GPIO27/ADC1/A1*%
%TO.N,Net-(U1-GPIO27{slash}ADC1{slash}A1)*%
X124700000Y-66840000D03*
%TO.P,U1,3,GPIO28/ADC2/A2*%
%TO.N,Net-(U1-GPIO28{slash}ADC2{slash}A2)*%
X124700000Y-69380000D03*
%TO.P,U1,4,GPIO29/ADC3/A3*%
%TO.N,Net-(U1-GPIO29{slash}ADC3{slash}A3)*%
X124700000Y-71920000D03*
%TO.P,U1,5,GPIO6/SDA*%
%TO.N,Net-(J1-Pin_4)*%
X124700000Y-74460000D03*
%TO.P,U1,6,GPIO7/SCL*%
%TO.N,Net-(J1-Pin_3)*%
X124700000Y-77000000D03*
%TO.P,U1,7,GPIO0/TX*%
%TO.N,Net-(U1-GPIO0{slash}TX)*%
X124700000Y-79540000D03*
%TO.P,U1,8,GPIO1/RX*%
%TO.N,Net-(U1-GPIO1{slash}RX)*%
X139940000Y-79540000D03*
%TO.P,U1,9,GPIO2/SCK*%
%TO.N,Net-(U1-GPIO2{slash}SCK)*%
X139940000Y-77000000D03*
%TO.P,U1,10,GPIO4/MISO*%
%TO.N,Net-(U1-GPIO4{slash}MISO)*%
X139940000Y-74460000D03*
%TO.P,U1,11,GPIO3/MOSI*%
%TO.N,Net-(U1-GPIO3{slash}MOSI)*%
X139940000Y-71920000D03*
%TO.P,U1,12,3V3*%
%TO.N,Net-(J1-Pin_2)*%
X139940000Y-69380000D03*
%TO.P,U1,13,GND*%
%TO.N,GND*%
X139940000Y-66840000D03*
%TO.P,U1,14,VBUS*%
%TO.N,unconnected-(U1-VBUS-Pad14)_1*%
X139940000Y-64300000D03*
%TD*%
D16*
%TO.P,SW8,1,1*%
%TO.N,GND*%
X134200000Y-107870000D03*
%TO.P,SW8,2,2*%
%TO.N,Net-(U1-GPIO1{slash}RX)*%
X127850000Y-110410000D03*
%TD*%
%TO.P,SW6,1,1*%
%TO.N,GND*%
X176140000Y-107250000D03*
%TO.P,SW6,2,2*%
%TO.N,Net-(U1-GPIO4{slash}MISO)*%
X169790000Y-109790000D03*
%TD*%
%TO.P,SW4,1,1*%
%TO.N,GND*%
X134910000Y-87410000D03*
%TO.P,SW4,2,2*%
%TO.N,Net-(U1-GPIO26{slash}ADC0{slash}A0)*%
X128560000Y-89950000D03*
%TD*%
%TO.P,SW2,1,1*%
%TO.N,GND*%
X155390000Y-87200000D03*
%TO.P,SW2,2,2*%
%TO.N,Net-(U1-GPIO29{slash}ADC3{slash}A3)*%
X149040000Y-89740000D03*
%TD*%
%TO.P,SW5,1,1*%
%TO.N,GND*%
X155560000Y-126680000D03*
%TO.P,SW5,2,2*%
%TO.N,Net-(U1-GPIO0{slash}TX)*%
X149210000Y-129220000D03*
%TD*%
%TO.P,SW9,1,1*%
%TO.N,GND*%
X155460000Y-106680000D03*
%TO.P,SW9,2,2*%
%TO.N,Net-(U1-GPIO3{slash}MOSI)*%
X149110000Y-109220000D03*
%TD*%
%TO.P,SW1,1,1*%
%TO.N,GND*%
X176140000Y-87260000D03*
%TO.P,SW1,2,2*%
%TO.N,Net-(U1-GPIO28{slash}ADC2{slash}A2)*%
X169790000Y-89800000D03*
%TD*%
D20*
%TO.N,Net-(U1-GPIO28{slash}ADC2{slash}A2)*%
X125449400Y-87777800D03*
%TO.N,Net-(U1-GPIO29{slash}ADC3{slash}A3)*%
X124308800Y-88951700D03*
%TO.N,Net-(U1-GPIO2{slash}SCK)*%
X168358100Y-79872800D03*
%TO.N,Net-(U1-GPIO0{slash}TX)*%
X141840700Y-83730300D03*
%TO.N,Net-(U1-GPIO4{slash}MISO)*%
X143479500Y-107133400D03*
%TD*%
D21*
%TO.N,Net-(J1-Pin_2)*%
X144973300Y-73395000D02*
X140958300Y-69380000D01*
X140958300Y-69380000D02*
X139940000Y-69380000D01*
X146125000Y-73395000D02*
X144973300Y-73395000D01*
%TO.N,GND*%
X176140000Y-107250000D02*
X175570000Y-106680000D01*
X155390000Y-87200000D02*
X135120000Y-87200000D01*
X135120000Y-87200000D02*
X134910000Y-87410000D01*
X135110000Y-126680000D02*
X134460000Y-127330000D01*
X175880000Y-126680000D02*
X155560000Y-126680000D01*
X175570000Y-106680000D02*
X155460000Y-106680000D01*
X155450000Y-87260000D02*
X155390000Y-87200000D01*
X155560000Y-126680000D02*
X135110000Y-126680000D01*
X176140000Y-87260000D02*
X155450000Y-87260000D01*
X176100000Y-126900000D02*
X175880000Y-126680000D01*
%TO.N,Net-(J1-Pin_4)*%
X124700000Y-74460000D02*
X130845000Y-68315000D01*
X130845000Y-68315000D02*
X146125000Y-68315000D01*
%TO.N,Net-(J1-Pin_3)*%
X146393500Y-72006700D02*
X146125000Y-72006700D01*
X146125000Y-70855000D02*
X146125000Y-72006700D01*
X142921200Y-75730000D02*
X143945200Y-74706000D01*
X147325700Y-73886400D02*
X147325700Y-72938900D01*
X125970000Y-75730000D02*
X142921200Y-75730000D01*
X124700000Y-77000000D02*
X125970000Y-75730000D01*
X146506100Y-74706000D02*
X147325700Y-73886400D01*
X147325700Y-72938900D02*
X146393500Y-72006700D01*
X143945200Y-74706000D02*
X146506100Y-74706000D01*
%TO.N,Net-(U1-GPIO28{slash}ADC2{slash}A2)*%
X144912500Y-88338300D02*
X144436700Y-88814100D01*
X130827800Y-87777800D02*
X125449400Y-87777800D01*
X125449400Y-87777800D02*
X125361800Y-87690200D01*
X169790000Y-89800000D02*
X155450000Y-89800000D01*
X125361800Y-87690200D02*
X125449400Y-87777800D01*
X131864100Y-88814100D02*
X130827800Y-87777800D01*
X153988300Y-88338300D02*
X144912500Y-88338300D01*
X155450000Y-89800000D02*
X153988300Y-88338300D01*
X144436700Y-88814100D02*
X131864100Y-88814100D01*
%TO.N,Net-(U1-GPIO29{slash}ADC3{slash}A3)*%
X124308800Y-88381200D02*
X124308800Y-88951700D01*
X124308800Y-88951700D02*
X124712200Y-88548300D01*
X131296400Y-89740000D02*
X149040000Y-89740000D01*
X130104700Y-88548300D02*
X131296400Y-89740000D01*
X124308800Y-88951700D02*
X124308800Y-88381200D01*
X124712200Y-88548300D02*
X130104700Y-88548300D01*
%TO.N,Net-(U1-GPIO2{slash}SCK)*%
X168358100Y-79872800D02*
X142812800Y-79872800D01*
X142812800Y-79872800D02*
X139940000Y-77000000D01*
%TO.N,Net-(U1-GPIO0{slash}TX)*%
X125805200Y-80645200D02*
X124700000Y-79540000D01*
X138755600Y-80645200D02*
X141840700Y-83730300D01*
X138755600Y-80645200D02*
X125805200Y-80645200D01*
%TO.N,Net-(U1-GPIO4{slash}MISO)*%
X169790000Y-109790000D02*
X155510500Y-109790000D01*
X145226900Y-108880800D02*
X143479500Y-107133400D01*
X143579600Y-107233500D02*
X143479500Y-107133400D01*
X146310100Y-107797600D02*
X145226900Y-108880800D01*
X153518100Y-107797600D02*
X146310100Y-107797600D01*
X155510500Y-109790000D02*
X153518100Y-107797600D01*
X143479500Y-107133400D02*
X143579600Y-107233500D01*
%TD*%
D22*
%TO.C,SW3*%
X168480000Y-131980000D03*
D23*
X173560000Y-131980000D03*
D22*
X178640000Y-131980000D03*
D24*
X176100000Y-126900000D03*
X169750000Y-129440000D03*
%TD*%
D25*
%TO.C,J1*%
X146720000Y-76180000D03*
D26*
X146720000Y-73640000D03*
X146720000Y-71100000D03*
X146720000Y-68560000D03*
%TD*%
D22*
%TO.C,SW7*%
X126840000Y-132410000D03*
D23*
X131920000Y-132410000D03*
D22*
X137000000Y-132410000D03*
D24*
X134460000Y-127330000D03*
X128110000Y-129870000D03*
%TD*%
D27*
%TO.C,U1*%
X124700000Y-64300000D03*
X124700000Y-66840000D03*
X124700000Y-69380000D03*
X124700000Y-71920000D03*
X124700000Y-74460000D03*
X124700000Y-77000000D03*
X124700000Y-79540000D03*
X139940000Y-79540000D03*
X139940000Y-77000000D03*
X139940000Y-74460000D03*
X139940000Y-71920000D03*
X139940000Y-69380000D03*
X139940000Y-66840000D03*
X139940000Y-64300000D03*
%TD*%
D22*
%TO.C,SW8*%
X126580000Y-112950000D03*
D23*
X131660000Y-112950000D03*
D22*
X136740000Y-112950000D03*
D24*
X134200000Y-107870000D03*
X127850000Y-110410000D03*
%TD*%
D22*
%TO.C,SW6*%
X168520000Y-112330000D03*
D23*
X173600000Y-112330000D03*
D22*
X178680000Y-112330000D03*
D24*
X176140000Y-107250000D03*
X169790000Y-109790000D03*
%TD*%
D22*
%TO.C,SW4*%
X127290000Y-92490000D03*
D23*
X132370000Y-92490000D03*
D22*
X137450000Y-92490000D03*
D24*
X134910000Y-87410000D03*
X128560000Y-89950000D03*
%TD*%
D22*
%TO.C,SW2*%
X147770000Y-92280000D03*
D23*
X152850000Y-92280000D03*
D22*
X157930000Y-92280000D03*
D24*
X155390000Y-87200000D03*
X149040000Y-89740000D03*
%TD*%
D22*
%TO.C,SW5*%
X147940000Y-131760000D03*
D23*
X153020000Y-131760000D03*
D22*
X158100000Y-131760000D03*
D24*
X155560000Y-126680000D03*
X149210000Y-129220000D03*
%TD*%
D22*
%TO.C,SW9*%
X147840000Y-111760000D03*
D23*
X152920000Y-111760000D03*
D22*
X158000000Y-111760000D03*
D24*
X155460000Y-106680000D03*
X149110000Y-109220000D03*
%TD*%
D22*
%TO.C,SW1*%
X168520000Y-92340000D03*
D23*
X173600000Y-92340000D03*
D22*
X178680000Y-92340000D03*
D24*
X176140000Y-87260000D03*
X169790000Y-89800000D03*
%TD*%
D28*
X134620000Y-70085471D02*
X134548571Y-70156900D01*
X134548571Y-70156900D02*
X134620000Y-70228328D01*
X134620000Y-70228328D02*
X134691428Y-70156900D01*
X134691428Y-70156900D02*
X134620000Y-70085471D01*
X134620000Y-70085471D02*
X134620000Y-70228328D01*
D29*
%TO.C,.*%
G36*
X125498310Y-73515636D02*
G01*
X125517405Y-73606216D01*
X125539831Y-73718201D01*
X125548572Y-73770446D01*
X125533306Y-73777802D01*
X125451198Y-73787212D01*
X125321786Y-73790892D01*
X125187313Y-73778832D01*
X125033762Y-73722726D01*
X124941494Y-73635581D01*
X124913260Y-73533803D01*
X124951811Y-73433793D01*
X125059895Y-73351955D01*
X125240265Y-73304692D01*
X125448048Y-73281272D01*
X125498310Y-73515636D01*
G37*
G36*
X125353681Y-72656979D02*
G01*
X125384259Y-72753880D01*
X125403665Y-72874308D01*
X125412500Y-72980133D01*
X125410468Y-72996494D01*
X125358103Y-73049247D01*
X125255869Y-73067192D01*
X125131911Y-73049306D01*
X125014378Y-72994570D01*
X124949379Y-72930162D01*
X124912206Y-72826660D01*
X124938442Y-72734100D01*
X125026965Y-72680507D01*
X125113152Y-72662658D01*
X125248187Y-72634817D01*
X125300428Y-72628523D01*
X125353681Y-72656979D01*
G37*
G36*
X133500568Y-68575433D02*
G01*
X133575993Y-68604282D01*
X133691833Y-68666853D01*
X133828206Y-68750060D01*
X133965230Y-68840815D01*
X134083020Y-68926033D01*
X134161695Y-68992625D01*
X134181372Y-69027506D01*
X134161990Y-69042915D01*
X134078932Y-69102297D01*
X133964447Y-69179895D01*
X133909788Y-69216261D01*
X133836699Y-69257391D01*
X133782194Y-69259147D01*
X133730746Y-69211477D01*
X133666828Y-69104323D01*
X133574916Y-68927632D01*
X133568915Y-68916005D01*
X133486639Y-68747610D01*
X133448622Y-68643115D01*
X133451923Y-68589769D01*
X133493604Y-68574821D01*
X133500568Y-68575433D01*
G37*
G36*
X136845099Y-69520842D02*
G01*
X136418287Y-69855780D01*
X135932802Y-70250783D01*
X135507807Y-70606152D01*
X135386878Y-70707270D01*
X134778750Y-71226660D01*
X134570437Y-71405497D01*
X134328524Y-71609960D01*
X134097954Y-71804836D01*
X133672871Y-72153294D01*
X133282872Y-72459891D01*
X132915642Y-72733648D01*
X132660159Y-72912624D01*
X132558865Y-72983584D01*
X132200225Y-73218719D01*
X131827407Y-73448073D01*
X131621598Y-73567954D01*
X131428094Y-73680667D01*
X131174770Y-73822008D01*
X130556588Y-74139264D01*
X129982704Y-74390558D01*
X129444006Y-74579246D01*
X128931381Y-74708680D01*
X128435716Y-74782218D01*
X127842558Y-74816043D01*
X127114677Y-74807054D01*
X126332996Y-74749436D01*
X125508799Y-74644368D01*
X124653369Y-74493026D01*
X123777990Y-74296585D01*
X123685986Y-74273533D01*
X123386945Y-74195662D01*
X123086367Y-74113457D01*
X122797016Y-74030792D01*
X122531654Y-73951542D01*
X122303044Y-73879584D01*
X122123949Y-73818793D01*
X122007133Y-73773042D01*
X121965358Y-73746209D01*
X121997099Y-73723301D01*
X122099593Y-73668775D01*
X122260102Y-73589938D01*
X122465438Y-73493249D01*
X122702411Y-73385169D01*
X122912845Y-73289871D01*
X123129164Y-73190195D01*
X123304859Y-73107347D01*
X123425833Y-73047988D01*
X123477990Y-73018776D01*
X123478355Y-73018381D01*
X123454835Y-72978886D01*
X123370392Y-72893229D01*
X123235307Y-72770744D01*
X123137739Y-72687338D01*
X124636367Y-72687338D01*
X124655032Y-72844721D01*
X124760298Y-73018057D01*
X124782172Y-73044280D01*
X124841775Y-73127392D01*
X124847480Y-73182406D01*
X124805655Y-73240555D01*
X124803069Y-73243500D01*
X124750969Y-73359975D01*
X124732143Y-73535826D01*
X124733936Y-73585087D01*
X124786714Y-73777248D01*
X124910256Y-73913368D01*
X125101315Y-73989459D01*
X125260910Y-74011955D01*
X125459634Y-74012911D01*
X125623333Y-73983590D01*
X125734120Y-73927726D01*
X125774108Y-73849050D01*
X125769735Y-73784849D01*
X125754540Y-73645951D01*
X125731176Y-73461795D01*
X125702450Y-73251702D01*
X125671165Y-73034992D01*
X125640128Y-72830986D01*
X125612144Y-72659004D01*
X125602515Y-72606506D01*
X125997196Y-72606506D01*
X126023763Y-72843875D01*
X126092713Y-73143221D01*
X126158416Y-73357455D01*
X126260178Y-73596907D01*
X126377787Y-73768621D01*
X126474455Y-73849050D01*
X126518998Y-73886110D01*
X126593390Y-73929582D01*
X126685563Y-73964004D01*
X126774648Y-73952364D01*
X126901853Y-73895696D01*
X126925114Y-73883835D01*
X126998616Y-73831897D01*
X127564275Y-73831897D01*
X127583675Y-73848570D01*
X127678485Y-73871918D01*
X127818936Y-73873096D01*
X127975179Y-73850735D01*
X128182910Y-73802255D01*
X128416182Y-73741403D01*
X128578132Y-73690230D01*
X128659684Y-73651379D01*
X128675857Y-73631222D01*
X128684495Y-73567954D01*
X128663229Y-73456208D01*
X128609689Y-73278305D01*
X128581707Y-73191343D01*
X128512288Y-72971551D01*
X128435079Y-72723134D01*
X128362206Y-72484959D01*
X128328933Y-72379360D01*
X128235632Y-72129226D01*
X128151700Y-71967946D01*
X128662808Y-71967946D01*
X128668611Y-71987999D01*
X128713361Y-72056678D01*
X128783265Y-72045488D01*
X128886294Y-71953928D01*
X128911602Y-71928161D01*
X129032795Y-71852891D01*
X129159835Y-71861896D01*
X129306476Y-71955218D01*
X129378680Y-72029515D01*
X129497157Y-72227188D01*
X129576101Y-72470422D01*
X129604796Y-72731342D01*
X129597425Y-72858294D01*
X129545438Y-73022485D01*
X129434634Y-73128143D01*
X129254433Y-73189088D01*
X129173260Y-73208734D01*
X129073783Y-73259731D01*
X129059985Y-73330058D01*
X129128951Y-73425200D01*
X129234141Y-73492414D01*
X129405729Y-73511474D01*
X129608036Y-73455135D01*
X129796328Y-73328191D01*
X129916714Y-73145255D01*
X129965265Y-72912624D01*
X129939733Y-72635857D01*
X129891294Y-72447576D01*
X129777194Y-72151249D01*
X129631958Y-71900312D01*
X129463933Y-71703706D01*
X129281466Y-71570371D01*
X129092904Y-71509247D01*
X128906594Y-71529276D01*
X128836632Y-71567336D01*
X128731654Y-71682458D01*
X128667019Y-71828040D01*
X128662808Y-71967946D01*
X128151700Y-71967946D01*
X128146611Y-71958168D01*
X128064078Y-71869847D01*
X127990239Y-71867923D01*
X127964839Y-71909876D01*
X127954922Y-72029053D01*
X127971634Y-72203693D01*
X128012216Y-72416606D01*
X128073911Y-72650603D01*
X128153961Y-72888495D01*
X128197349Y-73006479D01*
X128257852Y-73182867D01*
X128268276Y-73217197D01*
X128299470Y-73319936D01*
X128315034Y-73395140D01*
X128310862Y-73421231D01*
X128246376Y-73491770D01*
X128100396Y-73553252D01*
X127868374Y-73607842D01*
X127773193Y-73631262D01*
X127639808Y-73689950D01*
X127564913Y-73760701D01*
X127564275Y-73831897D01*
X126998616Y-73831897D01*
X127072503Y-73779687D01*
X127169743Y-73642261D01*
X127220597Y-73458962D01*
X127228832Y-73217197D01*
X127198211Y-72904374D01*
X127168037Y-72703406D01*
X127115574Y-72433847D01*
X127060094Y-72250155D01*
X127000176Y-72149287D01*
X126934396Y-72128198D01*
X126861331Y-72183844D01*
X126845043Y-72206390D01*
X126830082Y-72245736D01*
X126825477Y-72306290D01*
X126832390Y-72401664D01*
X126851984Y-72545467D01*
X126885423Y-72751311D01*
X126933868Y-73032805D01*
X126942451Y-73082290D01*
X126973377Y-73269885D01*
X126987655Y-73392333D01*
X126985092Y-73469529D01*
X126965494Y-73521369D01*
X126928669Y-73567748D01*
X126851952Y-73624025D01*
X126753039Y-73645478D01*
X126745304Y-73643921D01*
X126662469Y-73583110D01*
X126572449Y-73451170D01*
X126483250Y-73264586D01*
X126402873Y-73039840D01*
X126339322Y-72793412D01*
X126333155Y-72764421D01*
X126270375Y-72530650D01*
X126202809Y-72383916D01*
X126131243Y-72325433D01*
X126056465Y-72356417D01*
X126013306Y-72437488D01*
X125997196Y-72606506D01*
X125602515Y-72606506D01*
X125590017Y-72538368D01*
X125576553Y-72488397D01*
X125542383Y-72469131D01*
X125431464Y-72439622D01*
X125282648Y-72417847D01*
X125129176Y-72408090D01*
X125004286Y-72414636D01*
X124843272Y-72458932D01*
X124700411Y-72555533D01*
X124636367Y-72687338D01*
X123137739Y-72687338D01*
X123059859Y-72620762D01*
X122854330Y-72452616D01*
X122852317Y-72451002D01*
X122644157Y-72281938D01*
X122462996Y-72130764D01*
X122319898Y-72007046D01*
X122225926Y-71920345D01*
X122192143Y-71880224D01*
X122226689Y-71860871D01*
X122316875Y-71873689D01*
X122356385Y-71879839D01*
X122484949Y-71888788D01*
X122680970Y-71896197D01*
X122930088Y-71901692D01*
X123217944Y-71904895D01*
X123530179Y-71905432D01*
X123555081Y-71905355D01*
X123945227Y-71902331D01*
X124265867Y-71895307D01*
X124537021Y-71883101D01*
X124778707Y-71864529D01*
X125010944Y-71838408D01*
X125253750Y-71803554D01*
X126122432Y-71637359D01*
X127007686Y-71394568D01*
X127836204Y-71085110D01*
X128471190Y-70775850D01*
X130372375Y-70775850D01*
X130383404Y-70870132D01*
X130474097Y-70976254D01*
X130635641Y-71086627D01*
X130859224Y-71193661D01*
X130909025Y-71214153D01*
X131047215Y-71275632D01*
X131121238Y-71323438D01*
X131147621Y-71371578D01*
X131142892Y-71434059D01*
X131135036Y-71539610D01*
X131144991Y-71715563D01*
X131171616Y-71917132D01*
X131210027Y-72115246D01*
X131255337Y-72280832D01*
X131302663Y-72384821D01*
X131327401Y-72415725D01*
X131439738Y-72499399D01*
X131550157Y-72501923D01*
X131643127Y-72421618D01*
X131643665Y-72420785D01*
X131672025Y-72365595D01*
X131683291Y-72300182D01*
X131675999Y-72205162D01*
X131648685Y-72061148D01*
X131599887Y-71848757D01*
X131566122Y-71698576D01*
X131532298Y-71524419D01*
X131514121Y-71397634D01*
X131514963Y-71338489D01*
X131523125Y-71327185D01*
X131600746Y-71296684D01*
X131709883Y-71334872D01*
X131833390Y-71436475D01*
X131984027Y-71569650D01*
X132161498Y-71676666D01*
X132332053Y-71734852D01*
X132477503Y-71738250D01*
X132579661Y-71680903D01*
X132594264Y-71659894D01*
X132598005Y-71609960D01*
X132550322Y-71543803D01*
X132440302Y-71442778D01*
X132217655Y-71247997D01*
X132013443Y-71058380D01*
X131853933Y-70892371D01*
X131724337Y-70733136D01*
X131609868Y-70563847D01*
X131495738Y-70367671D01*
X131392966Y-70188950D01*
X131267953Y-70001594D01*
X131166159Y-69894644D01*
X131083017Y-69865231D01*
X131013956Y-69910483D01*
X130954409Y-70027530D01*
X130939195Y-70098370D01*
X130959402Y-70261468D01*
X131044338Y-70471030D01*
X131196131Y-70733275D01*
X131231809Y-70789889D01*
X131296582Y-70903689D01*
X131311021Y-70956710D01*
X131278279Y-70957558D01*
X131166648Y-70914381D01*
X130946562Y-70837848D01*
X130735770Y-70773784D01*
X130571283Y-70733895D01*
X130496762Y-70722652D01*
X130412328Y-70729026D01*
X130372777Y-70774784D01*
X130372375Y-70775850D01*
X128471190Y-70775850D01*
X128612453Y-70707050D01*
X129340901Y-70258455D01*
X130026014Y-69737390D01*
X130157429Y-69620807D01*
X130284270Y-69499341D01*
X131581072Y-69499341D01*
X131581675Y-69520471D01*
X131613644Y-69656323D01*
X131681447Y-69758893D01*
X131767270Y-69799464D01*
X131778934Y-69795698D01*
X131835858Y-69740604D01*
X131904582Y-69640714D01*
X131928204Y-69603230D01*
X132025977Y-69505660D01*
X132143006Y-69488222D01*
X132297699Y-69546505D01*
X132433489Y-69641967D01*
X132594243Y-69790927D01*
X132755101Y-69967024D01*
X132892740Y-70144699D01*
X132983836Y-70298392D01*
X132991868Y-70316451D01*
X133063777Y-70530787D01*
X133065397Y-70697404D01*
X132994169Y-70828252D01*
X132847535Y-70935285D01*
X132839438Y-70939886D01*
X132770947Y-71023187D01*
X132773856Y-71123302D01*
X132848090Y-71203939D01*
X132909974Y-71229238D01*
X133027940Y-71250892D01*
X133065251Y-71245484D01*
X133183754Y-71185565D01*
X133309388Y-71078675D01*
X133416641Y-70949073D01*
X133480002Y-70821020D01*
X133500110Y-70606152D01*
X133453465Y-70352058D01*
X133347525Y-70084532D01*
X133192754Y-69818917D01*
X132999611Y-69570555D01*
X132778559Y-69354791D01*
X132540059Y-69186967D01*
X132294574Y-69082427D01*
X132089259Y-69060148D01*
X131894880Y-69101105D01*
X131732966Y-69195215D01*
X131622151Y-69331591D01*
X131581072Y-69499341D01*
X130284270Y-69499341D01*
X130359747Y-69427063D01*
X130585829Y-69198651D01*
X130816521Y-68955011D01*
X131032670Y-68715585D01*
X131208844Y-68517179D01*
X131464304Y-68246737D01*
X133050483Y-68246737D01*
X133055311Y-68424700D01*
X133120474Y-68664649D01*
X133191801Y-68841708D01*
X133309627Y-69082136D01*
X133452766Y-69338218D01*
X133610587Y-69593653D01*
X133772457Y-69832142D01*
X133927744Y-70037384D01*
X134065815Y-70193078D01*
X134176038Y-70282924D01*
X134268567Y-70322542D01*
X134412482Y-70337679D01*
X134520215Y-70289321D01*
X134547979Y-70259035D01*
X134566881Y-70214308D01*
X134548736Y-70156950D01*
X134485851Y-70068528D01*
X134370536Y-69930610D01*
X134366652Y-69926055D01*
X134265638Y-69803554D01*
X134193786Y-69708950D01*
X134166429Y-69662391D01*
X134183115Y-69641926D01*
X134260024Y-69586810D01*
X134378310Y-69516771D01*
X134590191Y-69400252D01*
X134757697Y-69511102D01*
X134794401Y-69533783D01*
X134934784Y-69600056D01*
X135056084Y-69631333D01*
X135118011Y-69632705D01*
X135174456Y-69605573D01*
X135186965Y-69520004D01*
X135183631Y-69490713D01*
X135160436Y-69438491D01*
X135107630Y-69372981D01*
X135016491Y-69286130D01*
X134878300Y-69169880D01*
X134684337Y-69016178D01*
X134425880Y-68816969D01*
X134236822Y-68673005D01*
X133952542Y-68460660D01*
X133725723Y-68298508D01*
X133548331Y-68181786D01*
X133412326Y-68105729D01*
X133309672Y-68065574D01*
X133232333Y-68056557D01*
X133172270Y-68073913D01*
X133106536Y-68124519D01*
X133050483Y-68246737D01*
X131464304Y-68246737D01*
X131875064Y-67811887D01*
X132274692Y-67433027D01*
X134181682Y-67433027D01*
X134241341Y-67563163D01*
X134363578Y-67742063D01*
X134450950Y-67856521D01*
X134614988Y-68059671D01*
X134797109Y-68274308D01*
X134984849Y-68486716D01*
X135165744Y-68683179D01*
X135327331Y-68849981D01*
X135457145Y-68973404D01*
X135542724Y-69039732D01*
X135659303Y-69095032D01*
X135786204Y-69114198D01*
X135880929Y-69064678D01*
X135907779Y-69032547D01*
X135929744Y-68962005D01*
X135906940Y-68868724D01*
X135834232Y-68737656D01*
X135706480Y-68553756D01*
X135477603Y-68239811D01*
X135724770Y-67992644D01*
X135971937Y-67745477D01*
X136242310Y-67957894D01*
X136427150Y-68087417D01*
X136624933Y-68181595D01*
X136784564Y-68201960D01*
X136900937Y-68147048D01*
X136929158Y-68111993D01*
X136947943Y-68042636D01*
X136941908Y-68019700D01*
X139375207Y-68019700D01*
X139398781Y-68042636D01*
X139775729Y-68409388D01*
X139804983Y-68437800D01*
X139971679Y-68595997D01*
X140093098Y-68700776D01*
X140184438Y-68762711D01*
X140260896Y-68792375D01*
X140337671Y-68800342D01*
X140386997Y-68802172D01*
X140546992Y-68840314D01*
X140568310Y-68862053D01*
X140631656Y-68926652D01*
X140639410Y-69059827D01*
X140636339Y-69086107D01*
X140631916Y-69123961D01*
X140649420Y-69199230D01*
X140710041Y-69285531D01*
X140826705Y-69406812D01*
X140886636Y-69465437D01*
X140986562Y-69553089D01*
X141073941Y-69598455D01*
X141183192Y-69615461D01*
X141348737Y-69618035D01*
X141507947Y-69623889D01*
X141654812Y-69640835D01*
X141744054Y-69664988D01*
X141765236Y-69678530D01*
X141823469Y-69772379D01*
X141823430Y-69772992D01*
X141815354Y-69900041D01*
X141814017Y-69902535D01*
X141741072Y-70038626D01*
X141738305Y-70042163D01*
X141676097Y-70133978D01*
X141650358Y-70195902D01*
X141663190Y-70221590D01*
X141729652Y-70294110D01*
X141833782Y-70385257D01*
X141895214Y-70433438D01*
X141989972Y-70493454D01*
X142066614Y-70506837D01*
X142158050Y-70483562D01*
X142281152Y-70455542D01*
X142459336Y-70438689D01*
X142647926Y-70437322D01*
X142813677Y-70451533D01*
X142923339Y-70481417D01*
X142957977Y-70505321D01*
X142978536Y-70547857D01*
X143005882Y-70604433D01*
X142988763Y-70689482D01*
X142982829Y-70718964D01*
X142977669Y-70744597D01*
X142873925Y-70920584D01*
X142736777Y-71107076D01*
X142886999Y-71156653D01*
X142896464Y-71159692D01*
X143022738Y-71193777D01*
X143199287Y-71234577D01*
X143390993Y-71273919D01*
X143601751Y-71306041D01*
X143861228Y-71331304D01*
X144092294Y-71340611D01*
X144213197Y-71337267D01*
X144499258Y-71296041D01*
X144708098Y-71207603D01*
X144840092Y-71071624D01*
X144895613Y-70887776D01*
X144875038Y-70655732D01*
X144874581Y-70653740D01*
X144765140Y-70356957D01*
X144572927Y-70044716D01*
X144303524Y-69721926D01*
X143962511Y-69393498D01*
X143555470Y-69064338D01*
X143087980Y-68739357D01*
X142565623Y-68423463D01*
X141993979Y-68121565D01*
X141862479Y-68057242D01*
X141522966Y-67898414D01*
X141236418Y-67778058D01*
X140984651Y-67689545D01*
X140749481Y-67626244D01*
X140512725Y-67581527D01*
X140480138Y-67576682D01*
X140181452Y-67556250D01*
X139935982Y-67593374D01*
X139724122Y-67693644D01*
X139526264Y-67862645D01*
X139375207Y-68019700D01*
X136941908Y-68019700D01*
X136924261Y-67952633D01*
X136852579Y-67831223D01*
X136727363Y-67667647D01*
X136543081Y-67451144D01*
X136441713Y-67333104D01*
X136264571Y-67118847D01*
X136096732Y-66907297D01*
X135964069Y-66730649D01*
X135841003Y-66566357D01*
X135716847Y-66427436D01*
X135615416Y-66355630D01*
X135525700Y-66343712D01*
X135436691Y-66384457D01*
X135399445Y-66413848D01*
X135360586Y-66471990D01*
X135347965Y-66563712D01*
X135354640Y-66717159D01*
X135356993Y-66746110D01*
X135402005Y-66974030D01*
X135499911Y-67170003D01*
X135626233Y-67360889D01*
X135431173Y-67559641D01*
X135338714Y-67650817D01*
X135252845Y-67728518D01*
X135209576Y-67758392D01*
X135204692Y-67756848D01*
X135146910Y-67717785D01*
X135043467Y-67636786D01*
X134912859Y-67528199D01*
X134897899Y-67515515D01*
X134748988Y-67395032D01*
X134611856Y-67293029D01*
X134514491Y-67230426D01*
X134442517Y-67196509D01*
X134364558Y-67189311D01*
X134276366Y-67234879D01*
X134240162Y-67261250D01*
X134182117Y-67337206D01*
X134181682Y-67433027D01*
X132274692Y-67433027D01*
X132527330Y-67193518D01*
X133165181Y-66662379D01*
X133788157Y-66218777D01*
X134395795Y-65863020D01*
X134987636Y-65595414D01*
X135563218Y-65416266D01*
X136122080Y-65325884D01*
X136471355Y-65296755D01*
X137666124Y-66454467D01*
X137930854Y-66710500D01*
X138195697Y-66965642D01*
X138437465Y-67197548D01*
X138647768Y-67398213D01*
X138818217Y-67559635D01*
X138940422Y-67673808D01*
X139005994Y-67732731D01*
X139151094Y-67853282D01*
X139202782Y-67658427D01*
X139252388Y-67504543D01*
X139362705Y-67237207D01*
X139517787Y-66913038D01*
X139712913Y-66541759D01*
X139943363Y-66133094D01*
X139946624Y-66127482D01*
X140137432Y-65783992D01*
X140289641Y-65470401D01*
X140407266Y-65169566D01*
X140494324Y-64864343D01*
X140554831Y-64537587D01*
X140592802Y-64172157D01*
X140612255Y-63750908D01*
X140617205Y-63256696D01*
X140615679Y-62406250D01*
X140743613Y-62406250D01*
X140796112Y-62408024D01*
X140841021Y-62425371D01*
X140868352Y-62476980D01*
X140886664Y-62581546D01*
X140904513Y-62757767D01*
X140908991Y-62812361D01*
X140919279Y-63085993D01*
X140917184Y-63415113D01*
X140904009Y-63772216D01*
X140881052Y-64129794D01*
X140849613Y-64460339D01*
X140810993Y-64736345D01*
X140798417Y-64805975D01*
X140734270Y-65094911D01*
X140650267Y-65365317D01*
X140537403Y-65639691D01*
X140386675Y-65940532D01*
X140189078Y-66290340D01*
X140151651Y-66354326D01*
X140018654Y-66584728D01*
X139894751Y-66803637D01*
X139792382Y-66988905D01*
X139723988Y-67118382D01*
X139601344Y-67362835D01*
X139707369Y-67328059D01*
X139727901Y-67322555D01*
X139843484Y-67303722D01*
X140011994Y-67285813D01*
X140204616Y-67272071D01*
X140225794Y-67270965D01*
X140480916Y-67267687D01*
X140699620Y-67290065D01*
X140930330Y-67342818D01*
X141423033Y-67505998D01*
X141953196Y-67731731D01*
X142496525Y-68007064D01*
X143032729Y-68320143D01*
X143541518Y-68659116D01*
X144002604Y-69012128D01*
X144395697Y-69367328D01*
X144458507Y-69430778D01*
X144722278Y-69717532D01*
X144918106Y-69973344D01*
X145053940Y-70211661D01*
X145137730Y-70445928D01*
X145177424Y-70689590D01*
X145191142Y-70829670D01*
X145199624Y-70887776D01*
X145206880Y-70937484D01*
X145220270Y-70978750D01*
X145232472Y-70976277D01*
X145310571Y-70933249D01*
X145427710Y-70849391D01*
X145562866Y-70741293D01*
X145695016Y-70625549D01*
X145803138Y-70518747D01*
X146038081Y-70238177D01*
X146304104Y-69829288D01*
X146512005Y-69378808D01*
X146667548Y-68873597D01*
X146776500Y-68300518D01*
X146794741Y-68159539D01*
X146831929Y-67755186D01*
X146858298Y-67280592D01*
X146874033Y-66749834D01*
X146879320Y-66176990D01*
X146874345Y-65576134D01*
X146859292Y-64961345D01*
X146834346Y-64346698D01*
X146799695Y-63746269D01*
X146755521Y-63174136D01*
X146702012Y-62644375D01*
X146674548Y-62406250D01*
X146812242Y-62406250D01*
X146833103Y-62406192D01*
X146878445Y-62408708D01*
X146914436Y-62422903D01*
X146943130Y-62458622D01*
X146966577Y-62525709D01*
X146986830Y-62634010D01*
X147005941Y-62793369D01*
X147025962Y-63013632D01*
X147048944Y-63304644D01*
X147076940Y-63676250D01*
X147087961Y-63833384D01*
X147111034Y-64245117D01*
X147129481Y-64696784D01*
X147143223Y-65173885D01*
X147152180Y-65661922D01*
X147156269Y-66146396D01*
X147155413Y-66612808D01*
X147149529Y-67046659D01*
X147138539Y-67433450D01*
X147122362Y-67758682D01*
X147100917Y-68007857D01*
X147096237Y-68047388D01*
X147023558Y-68551596D01*
X146933859Y-68983019D01*
X146823244Y-69357527D01*
X146687818Y-69690994D01*
X146669027Y-69730647D01*
X146387649Y-70233698D01*
X146061452Y-70659406D01*
X145686988Y-71011049D01*
X145260810Y-71291905D01*
X144779467Y-71505252D01*
X144696561Y-71532435D01*
X144283705Y-71612432D01*
X143820771Y-71618298D01*
X143309655Y-71549975D01*
X143098157Y-71514242D01*
X142958864Y-71510830D01*
X142877378Y-71546063D01*
X142839153Y-71626231D01*
X142829643Y-71757627D01*
X142828683Y-71797402D01*
X142779423Y-72022590D01*
X142661590Y-72193442D01*
X142483530Y-72301540D01*
X142253592Y-72338468D01*
X142114634Y-72323751D01*
X141873837Y-72237306D01*
X141656548Y-72088175D01*
X141484914Y-71893332D01*
X141381081Y-71669752D01*
X141365866Y-71615203D01*
X141329947Y-71535337D01*
X141268582Y-71509262D01*
X141149458Y-71515449D01*
X140935395Y-71502986D01*
X140694247Y-71417901D01*
X140596464Y-71351944D01*
X141634436Y-71351944D01*
X141648333Y-71560872D01*
X141731764Y-71738554D01*
X141883903Y-71906495D01*
X142072864Y-72019078D01*
X142212054Y-72058947D01*
X142351721Y-72051904D01*
X142466786Y-71976607D01*
X142477497Y-71965579D01*
X142548511Y-71846972D01*
X142530010Y-71733556D01*
X142421429Y-71620921D01*
X142319698Y-71511303D01*
X142285467Y-71370501D01*
X142325798Y-71195232D01*
X142440939Y-70977259D01*
X142515126Y-70855807D01*
X142568772Y-70759959D01*
X142584977Y-70718964D01*
X142549813Y-70721456D01*
X142448583Y-70742129D01*
X142306432Y-70776966D01*
X142071194Y-70859510D01*
X141852121Y-70993814D01*
X141704450Y-71160441D01*
X141634436Y-71351944D01*
X140596464Y-71351944D01*
X140477363Y-71271608D01*
X140306229Y-71079082D01*
X140202327Y-70855298D01*
X140186732Y-70799358D01*
X140150666Y-70718989D01*
X140089274Y-70692810D01*
X139970172Y-70699021D01*
X139758524Y-70689172D01*
X139516832Y-70605678D01*
X139415507Y-70535515D01*
X140455151Y-70535515D01*
X140469047Y-70744443D01*
X140552478Y-70922126D01*
X140704617Y-71090067D01*
X140893578Y-71202650D01*
X141032769Y-71242519D01*
X141172435Y-71235475D01*
X141287500Y-71160178D01*
X141298211Y-71149151D01*
X141369226Y-71030543D01*
X141350724Y-70917128D01*
X141242143Y-70804493D01*
X141140413Y-70694874D01*
X141110907Y-70573506D01*
X141514631Y-70573506D01*
X141553858Y-70627232D01*
X141567998Y-70644792D01*
X141628294Y-70703058D01*
X141650358Y-70689482D01*
X141633800Y-70666059D01*
X141570983Y-70610107D01*
X141538119Y-70584769D01*
X141514631Y-70573506D01*
X141110907Y-70573506D01*
X141106182Y-70554072D01*
X141107612Y-70547857D01*
X141423572Y-70547857D01*
X141446250Y-70570535D01*
X141468929Y-70547857D01*
X141446250Y-70525178D01*
X141423572Y-70547857D01*
X141107612Y-70547857D01*
X141146512Y-70378803D01*
X141261653Y-70160830D01*
X141335840Y-70039378D01*
X141389486Y-69943530D01*
X141405691Y-69902535D01*
X141370527Y-69905027D01*
X141269297Y-69925701D01*
X141127147Y-69960537D01*
X140891908Y-70043082D01*
X140672835Y-70177385D01*
X140525165Y-70344013D01*
X140455151Y-70535515D01*
X139415507Y-70535515D01*
X139302578Y-70457317D01*
X139130772Y-70258185D01*
X139016423Y-70022377D01*
X138974539Y-69763989D01*
X138974754Y-69754633D01*
X138981054Y-69719086D01*
X139275865Y-69719086D01*
X139289761Y-69928015D01*
X139373193Y-70105697D01*
X139525331Y-70273638D01*
X139714293Y-70386221D01*
X139853483Y-70426090D01*
X139993149Y-70419046D01*
X140108215Y-70343750D01*
X140118925Y-70332722D01*
X140189940Y-70214115D01*
X140171438Y-70100699D01*
X140062858Y-69988064D01*
X139961127Y-69878446D01*
X139926896Y-69737644D01*
X139945170Y-69658228D01*
X140270913Y-69658228D01*
X140273820Y-69726817D01*
X140343707Y-69799892D01*
X140373251Y-69824436D01*
X140446637Y-69875354D01*
X140506360Y-69875457D01*
X140596366Y-69829978D01*
X140698982Y-69772992D01*
X140540349Y-69619239D01*
X140484437Y-69567294D01*
X140403661Y-69502106D01*
X140364502Y-69485064D01*
X140340142Y-69523072D01*
X140293155Y-69608633D01*
X140270913Y-69658228D01*
X139945170Y-69658228D01*
X139967226Y-69562375D01*
X140082367Y-69344402D01*
X140156555Y-69222949D01*
X140210201Y-69127102D01*
X140226406Y-69086107D01*
X140191241Y-69088599D01*
X140090011Y-69109272D01*
X139947861Y-69144109D01*
X139712623Y-69226653D01*
X139493549Y-69360956D01*
X139345879Y-69527584D01*
X139275865Y-69719086D01*
X138981054Y-69719086D01*
X138995553Y-69637279D01*
X139040008Y-69503186D01*
X139077802Y-69392929D01*
X139076451Y-69298419D01*
X139031733Y-69175803D01*
X139008625Y-69110637D01*
X138969848Y-68904123D01*
X138954672Y-68637860D01*
X138954565Y-68625024D01*
X139212311Y-68625024D01*
X139225194Y-68769502D01*
X139236187Y-68833965D01*
X139268109Y-68964929D01*
X139314780Y-69021819D01*
X139395018Y-69016551D01*
X139527638Y-68961042D01*
X139740811Y-68862053D01*
X139498313Y-68622567D01*
X139438400Y-68563743D01*
X139337204Y-68469669D01*
X139277825Y-68429656D01*
X139245329Y-68435967D01*
X139224780Y-68480864D01*
X139219392Y-68503271D01*
X139212311Y-68625024D01*
X138954565Y-68625024D01*
X138951608Y-68270006D01*
X138828885Y-68312757D01*
X138711721Y-68359826D01*
X138497960Y-68461979D01*
X138244811Y-68596090D01*
X137972848Y-68750731D01*
X137702642Y-68914478D01*
X137454764Y-69075907D01*
X137215003Y-69244550D01*
X136846221Y-69520004D01*
X136845099Y-69520842D01*
G37*
%TD*%
D16*
%TO.P,SW3,1,1*%
%TO.N,GND*%
X176100000Y-126900000D03*
%TO.P,SW3,2,2*%
%TO.N,Net-(U1-GPIO2{slash}SCK)*%
X169750000Y-129440000D03*
%TD*%
D17*
%TO.P,J1,1,Pin_1*%
%TO.N,GND*%
X146720000Y-76180000D03*
D18*
%TO.P,J1,2,Pin_2*%
%TO.N,Net-(J1-Pin_2)*%
X146720000Y-73640000D03*
%TO.P,J1,3,Pin_3*%
%TO.N,Net-(J1-Pin_3)*%
X146720000Y-71100000D03*
%TO.P,J1,4,Pin_4*%
%TO.N,Net-(J1-Pin_4)*%
X146720000Y-68560000D03*
%TD*%
D16*
%TO.P,SW7,1,1*%
%TO.N,GND*%
X134460000Y-127330000D03*
%TO.P,SW7,2,2*%
%TO.N,Net-(U1-GPIO27{slash}ADC1{slash}A1)*%
X128110000Y-129870000D03*
%TD*%
D30*
%TO.P,U1,1,GPIO26/ADC0/A0*%
%TO.N,Net-(U1-GPIO26{slash}ADC0{slash}A0)*%
X123865000Y-64300000D03*
D19*
X124700000Y-64300000D03*
D30*
%TO.P,U1,2,GPIO27/ADC1/A1*%
%TO.N,Net-(U1-GPIO27{slash}ADC1{slash}A1)*%
X123865000Y-66840000D03*
D19*
X124700000Y-66840000D03*
D30*
%TO.P,U1,3,GPIO28/ADC2/A2*%
%TO.N,Net-(U1-GPIO28{slash}ADC2{slash}A2)*%
X123865000Y-69380000D03*
D19*
X124700000Y-69380000D03*
D30*
%TO.P,U1,4,GPIO29/ADC3/A3*%
%TO.N,Net-(U1-GPIO29{slash}ADC3{slash}A3)*%
X123865000Y-71920000D03*
D19*
X124700000Y-71920000D03*
D30*
%TO.P,U1,5,GPIO6/SDA*%
%TO.N,Net-(J1-Pin_4)*%
X123865000Y-74460000D03*
D19*
X124700000Y-74460000D03*
D30*
%TO.P,U1,6,GPIO7/SCL*%
%TO.N,Net-(J1-Pin_3)*%
X123865000Y-77000000D03*
D19*
X124700000Y-77000000D03*
D30*
%TO.P,U1,7,GPIO0/TX*%
%TO.N,Net-(U1-GPIO0{slash}TX)*%
X123865000Y-79540000D03*
D19*
X124700000Y-79540000D03*
%TO.P,U1,8,GPIO1/RX*%
%TO.N,Net-(U1-GPIO1{slash}RX)*%
X139940000Y-79540000D03*
D31*
X140775000Y-79540000D03*
D19*
%TO.P,U1,9,GPIO2/SCK*%
%TO.N,Net-(U1-GPIO2{slash}SCK)*%
X139940000Y-77000000D03*
D31*
X140775000Y-77000000D03*
D19*
%TO.P,U1,10,GPIO4/MISO*%
%TO.N,Net-(U1-GPIO4{slash}MISO)*%
X139940000Y-74460000D03*
D31*
X140775000Y-74460000D03*
D19*
%TO.P,U1,11,GPIO3/MOSI*%
%TO.N,Net-(U1-GPIO3{slash}MOSI)*%
X139940000Y-71920000D03*
D31*
X140775000Y-71920000D03*
D19*
%TO.P,U1,12,3V3*%
%TO.N,Net-(J1-Pin_2)*%
X139940000Y-69380000D03*
D31*
X140775000Y-69380000D03*
D19*
%TO.P,U1,13,GND*%
%TO.N,GND*%
X139940000Y-66840000D03*
D31*
X140775000Y-66840000D03*
D19*
%TO.P,U1,14,VBUS*%
%TO.N,unconnected-(U1-VBUS-Pad14)_1*%
X139940000Y-64300000D03*
D31*
%TO.N,unconnected-(U1-VBUS-Pad14)*%
X140775000Y-64300000D03*
%TD*%
D16*
%TO.P,SW8,1,1*%
%TO.N,GND*%
X134200000Y-107870000D03*
%TO.P,SW8,2,2*%
%TO.N,Net-(U1-GPIO1{slash}RX)*%
X127850000Y-110410000D03*
%TD*%
%TO.P,SW6,1,1*%
%TO.N,GND*%
X176140000Y-107250000D03*
%TO.P,SW6,2,2*%
%TO.N,Net-(U1-GPIO4{slash}MISO)*%
X169790000Y-109790000D03*
%TD*%
%TO.P,SW4,1,1*%
%TO.N,GND*%
X134910000Y-87410000D03*
%TO.P,SW4,2,2*%
%TO.N,Net-(U1-GPIO26{slash}ADC0{slash}A0)*%
X128560000Y-89950000D03*
%TD*%
%TO.P,SW2,1,1*%
%TO.N,GND*%
X155390000Y-87200000D03*
%TO.P,SW2,2,2*%
%TO.N,Net-(U1-GPIO29{slash}ADC3{slash}A3)*%
X149040000Y-89740000D03*
%TD*%
%TO.P,SW5,1,1*%
%TO.N,GND*%
X155560000Y-126680000D03*
%TO.P,SW5,2,2*%
%TO.N,Net-(U1-GPIO0{slash}TX)*%
X149210000Y-129220000D03*
%TD*%
%TO.P,SW9,1,1*%
%TO.N,GND*%
X155460000Y-106680000D03*
%TO.P,SW9,2,2*%
%TO.N,Net-(U1-GPIO3{slash}MOSI)*%
X149110000Y-109220000D03*
%TD*%
%TO.P,SW1,1,1*%
%TO.N,GND*%
X176140000Y-87260000D03*
%TO.P,SW1,2,2*%
%TO.N,Net-(U1-GPIO28{slash}ADC2{slash}A2)*%
X169790000Y-89800000D03*
%TD*%
D20*
%TO.N,Net-(U1-GPIO28{slash}ADC2{slash}A2)*%
X125449400Y-87777800D03*
%TO.N,Net-(U1-GPIO29{slash}ADC3{slash}A3)*%
X124308800Y-88951700D03*
%TO.N,Net-(U1-GPIO2{slash}SCK)*%
X168358100Y-79872800D03*
%TO.N,Net-(U1-GPIO0{slash}TX)*%
X141840700Y-83730300D03*
%TO.N,Net-(U1-GPIO4{slash}MISO)*%
X143479500Y-107133400D03*
%TD*%
D21*
%TO.N,Net-(J1-Pin_2)*%
X140775000Y-69380000D02*
X139940000Y-69380000D01*
%TO.N,GND*%
X134910000Y-71870000D02*
X134910000Y-87410000D01*
X176140000Y-87260000D02*
X176196100Y-87316100D01*
X139940000Y-66840000D02*
X140316200Y-66840000D01*
X134200000Y-107870000D02*
X134460000Y-108130000D01*
X140357500Y-66840000D02*
X140775000Y-66840000D01*
X144973300Y-71038300D02*
X144973300Y-73919600D01*
X146125000Y-75935000D02*
X146125000Y-74783300D01*
X145837000Y-74783300D02*
X146125000Y-74783300D01*
X176196100Y-126803900D02*
X176100000Y-126900000D01*
X144973300Y-73919600D02*
X145837000Y-74783300D01*
X176196100Y-107193900D02*
X176140000Y-107250000D01*
X176196100Y-107306100D02*
X176196100Y-126803900D01*
X176140000Y-107250000D02*
X176196100Y-107306100D01*
X176196100Y-87316100D02*
X176196100Y-107193900D01*
X134460000Y-108130000D02*
X134460000Y-127330000D01*
X140775000Y-66840000D02*
X144973300Y-71038300D01*
X140316200Y-66840000D02*
X140357500Y-66840000D01*
X139940000Y-66840000D02*
X134910000Y-71870000D01*
%TO.N,Net-(J1-Pin_4)*%
X124700000Y-74460000D02*
X123865000Y-74460000D01*
%TO.N,Net-(J1-Pin_3)*%
X123865000Y-77000000D02*
X124700000Y-77000000D01*
%TO.N,Net-(U1-GPIO28{slash}ADC2{slash}A2)*%
X124700000Y-70176200D02*
X124700000Y-69380000D01*
X126182900Y-73141100D02*
X125781200Y-72739400D01*
X123865000Y-69380000D02*
X124700000Y-69380000D01*
X125449400Y-87777800D02*
X126182900Y-87044300D01*
X126182900Y-87044300D02*
X126182900Y-73141100D01*
X125781200Y-71257400D02*
X124700000Y-70176200D01*
X125781200Y-72739400D02*
X125781200Y-71257400D01*
%TO.N,Net-(U1-GPIO29{slash}ADC3{slash}A3)*%
X125781200Y-80202000D02*
X124308800Y-81674400D01*
X124308800Y-88381200D02*
X124308800Y-88951700D01*
X124308800Y-81674400D02*
X124308800Y-88951700D01*
X124308800Y-88951700D02*
X124308800Y-88381200D01*
X124700000Y-71920000D02*
X124700000Y-72445200D01*
X125781200Y-73526400D02*
X125781200Y-80202000D01*
X123865000Y-71920000D02*
X124700000Y-71920000D01*
X124700000Y-72445200D02*
X125781200Y-73526400D01*
%TO.N,Net-(U1-GPIO2{slash}SCK)*%
X167092200Y-81138700D02*
X168358100Y-79872800D01*
X139940000Y-77000000D02*
X140775000Y-77000000D01*
X167092200Y-126782200D02*
X167092200Y-81138700D01*
X169750000Y-129440000D02*
X167092200Y-126782200D01*
%TO.N,Net-(U1-GPIO26{slash}ADC0{slash}A0)*%
X124282500Y-64300000D02*
X123865000Y-64300000D01*
X128560000Y-68160000D02*
X128560000Y-89950000D01*
X124700000Y-64300000D02*
X124323800Y-64300000D01*
X124700000Y-64300000D02*
X128560000Y-68160000D01*
X124323800Y-64300000D02*
X124282500Y-64300000D01*
%TO.N,Net-(U1-GPIO0{slash}TX)*%
X141840700Y-121850700D02*
X141840700Y-83730300D01*
X149210000Y-129220000D02*
X141840700Y-121850700D01*
X123865000Y-79540000D02*
X124700000Y-79540000D01*
%TO.N,Net-(U1-GPIO4{slash}MISO)*%
X140775000Y-74671500D02*
X140775000Y-74460000D01*
X143479500Y-77376000D02*
X140775000Y-74671500D01*
X139940000Y-74460000D02*
X140775000Y-74460000D01*
X143479500Y-107133400D02*
X143479500Y-77376000D01*
%TO.N,Net-(U1-GPIO27{slash}ADC1{slash}A1)*%
X125947500Y-70655500D02*
X125781200Y-70489200D01*
X126349200Y-72739300D02*
X126182900Y-72573000D01*
X128110000Y-129870000D02*
X125176200Y-126936200D01*
X125176200Y-89135800D02*
X126584600Y-87727400D01*
X126182900Y-70890900D02*
X125947500Y-70655500D01*
X125176200Y-126936200D02*
X125176200Y-89135800D01*
X125947500Y-70655500D02*
X125781200Y-70489200D01*
X123865000Y-66840000D02*
X124700000Y-66840000D01*
X125781200Y-67921200D02*
X124700000Y-66840000D01*
X126349200Y-72739300D02*
X126182900Y-72573000D01*
X125781200Y-70489200D02*
X125781200Y-67921200D01*
X126584600Y-72974700D02*
X126349200Y-72739300D01*
X126182900Y-72573000D02*
X126182900Y-70890900D01*
X126584600Y-87727400D02*
X126584600Y-72974700D01*
%TO.N,Net-(U1-GPIO1{slash}RX)*%
X139940000Y-98320000D02*
X139940000Y-79540000D01*
X140775000Y-79540000D02*
X139940000Y-79540000D01*
X127850000Y-110410000D02*
X139940000Y-98320000D01*
%TO.N,Net-(U1-GPIO3{slash}MOSI)*%
X144022600Y-77150900D02*
X142607200Y-75735500D01*
X142607200Y-75735500D02*
X142440900Y-75569200D01*
X144022600Y-104132600D02*
X144022600Y-77150900D01*
X142440900Y-75569200D02*
X142440900Y-73585900D01*
X149110000Y-109220000D02*
X144022600Y-104132600D01*
X142440900Y-73585900D02*
X140775000Y-71920000D01*
X139940000Y-71920000D02*
X140775000Y-71920000D01*
X142607200Y-75735500D02*
X142440900Y-75569200D01*
%TD*%
D22*
%TO.C,SW3*%
X168480000Y-131980000D03*
D23*
X173560000Y-131980000D03*
D22*
X178640000Y-131980000D03*
D24*
X176100000Y-126900000D03*
X169750000Y-129440000D03*
%TD*%
D25*
%TO.C,J1*%
X146720000Y-76180000D03*
D26*
X146720000Y-73640000D03*
X146720000Y-71100000D03*
X146720000Y-68560000D03*
%TD*%
D22*
%TO.C,SW7*%
X126840000Y-132410000D03*
D23*
X131920000Y-132410000D03*
D22*
X137000000Y-132410000D03*
D24*
X134460000Y-127330000D03*
X128110000Y-129870000D03*
%TD*%
D32*
%TO.C,U1*%
X123865000Y-64300000D03*
D27*
X124700000Y-64300000D03*
D32*
X123865000Y-66840000D03*
D27*
X124700000Y-66840000D03*
D32*
X123865000Y-69380000D03*
D27*
X124700000Y-69380000D03*
D32*
X123865000Y-71920000D03*
D27*
X124700000Y-71920000D03*
D32*
X123865000Y-74460000D03*
D27*
X124700000Y-74460000D03*
D32*
X123865000Y-77000000D03*
D27*
X124700000Y-77000000D03*
D32*
X123865000Y-79540000D03*
D27*
X124700000Y-79540000D03*
X139940000Y-79540000D03*
D33*
X140775000Y-79540000D03*
D27*
X139940000Y-77000000D03*
D33*
X140775000Y-77000000D03*
D27*
X139940000Y-74460000D03*
D33*
X140775000Y-74460000D03*
D27*
X139940000Y-71920000D03*
D33*
X140775000Y-71920000D03*
D27*
X139940000Y-69380000D03*
D33*
X140775000Y-69380000D03*
D27*
X139940000Y-66840000D03*
D33*
X140775000Y-66840000D03*
D27*
X139940000Y-64300000D03*
D33*
X140775000Y-64300000D03*
%TD*%
D22*
%TO.C,SW8*%
X126580000Y-112950000D03*
D23*
X131660000Y-112950000D03*
D22*
X136740000Y-112950000D03*
D24*
X134200000Y-107870000D03*
X127850000Y-110410000D03*
%TD*%
D22*
%TO.C,SW6*%
X168520000Y-112330000D03*
D23*
X173600000Y-112330000D03*
D22*
X178680000Y-112330000D03*
D24*
X176140000Y-107250000D03*
X169790000Y-109790000D03*
%TD*%
D22*
%TO.C,SW4*%
X127290000Y-92490000D03*
D23*
X132370000Y-92490000D03*
D22*
X137450000Y-92490000D03*
D24*
X134910000Y-87410000D03*
X128560000Y-89950000D03*
%TD*%
D22*
%TO.C,SW2*%
X147770000Y-92280000D03*
D23*
X152850000Y-92280000D03*
D22*
X157930000Y-92280000D03*
D24*
X155390000Y-87200000D03*
X149040000Y-89740000D03*
%TD*%
D22*
%TO.C,SW5*%
X147940000Y-131760000D03*
D23*
X153020000Y-131760000D03*
D22*
X158100000Y-131760000D03*
D24*
X155560000Y-126680000D03*
X149210000Y-129220000D03*
%TD*%
D22*
%TO.C,SW9*%
X147840000Y-111760000D03*
D23*
X152920000Y-111760000D03*
D22*
X158000000Y-111760000D03*
D24*
X155460000Y-106680000D03*
X149110000Y-109220000D03*
%TD*%
D22*
%TO.C,SW1*%
X168520000Y-92340000D03*
D23*
X173600000Y-92340000D03*
D22*
X178680000Y-92340000D03*
D24*
X176140000Y-87260000D03*
X169790000Y-89800000D03*
%TD*%
D34*
%TO.C,SW3*%
X166960000Y-125380000D02*
X180160000Y-125380000D01*
X166960000Y-138580000D02*
X166960000Y-125380000D01*
X180160000Y-125380000D02*
X180160000Y-138580000D01*
X180160000Y-138580000D02*
X166960000Y-138580000D01*
D13*
%TO.C,J1*%
X145220000Y-66370000D02*
X145220000Y-78370000D01*
X145220000Y-78370000D02*
X183220000Y-78370000D01*
X183220000Y-66370000D02*
X145220000Y-66370000D01*
X183220000Y-78370000D02*
X183220000Y-66370000D01*
D34*
%TO.C,SW7*%
X125320000Y-125810000D02*
X138520000Y-125810000D01*
X125320000Y-139010000D02*
X125320000Y-125810000D01*
X138520000Y-125810000D02*
X138520000Y-139010000D01*
X138520000Y-139010000D02*
X125320000Y-139010000D01*
%TO.C,U1*%
X123420000Y-61370000D02*
X141220000Y-61370000D01*
X141220000Y-82345000D01*
X123420000Y-82345000D01*
X123420000Y-61370000D01*
%TO.C,SW8*%
X125060000Y-106350000D02*
X138260000Y-106350000D01*
X125060000Y-119550000D02*
X125060000Y-106350000D01*
X138260000Y-106350000D02*
X138260000Y-119550000D01*
X138260000Y-119550000D02*
X125060000Y-119550000D01*
%TO.C,SW6*%
X167000000Y-105730000D02*
X180200000Y-105730000D01*
X167000000Y-118930000D02*
X167000000Y-105730000D01*
X180200000Y-105730000D02*
X180200000Y-118930000D01*
X180200000Y-118930000D02*
X167000000Y-118930000D01*
%TO.C,SW4*%
X125770000Y-85890000D02*
X138970000Y-85890000D01*
X125770000Y-99090000D02*
X125770000Y-85890000D01*
X138970000Y-85890000D02*
X138970000Y-99090000D01*
X138970000Y-99090000D02*
X125770000Y-99090000D01*
%TO.C,SW2*%
X146250000Y-85680000D02*
X159450000Y-85680000D01*
X146250000Y-98880000D02*
X146250000Y-85680000D01*
X159450000Y-85680000D02*
X159450000Y-98880000D01*
X159450000Y-98880000D02*
X146250000Y-98880000D01*
%TO.C,SW5*%
X146420000Y-125160000D02*
X159620000Y-125160000D01*
X146420000Y-138360000D02*
X146420000Y-125160000D01*
X159620000Y-125160000D02*
X159620000Y-138360000D01*
X159620000Y-138360000D02*
X146420000Y-138360000D01*
%TO.C,SW9*%
X146320000Y-105160000D02*
X159520000Y-105160000D01*
X146320000Y-118360000D02*
X146320000Y-105160000D01*
X159520000Y-105160000D02*
X159520000Y-118360000D01*
X159520000Y-118360000D02*
X146320000Y-118360000D01*
%TO.C,SW1*%
X167000000Y-85740000D02*
X180200000Y-85740000D01*
X167000000Y-98940000D02*
X167000000Y-85740000D01*
X180200000Y-85740000D02*
X180200000Y-98940000D01*
X180200000Y-98940000D02*
X167000000Y-98940000D01*
%TD*%
D11*
X170512381Y-140261200D02*
X170655238Y-140308819D01*
X170655238Y-140308819D02*
X170893333Y-140308819D01*
X170893333Y-140308819D02*
X170988571Y-140261200D01*
X170988571Y-140261200D02*
X171036190Y-140213580D01*
X171036190Y-140213580D02*
X171083809Y-140118342D01*
X171083809Y-140118342D02*
X171083809Y-140023104D01*
X171083809Y-140023104D02*
X171036190Y-139927866D01*
X171036190Y-139927866D02*
X170988571Y-139880247D01*
X170988571Y-139880247D02*
X170893333Y-139832628D01*
X170893333Y-139832628D02*
X170702857Y-139785009D01*
X170702857Y-139785009D02*
X170607619Y-139737390D01*
X170607619Y-139737390D02*
X170560000Y-139689771D01*
X170560000Y-139689771D02*
X170512381Y-139594533D01*
X170512381Y-139594533D02*
X170512381Y-139499295D01*
X170512381Y-139499295D02*
X170560000Y-139404057D01*
X170560000Y-139404057D02*
X170607619Y-139356438D01*
X170607619Y-139356438D02*
X170702857Y-139308819D01*
X170702857Y-139308819D02*
X170940952Y-139308819D01*
X170940952Y-139308819D02*
X171083809Y-139356438D01*
X171417143Y-139308819D02*
X171655238Y-140308819D01*
X171655238Y-140308819D02*
X171845714Y-139594533D01*
X171845714Y-139594533D02*
X172036190Y-140308819D01*
X172036190Y-140308819D02*
X172274286Y-139308819D01*
X172417143Y-140404057D02*
X173179047Y-140404057D01*
X173417143Y-140308819D02*
X173417143Y-139308819D01*
X173417143Y-139308819D02*
X173798095Y-139308819D01*
X173798095Y-139308819D02*
X173893333Y-139356438D01*
X173893333Y-139356438D02*
X173940952Y-139404057D01*
X173940952Y-139404057D02*
X173988571Y-139499295D01*
X173988571Y-139499295D02*
X173988571Y-139642152D01*
X173988571Y-139642152D02*
X173940952Y-139737390D01*
X173940952Y-139737390D02*
X173893333Y-139785009D01*
X173893333Y-139785009D02*
X173798095Y-139832628D01*
X173798095Y-139832628D02*
X173417143Y-139832628D01*
X174845714Y-139642152D02*
X174845714Y-140308819D01*
X174417143Y-139642152D02*
X174417143Y-140165961D01*
X174417143Y-140165961D02*
X174464762Y-140261200D01*
X174464762Y-140261200D02*
X174560000Y-140308819D01*
X174560000Y-140308819D02*
X174702857Y-140308819D01*
X174702857Y-140308819D02*
X174798095Y-140261200D01*
X174798095Y-140261200D02*
X174845714Y-140213580D01*
X175274286Y-140261200D02*
X175369524Y-140308819D01*
X175369524Y-140308819D02*
X175560000Y-140308819D01*
X175560000Y-140308819D02*
X175655238Y-140261200D01*
X175655238Y-140261200D02*
X175702857Y-140165961D01*
X175702857Y-140165961D02*
X175702857Y-140118342D01*
X175702857Y-140118342D02*
X175655238Y-140023104D01*
X175655238Y-140023104D02*
X175560000Y-139975485D01*
X175560000Y-139975485D02*
X175417143Y-139975485D01*
X175417143Y-139975485D02*
X175321905Y-139927866D01*
X175321905Y-139927866D02*
X175274286Y-139832628D01*
X175274286Y-139832628D02*
X175274286Y-139785009D01*
X175274286Y-139785009D02*
X175321905Y-139689771D01*
X175321905Y-139689771D02*
X175417143Y-139642152D01*
X175417143Y-139642152D02*
X175560000Y-139642152D01*
X175560000Y-139642152D02*
X175655238Y-139689771D01*
X176131429Y-140308819D02*
X176131429Y-139308819D01*
X176560000Y-140308819D02*
X176560000Y-139785009D01*
X176560000Y-139785009D02*
X176512381Y-139689771D01*
X176512381Y-139689771D02*
X176417143Y-139642152D01*
X176417143Y-139642152D02*
X176274286Y-139642152D01*
X176274286Y-139642152D02*
X176179048Y-139689771D01*
X176179048Y-139689771D02*
X176131429Y-139737390D01*
X172226667Y-124513200D02*
X172369524Y-124560819D01*
X172369524Y-124560819D02*
X172607619Y-124560819D01*
X172607619Y-124560819D02*
X172702857Y-124513200D01*
X172702857Y-124513200D02*
X172750476Y-124465580D01*
X172750476Y-124465580D02*
X172798095Y-124370342D01*
X172798095Y-124370342D02*
X172798095Y-124275104D01*
X172798095Y-124275104D02*
X172750476Y-124179866D01*
X172750476Y-124179866D02*
X172702857Y-124132247D01*
X172702857Y-124132247D02*
X172607619Y-124084628D01*
X172607619Y-124084628D02*
X172417143Y-124037009D01*
X172417143Y-124037009D02*
X172321905Y-123989390D01*
X172321905Y-123989390D02*
X172274286Y-123941771D01*
X172274286Y-123941771D02*
X172226667Y-123846533D01*
X172226667Y-123846533D02*
X172226667Y-123751295D01*
X172226667Y-123751295D02*
X172274286Y-123656057D01*
X172274286Y-123656057D02*
X172321905Y-123608438D01*
X172321905Y-123608438D02*
X172417143Y-123560819D01*
X172417143Y-123560819D02*
X172655238Y-123560819D01*
X172655238Y-123560819D02*
X172798095Y-123608438D01*
X173131429Y-123560819D02*
X173369524Y-124560819D01*
X173369524Y-124560819D02*
X173560000Y-123846533D01*
X173560000Y-123846533D02*
X173750476Y-124560819D01*
X173750476Y-124560819D02*
X173988572Y-123560819D01*
X174274286Y-123560819D02*
X174893333Y-123560819D01*
X174893333Y-123560819D02*
X174560000Y-123941771D01*
X174560000Y-123941771D02*
X174702857Y-123941771D01*
X174702857Y-123941771D02*
X174798095Y-123989390D01*
X174798095Y-123989390D02*
X174845714Y-124037009D01*
X174845714Y-124037009D02*
X174893333Y-124132247D01*
X174893333Y-124132247D02*
X174893333Y-124370342D01*
X174893333Y-124370342D02*
X174845714Y-124465580D01*
X174845714Y-124465580D02*
X174798095Y-124513200D01*
X174798095Y-124513200D02*
X174702857Y-124560819D01*
X174702857Y-124560819D02*
X174417143Y-124560819D01*
X174417143Y-124560819D02*
X174321905Y-124513200D01*
X174321905Y-124513200D02*
X174274286Y-124465580D01*
X160981904Y-64729580D02*
X160934285Y-64777200D01*
X160934285Y-64777200D02*
X160791428Y-64824819D01*
X160791428Y-64824819D02*
X160696190Y-64824819D01*
X160696190Y-64824819D02*
X160553333Y-64777200D01*
X160553333Y-64777200D02*
X160458095Y-64681961D01*
X160458095Y-64681961D02*
X160410476Y-64586723D01*
X160410476Y-64586723D02*
X160362857Y-64396247D01*
X160362857Y-64396247D02*
X160362857Y-64253390D01*
X160362857Y-64253390D02*
X160410476Y-64062914D01*
X160410476Y-64062914D02*
X160458095Y-63967676D01*
X160458095Y-63967676D02*
X160553333Y-63872438D01*
X160553333Y-63872438D02*
X160696190Y-63824819D01*
X160696190Y-63824819D02*
X160791428Y-63824819D01*
X160791428Y-63824819D02*
X160934285Y-63872438D01*
X160934285Y-63872438D02*
X160981904Y-63920057D01*
X161553333Y-64824819D02*
X161458095Y-64777200D01*
X161458095Y-64777200D02*
X161410476Y-64729580D01*
X161410476Y-64729580D02*
X161362857Y-64634342D01*
X161362857Y-64634342D02*
X161362857Y-64348628D01*
X161362857Y-64348628D02*
X161410476Y-64253390D01*
X161410476Y-64253390D02*
X161458095Y-64205771D01*
X161458095Y-64205771D02*
X161553333Y-64158152D01*
X161553333Y-64158152D02*
X161696190Y-64158152D01*
X161696190Y-64158152D02*
X161791428Y-64205771D01*
X161791428Y-64205771D02*
X161839047Y-64253390D01*
X161839047Y-64253390D02*
X161886666Y-64348628D01*
X161886666Y-64348628D02*
X161886666Y-64634342D01*
X161886666Y-64634342D02*
X161839047Y-64729580D01*
X161839047Y-64729580D02*
X161791428Y-64777200D01*
X161791428Y-64777200D02*
X161696190Y-64824819D01*
X161696190Y-64824819D02*
X161553333Y-64824819D01*
X162315238Y-64158152D02*
X162315238Y-64824819D01*
X162315238Y-64253390D02*
X162362857Y-64205771D01*
X162362857Y-64205771D02*
X162458095Y-64158152D01*
X162458095Y-64158152D02*
X162600952Y-64158152D01*
X162600952Y-64158152D02*
X162696190Y-64205771D01*
X162696190Y-64205771D02*
X162743809Y-64301009D01*
X162743809Y-64301009D02*
X162743809Y-64824819D01*
X163220000Y-64158152D02*
X163220000Y-64824819D01*
X163220000Y-64253390D02*
X163267619Y-64205771D01*
X163267619Y-64205771D02*
X163362857Y-64158152D01*
X163362857Y-64158152D02*
X163505714Y-64158152D01*
X163505714Y-64158152D02*
X163600952Y-64205771D01*
X163600952Y-64205771D02*
X163648571Y-64301009D01*
X163648571Y-64301009D02*
X163648571Y-64824819D01*
X163886667Y-64920057D02*
X164648571Y-64920057D01*
X165077143Y-63824819D02*
X165172381Y-63824819D01*
X165172381Y-63824819D02*
X165267619Y-63872438D01*
X165267619Y-63872438D02*
X165315238Y-63920057D01*
X165315238Y-63920057D02*
X165362857Y-64015295D01*
X165362857Y-64015295D02*
X165410476Y-64205771D01*
X165410476Y-64205771D02*
X165410476Y-64443866D01*
X165410476Y-64443866D02*
X165362857Y-64634342D01*
X165362857Y-64634342D02*
X165315238Y-64729580D01*
X165315238Y-64729580D02*
X165267619Y-64777200D01*
X165267619Y-64777200D02*
X165172381Y-64824819D01*
X165172381Y-64824819D02*
X165077143Y-64824819D01*
X165077143Y-64824819D02*
X164981905Y-64777200D01*
X164981905Y-64777200D02*
X164934286Y-64729580D01*
X164934286Y-64729580D02*
X164886667Y-64634342D01*
X164886667Y-64634342D02*
X164839048Y-64443866D01*
X164839048Y-64443866D02*
X164839048Y-64205771D01*
X164839048Y-64205771D02*
X164886667Y-64015295D01*
X164886667Y-64015295D02*
X164934286Y-63920057D01*
X164934286Y-63920057D02*
X164981905Y-63872438D01*
X164981905Y-63872438D02*
X165077143Y-63824819D01*
X166362857Y-64824819D02*
X165791429Y-64824819D01*
X166077143Y-64824819D02*
X166077143Y-63824819D01*
X166077143Y-63824819D02*
X165981905Y-63967676D01*
X165981905Y-63967676D02*
X165886667Y-64062914D01*
X165886667Y-64062914D02*
X165791429Y-64110533D01*
X166696191Y-64824819D02*
X167220000Y-64158152D01*
X166696191Y-64158152D02*
X167220000Y-64824819D01*
X167791429Y-63824819D02*
X167886667Y-63824819D01*
X167886667Y-63824819D02*
X167981905Y-63872438D01*
X167981905Y-63872438D02*
X168029524Y-63920057D01*
X168029524Y-63920057D02*
X168077143Y-64015295D01*
X168077143Y-64015295D02*
X168124762Y-64205771D01*
X168124762Y-64205771D02*
X168124762Y-64443866D01*
X168124762Y-64443866D02*
X168077143Y-64634342D01*
X168077143Y-64634342D02*
X168029524Y-64729580D01*
X168029524Y-64729580D02*
X167981905Y-64777200D01*
X167981905Y-64777200D02*
X167886667Y-64824819D01*
X167886667Y-64824819D02*
X167791429Y-64824819D01*
X167791429Y-64824819D02*
X167696191Y-64777200D01*
X167696191Y-64777200D02*
X167648572Y-64729580D01*
X167648572Y-64729580D02*
X167600953Y-64634342D01*
X167600953Y-64634342D02*
X167553334Y-64443866D01*
X167553334Y-64443866D02*
X167553334Y-64205771D01*
X167553334Y-64205771D02*
X167600953Y-64015295D01*
X167600953Y-64015295D02*
X167648572Y-63920057D01*
X167648572Y-63920057D02*
X167696191Y-63872438D01*
X167696191Y-63872438D02*
X167791429Y-63824819D01*
X168981905Y-64158152D02*
X168981905Y-64824819D01*
X168743810Y-63777200D02*
X168505715Y-64491485D01*
X168505715Y-64491485D02*
X169124762Y-64491485D01*
X128872381Y-140691200D02*
X129015238Y-140738819D01*
X129015238Y-140738819D02*
X129253333Y-140738819D01*
X129253333Y-140738819D02*
X129348571Y-140691200D01*
X129348571Y-140691200D02*
X129396190Y-140643580D01*
X129396190Y-140643580D02*
X129443809Y-140548342D01*
X129443809Y-140548342D02*
X129443809Y-140453104D01*
X129443809Y-140453104D02*
X129396190Y-140357866D01*
X129396190Y-140357866D02*
X129348571Y-140310247D01*
X129348571Y-140310247D02*
X129253333Y-140262628D01*
X129253333Y-140262628D02*
X129062857Y-140215009D01*
X129062857Y-140215009D02*
X128967619Y-140167390D01*
X128967619Y-140167390D02*
X128920000Y-140119771D01*
X128920000Y-140119771D02*
X128872381Y-140024533D01*
X128872381Y-140024533D02*
X128872381Y-139929295D01*
X128872381Y-139929295D02*
X128920000Y-139834057D01*
X128920000Y-139834057D02*
X128967619Y-139786438D01*
X128967619Y-139786438D02*
X129062857Y-139738819D01*
X129062857Y-139738819D02*
X129300952Y-139738819D01*
X129300952Y-139738819D02*
X129443809Y-139786438D01*
X129777143Y-139738819D02*
X130015238Y-140738819D01*
X130015238Y-140738819D02*
X130205714Y-140024533D01*
X130205714Y-140024533D02*
X130396190Y-140738819D01*
X130396190Y-140738819D02*
X130634286Y-139738819D01*
X130777143Y-140834057D02*
X131539047Y-140834057D01*
X131777143Y-140738819D02*
X131777143Y-139738819D01*
X131777143Y-139738819D02*
X132158095Y-139738819D01*
X132158095Y-139738819D02*
X132253333Y-139786438D01*
X132253333Y-139786438D02*
X132300952Y-139834057D01*
X132300952Y-139834057D02*
X132348571Y-139929295D01*
X132348571Y-139929295D02*
X132348571Y-140072152D01*
X132348571Y-140072152D02*
X132300952Y-140167390D01*
X132300952Y-140167390D02*
X132253333Y-140215009D01*
X132253333Y-140215009D02*
X132158095Y-140262628D01*
X132158095Y-140262628D02*
X131777143Y-140262628D01*
X133205714Y-140072152D02*
X133205714Y-140738819D01*
X132777143Y-140072152D02*
X132777143Y-140595961D01*
X132777143Y-140595961D02*
X132824762Y-140691200D01*
X132824762Y-140691200D02*
X132920000Y-140738819D01*
X132920000Y-140738819D02*
X133062857Y-140738819D01*
X133062857Y-140738819D02*
X133158095Y-140691200D01*
X133158095Y-140691200D02*
X133205714Y-140643580D01*
X133634286Y-140691200D02*
X133729524Y-140738819D01*
X133729524Y-140738819D02*
X133920000Y-140738819D01*
X133920000Y-140738819D02*
X134015238Y-140691200D01*
X134015238Y-140691200D02*
X134062857Y-140595961D01*
X134062857Y-140595961D02*
X134062857Y-140548342D01*
X134062857Y-140548342D02*
X134015238Y-140453104D01*
X134015238Y-140453104D02*
X133920000Y-140405485D01*
X133920000Y-140405485D02*
X133777143Y-140405485D01*
X133777143Y-140405485D02*
X133681905Y-140357866D01*
X133681905Y-140357866D02*
X133634286Y-140262628D01*
X133634286Y-140262628D02*
X133634286Y-140215009D01*
X133634286Y-140215009D02*
X133681905Y-140119771D01*
X133681905Y-140119771D02*
X133777143Y-140072152D01*
X133777143Y-140072152D02*
X133920000Y-140072152D01*
X133920000Y-140072152D02*
X134015238Y-140119771D01*
X134491429Y-140738819D02*
X134491429Y-139738819D01*
X134920000Y-140738819D02*
X134920000Y-140215009D01*
X134920000Y-140215009D02*
X134872381Y-140119771D01*
X134872381Y-140119771D02*
X134777143Y-140072152D01*
X134777143Y-140072152D02*
X134634286Y-140072152D01*
X134634286Y-140072152D02*
X134539048Y-140119771D01*
X134539048Y-140119771D02*
X134491429Y-140167390D01*
X130586667Y-132817200D02*
X130729524Y-132864819D01*
X130729524Y-132864819D02*
X130967619Y-132864819D01*
X130967619Y-132864819D02*
X131062857Y-132817200D01*
X131062857Y-132817200D02*
X131110476Y-132769580D01*
X131110476Y-132769580D02*
X131158095Y-132674342D01*
X131158095Y-132674342D02*
X131158095Y-132579104D01*
X131158095Y-132579104D02*
X131110476Y-132483866D01*
X131110476Y-132483866D02*
X131062857Y-132436247D01*
X131062857Y-132436247D02*
X130967619Y-132388628D01*
X130967619Y-132388628D02*
X130777143Y-132341009D01*
X130777143Y-132341009D02*
X130681905Y-132293390D01*
X130681905Y-132293390D02*
X130634286Y-132245771D01*
X130634286Y-132245771D02*
X130586667Y-132150533D01*
X130586667Y-132150533D02*
X130586667Y-132055295D01*
X130586667Y-132055295D02*
X130634286Y-131960057D01*
X130634286Y-131960057D02*
X130681905Y-131912438D01*
X130681905Y-131912438D02*
X130777143Y-131864819D01*
X130777143Y-131864819D02*
X131015238Y-131864819D01*
X131015238Y-131864819D02*
X131158095Y-131912438D01*
X131491429Y-131864819D02*
X131729524Y-132864819D01*
X131729524Y-132864819D02*
X131920000Y-132150533D01*
X131920000Y-132150533D02*
X132110476Y-132864819D01*
X132110476Y-132864819D02*
X132348572Y-131864819D01*
X132634286Y-131864819D02*
X133300952Y-131864819D01*
X133300952Y-131864819D02*
X132872381Y-132864819D01*
D35*
X127635476Y-71743479D02*
X128058809Y-72378479D01*
X128058809Y-71743479D02*
X127635476Y-72378479D01*
X128300714Y-72378479D02*
X128300714Y-71743479D01*
X128572857Y-72197050D02*
X128875238Y-72197050D01*
X128512381Y-72378479D02*
X128724047Y-71743479D01*
X128724047Y-71743479D02*
X128935714Y-72378479D01*
X129268333Y-71743479D02*
X129389286Y-71743479D01*
X129389286Y-71743479D02*
X129449762Y-71773717D01*
X129449762Y-71773717D02*
X129510238Y-71834193D01*
X129510238Y-71834193D02*
X129540476Y-71955145D01*
X129540476Y-71955145D02*
X129540476Y-72166812D01*
X129540476Y-72166812D02*
X129510238Y-72287764D01*
X129510238Y-72287764D02*
X129449762Y-72348241D01*
X129449762Y-72348241D02*
X129389286Y-72378479D01*
X129389286Y-72378479D02*
X129268333Y-72378479D01*
X129268333Y-72378479D02*
X129207857Y-72348241D01*
X129207857Y-72348241D02*
X129147381Y-72287764D01*
X129147381Y-72287764D02*
X129117143Y-72166812D01*
X129117143Y-72166812D02*
X129117143Y-71955145D01*
X129117143Y-71955145D02*
X129147381Y-71834193D01*
X129147381Y-71834193D02*
X129207857Y-71773717D01*
X129207857Y-71773717D02*
X129268333Y-71743479D01*
X129812619Y-72136574D02*
X130296429Y-72136574D01*
X130961666Y-72378479D02*
X130749999Y-72076098D01*
X130598809Y-72378479D02*
X130598809Y-71743479D01*
X130598809Y-71743479D02*
X130840714Y-71743479D01*
X130840714Y-71743479D02*
X130901190Y-71773717D01*
X130901190Y-71773717D02*
X130931428Y-71803955D01*
X130931428Y-71803955D02*
X130961666Y-71864431D01*
X130961666Y-71864431D02*
X130961666Y-71955145D01*
X130961666Y-71955145D02*
X130931428Y-72015621D01*
X130931428Y-72015621D02*
X130901190Y-72045860D01*
X130901190Y-72045860D02*
X130840714Y-72076098D01*
X130840714Y-72076098D02*
X130598809Y-72076098D01*
X131233809Y-72378479D02*
X131233809Y-71743479D01*
X131233809Y-71743479D02*
X131475714Y-71743479D01*
X131475714Y-71743479D02*
X131536190Y-71773717D01*
X131536190Y-71773717D02*
X131566428Y-71803955D01*
X131566428Y-71803955D02*
X131596666Y-71864431D01*
X131596666Y-71864431D02*
X131596666Y-71955145D01*
X131596666Y-71955145D02*
X131566428Y-72015621D01*
X131566428Y-72015621D02*
X131536190Y-72045860D01*
X131536190Y-72045860D02*
X131475714Y-72076098D01*
X131475714Y-72076098D02*
X131233809Y-72076098D01*
X131838571Y-71803955D02*
X131868809Y-71773717D01*
X131868809Y-71773717D02*
X131929285Y-71743479D01*
X131929285Y-71743479D02*
X132080476Y-71743479D01*
X132080476Y-71743479D02*
X132140952Y-71773717D01*
X132140952Y-71773717D02*
X132171190Y-71803955D01*
X132171190Y-71803955D02*
X132201428Y-71864431D01*
X132201428Y-71864431D02*
X132201428Y-71924907D01*
X132201428Y-71924907D02*
X132171190Y-72015621D01*
X132171190Y-72015621D02*
X131808333Y-72378479D01*
X131808333Y-72378479D02*
X132201428Y-72378479D01*
X132594523Y-71743479D02*
X132655000Y-71743479D01*
X132655000Y-71743479D02*
X132715476Y-71773717D01*
X132715476Y-71773717D02*
X132745714Y-71803955D01*
X132745714Y-71803955D02*
X132775952Y-71864431D01*
X132775952Y-71864431D02*
X132806190Y-71985383D01*
X132806190Y-71985383D02*
X132806190Y-72136574D01*
X132806190Y-72136574D02*
X132775952Y-72257526D01*
X132775952Y-72257526D02*
X132745714Y-72318002D01*
X132745714Y-72318002D02*
X132715476Y-72348241D01*
X132715476Y-72348241D02*
X132655000Y-72378479D01*
X132655000Y-72378479D02*
X132594523Y-72378479D01*
X132594523Y-72378479D02*
X132534047Y-72348241D01*
X132534047Y-72348241D02*
X132503809Y-72318002D01*
X132503809Y-72318002D02*
X132473571Y-72257526D01*
X132473571Y-72257526D02*
X132443333Y-72136574D01*
X132443333Y-72136574D02*
X132443333Y-71985383D01*
X132443333Y-71985383D02*
X132473571Y-71864431D01*
X132473571Y-71864431D02*
X132503809Y-71803955D01*
X132503809Y-71803955D02*
X132534047Y-71773717D01*
X132534047Y-71773717D02*
X132594523Y-71743479D01*
X133350476Y-71955145D02*
X133350476Y-72378479D01*
X133199285Y-71713241D02*
X133048095Y-72166812D01*
X133048095Y-72166812D02*
X133441190Y-72166812D01*
X133804047Y-71743479D02*
X133864524Y-71743479D01*
X133864524Y-71743479D02*
X133925000Y-71773717D01*
X133925000Y-71773717D02*
X133955238Y-71803955D01*
X133955238Y-71803955D02*
X133985476Y-71864431D01*
X133985476Y-71864431D02*
X134015714Y-71985383D01*
X134015714Y-71985383D02*
X134015714Y-72136574D01*
X134015714Y-72136574D02*
X133985476Y-72257526D01*
X133985476Y-72257526D02*
X133955238Y-72318002D01*
X133955238Y-72318002D02*
X133925000Y-72348241D01*
X133925000Y-72348241D02*
X133864524Y-72378479D01*
X133864524Y-72378479D02*
X133804047Y-72378479D01*
X133804047Y-72378479D02*
X133743571Y-72348241D01*
X133743571Y-72348241D02*
X133713333Y-72318002D01*
X133713333Y-72318002D02*
X133683095Y-72257526D01*
X133683095Y-72257526D02*
X133652857Y-72136574D01*
X133652857Y-72136574D02*
X133652857Y-71985383D01*
X133652857Y-71985383D02*
X133683095Y-71864431D01*
X133683095Y-71864431D02*
X133713333Y-71803955D01*
X133713333Y-71803955D02*
X133743571Y-71773717D01*
X133743571Y-71773717D02*
X133804047Y-71743479D01*
X134287857Y-72136574D02*
X134771667Y-72136574D01*
X135074047Y-72378479D02*
X135074047Y-71743479D01*
X135074047Y-71743479D02*
X135225237Y-71743479D01*
X135225237Y-71743479D02*
X135315952Y-71773717D01*
X135315952Y-71773717D02*
X135376428Y-71834193D01*
X135376428Y-71834193D02*
X135406666Y-71894669D01*
X135406666Y-71894669D02*
X135436904Y-72015621D01*
X135436904Y-72015621D02*
X135436904Y-72106336D01*
X135436904Y-72106336D02*
X135406666Y-72227288D01*
X135406666Y-72227288D02*
X135376428Y-72287764D01*
X135376428Y-72287764D02*
X135315952Y-72348241D01*
X135315952Y-72348241D02*
X135225237Y-72378479D01*
X135225237Y-72378479D02*
X135074047Y-72378479D01*
X135709047Y-72378479D02*
X135709047Y-71743479D01*
X136011428Y-72378479D02*
X136011428Y-71743479D01*
X136011428Y-71743479D02*
X136253333Y-71743479D01*
X136253333Y-71743479D02*
X136313809Y-71773717D01*
X136313809Y-71773717D02*
X136344047Y-71803955D01*
X136344047Y-71803955D02*
X136374285Y-71864431D01*
X136374285Y-71864431D02*
X136374285Y-71955145D01*
X136374285Y-71955145D02*
X136344047Y-72015621D01*
X136344047Y-72015621D02*
X136313809Y-72045860D01*
X136313809Y-72045860D02*
X136253333Y-72076098D01*
X136253333Y-72076098D02*
X136011428Y-72076098D01*
D11*
X128612381Y-121231200D02*
X128755238Y-121278819D01*
X128755238Y-121278819D02*
X128993333Y-121278819D01*
X128993333Y-121278819D02*
X129088571Y-121231200D01*
X129088571Y-121231200D02*
X129136190Y-121183580D01*
X129136190Y-121183580D02*
X129183809Y-121088342D01*
X129183809Y-121088342D02*
X129183809Y-120993104D01*
X129183809Y-120993104D02*
X129136190Y-120897866D01*
X129136190Y-120897866D02*
X129088571Y-120850247D01*
X129088571Y-120850247D02*
X128993333Y-120802628D01*
X128993333Y-120802628D02*
X128802857Y-120755009D01*
X128802857Y-120755009D02*
X128707619Y-120707390D01*
X128707619Y-120707390D02*
X128660000Y-120659771D01*
X128660000Y-120659771D02*
X128612381Y-120564533D01*
X128612381Y-120564533D02*
X128612381Y-120469295D01*
X128612381Y-120469295D02*
X128660000Y-120374057D01*
X128660000Y-120374057D02*
X128707619Y-120326438D01*
X128707619Y-120326438D02*
X128802857Y-120278819D01*
X128802857Y-120278819D02*
X129040952Y-120278819D01*
X129040952Y-120278819D02*
X129183809Y-120326438D01*
X129517143Y-120278819D02*
X129755238Y-121278819D01*
X129755238Y-121278819D02*
X129945714Y-120564533D01*
X129945714Y-120564533D02*
X130136190Y-121278819D01*
X130136190Y-121278819D02*
X130374286Y-120278819D01*
X130517143Y-121374057D02*
X131279047Y-121374057D01*
X131517143Y-121278819D02*
X131517143Y-120278819D01*
X131517143Y-120278819D02*
X131898095Y-120278819D01*
X131898095Y-120278819D02*
X131993333Y-120326438D01*
X131993333Y-120326438D02*
X132040952Y-120374057D01*
X132040952Y-120374057D02*
X132088571Y-120469295D01*
X132088571Y-120469295D02*
X132088571Y-120612152D01*
X132088571Y-120612152D02*
X132040952Y-120707390D01*
X132040952Y-120707390D02*
X131993333Y-120755009D01*
X131993333Y-120755009D02*
X131898095Y-120802628D01*
X131898095Y-120802628D02*
X131517143Y-120802628D01*
X132945714Y-120612152D02*
X132945714Y-121278819D01*
X132517143Y-120612152D02*
X132517143Y-121135961D01*
X132517143Y-121135961D02*
X132564762Y-121231200D01*
X132564762Y-121231200D02*
X132660000Y-121278819D01*
X132660000Y-121278819D02*
X132802857Y-121278819D01*
X132802857Y-121278819D02*
X132898095Y-121231200D01*
X132898095Y-121231200D02*
X132945714Y-121183580D01*
X133374286Y-121231200D02*
X133469524Y-121278819D01*
X133469524Y-121278819D02*
X133660000Y-121278819D01*
X133660000Y-121278819D02*
X133755238Y-121231200D01*
X133755238Y-121231200D02*
X133802857Y-121135961D01*
X133802857Y-121135961D02*
X133802857Y-121088342D01*
X133802857Y-121088342D02*
X133755238Y-120993104D01*
X133755238Y-120993104D02*
X133660000Y-120945485D01*
X133660000Y-120945485D02*
X133517143Y-120945485D01*
X133517143Y-120945485D02*
X133421905Y-120897866D01*
X133421905Y-120897866D02*
X133374286Y-120802628D01*
X133374286Y-120802628D02*
X133374286Y-120755009D01*
X133374286Y-120755009D02*
X133421905Y-120659771D01*
X133421905Y-120659771D02*
X133517143Y-120612152D01*
X133517143Y-120612152D02*
X133660000Y-120612152D01*
X133660000Y-120612152D02*
X133755238Y-120659771D01*
X134231429Y-121278819D02*
X134231429Y-120278819D01*
X134660000Y-121278819D02*
X134660000Y-120755009D01*
X134660000Y-120755009D02*
X134612381Y-120659771D01*
X134612381Y-120659771D02*
X134517143Y-120612152D01*
X134517143Y-120612152D02*
X134374286Y-120612152D01*
X134374286Y-120612152D02*
X134279048Y-120659771D01*
X134279048Y-120659771D02*
X134231429Y-120707390D01*
X130326667Y-105483200D02*
X130469524Y-105530819D01*
X130469524Y-105530819D02*
X130707619Y-105530819D01*
X130707619Y-105530819D02*
X130802857Y-105483200D01*
X130802857Y-105483200D02*
X130850476Y-105435580D01*
X130850476Y-105435580D02*
X130898095Y-105340342D01*
X130898095Y-105340342D02*
X130898095Y-105245104D01*
X130898095Y-105245104D02*
X130850476Y-105149866D01*
X130850476Y-105149866D02*
X130802857Y-105102247D01*
X130802857Y-105102247D02*
X130707619Y-105054628D01*
X130707619Y-105054628D02*
X130517143Y-105007009D01*
X130517143Y-105007009D02*
X130421905Y-104959390D01*
X130421905Y-104959390D02*
X130374286Y-104911771D01*
X130374286Y-104911771D02*
X130326667Y-104816533D01*
X130326667Y-104816533D02*
X130326667Y-104721295D01*
X130326667Y-104721295D02*
X130374286Y-104626057D01*
X130374286Y-104626057D02*
X130421905Y-104578438D01*
X130421905Y-104578438D02*
X130517143Y-104530819D01*
X130517143Y-104530819D02*
X130755238Y-104530819D01*
X130755238Y-104530819D02*
X130898095Y-104578438D01*
X131231429Y-104530819D02*
X131469524Y-105530819D01*
X131469524Y-105530819D02*
X131660000Y-104816533D01*
X131660000Y-104816533D02*
X131850476Y-105530819D01*
X131850476Y-105530819D02*
X132088572Y-104530819D01*
X132612381Y-104959390D02*
X132517143Y-104911771D01*
X132517143Y-104911771D02*
X132469524Y-104864152D01*
X132469524Y-104864152D02*
X132421905Y-104768914D01*
X132421905Y-104768914D02*
X132421905Y-104721295D01*
X132421905Y-104721295D02*
X132469524Y-104626057D01*
X132469524Y-104626057D02*
X132517143Y-104578438D01*
X132517143Y-104578438D02*
X132612381Y-104530819D01*
X132612381Y-104530819D02*
X132802857Y-104530819D01*
X132802857Y-104530819D02*
X132898095Y-104578438D01*
X132898095Y-104578438D02*
X132945714Y-104626057D01*
X132945714Y-104626057D02*
X132993333Y-104721295D01*
X132993333Y-104721295D02*
X132993333Y-104768914D01*
X132993333Y-104768914D02*
X132945714Y-104864152D01*
X132945714Y-104864152D02*
X132898095Y-104911771D01*
X132898095Y-104911771D02*
X132802857Y-104959390D01*
X132802857Y-104959390D02*
X132612381Y-104959390D01*
X132612381Y-104959390D02*
X132517143Y-105007009D01*
X132517143Y-105007009D02*
X132469524Y-105054628D01*
X132469524Y-105054628D02*
X132421905Y-105149866D01*
X132421905Y-105149866D02*
X132421905Y-105340342D01*
X132421905Y-105340342D02*
X132469524Y-105435580D01*
X132469524Y-105435580D02*
X132517143Y-105483200D01*
X132517143Y-105483200D02*
X132612381Y-105530819D01*
X132612381Y-105530819D02*
X132802857Y-105530819D01*
X132802857Y-105530819D02*
X132898095Y-105483200D01*
X132898095Y-105483200D02*
X132945714Y-105435580D01*
X132945714Y-105435580D02*
X132993333Y-105340342D01*
X132993333Y-105340342D02*
X132993333Y-105149866D01*
X132993333Y-105149866D02*
X132945714Y-105054628D01*
X132945714Y-105054628D02*
X132898095Y-105007009D01*
X132898095Y-105007009D02*
X132802857Y-104959390D01*
X170552381Y-120611200D02*
X170695238Y-120658819D01*
X170695238Y-120658819D02*
X170933333Y-120658819D01*
X170933333Y-120658819D02*
X171028571Y-120611200D01*
X171028571Y-120611200D02*
X171076190Y-120563580D01*
X171076190Y-120563580D02*
X171123809Y-120468342D01*
X171123809Y-120468342D02*
X171123809Y-120373104D01*
X171123809Y-120373104D02*
X171076190Y-120277866D01*
X171076190Y-120277866D02*
X171028571Y-120230247D01*
X171028571Y-120230247D02*
X170933333Y-120182628D01*
X170933333Y-120182628D02*
X170742857Y-120135009D01*
X170742857Y-120135009D02*
X170647619Y-120087390D01*
X170647619Y-120087390D02*
X170600000Y-120039771D01*
X170600000Y-120039771D02*
X170552381Y-119944533D01*
X170552381Y-119944533D02*
X170552381Y-119849295D01*
X170552381Y-119849295D02*
X170600000Y-119754057D01*
X170600000Y-119754057D02*
X170647619Y-119706438D01*
X170647619Y-119706438D02*
X170742857Y-119658819D01*
X170742857Y-119658819D02*
X170980952Y-119658819D01*
X170980952Y-119658819D02*
X171123809Y-119706438D01*
X171457143Y-119658819D02*
X171695238Y-120658819D01*
X171695238Y-120658819D02*
X171885714Y-119944533D01*
X171885714Y-119944533D02*
X172076190Y-120658819D01*
X172076190Y-120658819D02*
X172314286Y-119658819D01*
X172457143Y-120754057D02*
X173219047Y-120754057D01*
X173457143Y-120658819D02*
X173457143Y-119658819D01*
X173457143Y-119658819D02*
X173838095Y-119658819D01*
X173838095Y-119658819D02*
X173933333Y-119706438D01*
X173933333Y-119706438D02*
X173980952Y-119754057D01*
X173980952Y-119754057D02*
X174028571Y-119849295D01*
X174028571Y-119849295D02*
X174028571Y-119992152D01*
X174028571Y-119992152D02*
X173980952Y-120087390D01*
X173980952Y-120087390D02*
X173933333Y-120135009D01*
X173933333Y-120135009D02*
X173838095Y-120182628D01*
X173838095Y-120182628D02*
X173457143Y-120182628D01*
X174885714Y-119992152D02*
X174885714Y-120658819D01*
X174457143Y-119992152D02*
X174457143Y-120515961D01*
X174457143Y-120515961D02*
X174504762Y-120611200D01*
X174504762Y-120611200D02*
X174600000Y-120658819D01*
X174600000Y-120658819D02*
X174742857Y-120658819D01*
X174742857Y-120658819D02*
X174838095Y-120611200D01*
X174838095Y-120611200D02*
X174885714Y-120563580D01*
X175314286Y-120611200D02*
X175409524Y-120658819D01*
X175409524Y-120658819D02*
X175600000Y-120658819D01*
X175600000Y-120658819D02*
X175695238Y-120611200D01*
X175695238Y-120611200D02*
X175742857Y-120515961D01*
X175742857Y-120515961D02*
X175742857Y-120468342D01*
X175742857Y-120468342D02*
X175695238Y-120373104D01*
X175695238Y-120373104D02*
X175600000Y-120325485D01*
X175600000Y-120325485D02*
X175457143Y-120325485D01*
X175457143Y-120325485D02*
X175361905Y-120277866D01*
X175361905Y-120277866D02*
X175314286Y-120182628D01*
X175314286Y-120182628D02*
X175314286Y-120135009D01*
X175314286Y-120135009D02*
X175361905Y-120039771D01*
X175361905Y-120039771D02*
X175457143Y-119992152D01*
X175457143Y-119992152D02*
X175600000Y-119992152D01*
X175600000Y-119992152D02*
X175695238Y-120039771D01*
X176171429Y-120658819D02*
X176171429Y-119658819D01*
X176600000Y-120658819D02*
X176600000Y-120135009D01*
X176600000Y-120135009D02*
X176552381Y-120039771D01*
X176552381Y-120039771D02*
X176457143Y-119992152D01*
X176457143Y-119992152D02*
X176314286Y-119992152D01*
X176314286Y-119992152D02*
X176219048Y-120039771D01*
X176219048Y-120039771D02*
X176171429Y-120087390D01*
X172266667Y-104863200D02*
X172409524Y-104910819D01*
X172409524Y-104910819D02*
X172647619Y-104910819D01*
X172647619Y-104910819D02*
X172742857Y-104863200D01*
X172742857Y-104863200D02*
X172790476Y-104815580D01*
X172790476Y-104815580D02*
X172838095Y-104720342D01*
X172838095Y-104720342D02*
X172838095Y-104625104D01*
X172838095Y-104625104D02*
X172790476Y-104529866D01*
X172790476Y-104529866D02*
X172742857Y-104482247D01*
X172742857Y-104482247D02*
X172647619Y-104434628D01*
X172647619Y-104434628D02*
X172457143Y-104387009D01*
X172457143Y-104387009D02*
X172361905Y-104339390D01*
X172361905Y-104339390D02*
X172314286Y-104291771D01*
X172314286Y-104291771D02*
X172266667Y-104196533D01*
X172266667Y-104196533D02*
X172266667Y-104101295D01*
X172266667Y-104101295D02*
X172314286Y-104006057D01*
X172314286Y-104006057D02*
X172361905Y-103958438D01*
X172361905Y-103958438D02*
X172457143Y-103910819D01*
X172457143Y-103910819D02*
X172695238Y-103910819D01*
X172695238Y-103910819D02*
X172838095Y-103958438D01*
X173171429Y-103910819D02*
X173409524Y-104910819D01*
X173409524Y-104910819D02*
X173600000Y-104196533D01*
X173600000Y-104196533D02*
X173790476Y-104910819D01*
X173790476Y-104910819D02*
X174028572Y-103910819D01*
X174838095Y-103910819D02*
X174647619Y-103910819D01*
X174647619Y-103910819D02*
X174552381Y-103958438D01*
X174552381Y-103958438D02*
X174504762Y-104006057D01*
X174504762Y-104006057D02*
X174409524Y-104148914D01*
X174409524Y-104148914D02*
X174361905Y-104339390D01*
X174361905Y-104339390D02*
X174361905Y-104720342D01*
X174361905Y-104720342D02*
X174409524Y-104815580D01*
X174409524Y-104815580D02*
X174457143Y-104863200D01*
X174457143Y-104863200D02*
X174552381Y-104910819D01*
X174552381Y-104910819D02*
X174742857Y-104910819D01*
X174742857Y-104910819D02*
X174838095Y-104863200D01*
X174838095Y-104863200D02*
X174885714Y-104815580D01*
X174885714Y-104815580D02*
X174933333Y-104720342D01*
X174933333Y-104720342D02*
X174933333Y-104482247D01*
X174933333Y-104482247D02*
X174885714Y-104387009D01*
X174885714Y-104387009D02*
X174838095Y-104339390D01*
X174838095Y-104339390D02*
X174742857Y-104291771D01*
X174742857Y-104291771D02*
X174552381Y-104291771D01*
X174552381Y-104291771D02*
X174457143Y-104339390D01*
X174457143Y-104339390D02*
X174409524Y-104387009D01*
X174409524Y-104387009D02*
X174361905Y-104482247D01*
X129322381Y-100771200D02*
X129465238Y-100818819D01*
X129465238Y-100818819D02*
X129703333Y-100818819D01*
X129703333Y-100818819D02*
X129798571Y-100771200D01*
X129798571Y-100771200D02*
X129846190Y-100723580D01*
X129846190Y-100723580D02*
X129893809Y-100628342D01*
X129893809Y-100628342D02*
X129893809Y-100533104D01*
X129893809Y-100533104D02*
X129846190Y-100437866D01*
X129846190Y-100437866D02*
X129798571Y-100390247D01*
X129798571Y-100390247D02*
X129703333Y-100342628D01*
X129703333Y-100342628D02*
X129512857Y-100295009D01*
X129512857Y-100295009D02*
X129417619Y-100247390D01*
X129417619Y-100247390D02*
X129370000Y-100199771D01*
X129370000Y-100199771D02*
X129322381Y-100104533D01*
X129322381Y-100104533D02*
X129322381Y-100009295D01*
X129322381Y-100009295D02*
X129370000Y-99914057D01*
X129370000Y-99914057D02*
X129417619Y-99866438D01*
X129417619Y-99866438D02*
X129512857Y-99818819D01*
X129512857Y-99818819D02*
X129750952Y-99818819D01*
X129750952Y-99818819D02*
X129893809Y-99866438D01*
X130227143Y-99818819D02*
X130465238Y-100818819D01*
X130465238Y-100818819D02*
X130655714Y-100104533D01*
X130655714Y-100104533D02*
X130846190Y-100818819D01*
X130846190Y-100818819D02*
X131084286Y-99818819D01*
X131227143Y-100914057D02*
X131989047Y-100914057D01*
X132227143Y-100818819D02*
X132227143Y-99818819D01*
X132227143Y-99818819D02*
X132608095Y-99818819D01*
X132608095Y-99818819D02*
X132703333Y-99866438D01*
X132703333Y-99866438D02*
X132750952Y-99914057D01*
X132750952Y-99914057D02*
X132798571Y-100009295D01*
X132798571Y-100009295D02*
X132798571Y-100152152D01*
X132798571Y-100152152D02*
X132750952Y-100247390D01*
X132750952Y-100247390D02*
X132703333Y-100295009D01*
X132703333Y-100295009D02*
X132608095Y-100342628D01*
X132608095Y-100342628D02*
X132227143Y-100342628D01*
X133655714Y-100152152D02*
X133655714Y-100818819D01*
X133227143Y-100152152D02*
X133227143Y-100675961D01*
X133227143Y-100675961D02*
X133274762Y-100771200D01*
X133274762Y-100771200D02*
X133370000Y-100818819D01*
X133370000Y-100818819D02*
X133512857Y-100818819D01*
X133512857Y-100818819D02*
X133608095Y-100771200D01*
X133608095Y-100771200D02*
X133655714Y-100723580D01*
X134084286Y-100771200D02*
X134179524Y-100818819D01*
X134179524Y-100818819D02*
X134370000Y-100818819D01*
X134370000Y-100818819D02*
X134465238Y-100771200D01*
X134465238Y-100771200D02*
X134512857Y-100675961D01*
X134512857Y-100675961D02*
X134512857Y-100628342D01*
X134512857Y-100628342D02*
X134465238Y-100533104D01*
X134465238Y-100533104D02*
X134370000Y-100485485D01*
X134370000Y-100485485D02*
X134227143Y-100485485D01*
X134227143Y-100485485D02*
X134131905Y-100437866D01*
X134131905Y-100437866D02*
X134084286Y-100342628D01*
X134084286Y-100342628D02*
X134084286Y-100295009D01*
X134084286Y-100295009D02*
X134131905Y-100199771D01*
X134131905Y-100199771D02*
X134227143Y-100152152D01*
X134227143Y-100152152D02*
X134370000Y-100152152D01*
X134370000Y-100152152D02*
X134465238Y-100199771D01*
X134941429Y-100818819D02*
X134941429Y-99818819D01*
X135370000Y-100818819D02*
X135370000Y-100295009D01*
X135370000Y-100295009D02*
X135322381Y-100199771D01*
X135322381Y-100199771D02*
X135227143Y-100152152D01*
X135227143Y-100152152D02*
X135084286Y-100152152D01*
X135084286Y-100152152D02*
X134989048Y-100199771D01*
X134989048Y-100199771D02*
X134941429Y-100247390D01*
X131036667Y-85023200D02*
X131179524Y-85070819D01*
X131179524Y-85070819D02*
X131417619Y-85070819D01*
X131417619Y-85070819D02*
X131512857Y-85023200D01*
X131512857Y-85023200D02*
X131560476Y-84975580D01*
X131560476Y-84975580D02*
X131608095Y-84880342D01*
X131608095Y-84880342D02*
X131608095Y-84785104D01*
X131608095Y-84785104D02*
X131560476Y-84689866D01*
X131560476Y-84689866D02*
X131512857Y-84642247D01*
X131512857Y-84642247D02*
X131417619Y-84594628D01*
X131417619Y-84594628D02*
X131227143Y-84547009D01*
X131227143Y-84547009D02*
X131131905Y-84499390D01*
X131131905Y-84499390D02*
X131084286Y-84451771D01*
X131084286Y-84451771D02*
X131036667Y-84356533D01*
X131036667Y-84356533D02*
X131036667Y-84261295D01*
X131036667Y-84261295D02*
X131084286Y-84166057D01*
X131084286Y-84166057D02*
X131131905Y-84118438D01*
X131131905Y-84118438D02*
X131227143Y-84070819D01*
X131227143Y-84070819D02*
X131465238Y-84070819D01*
X131465238Y-84070819D02*
X131608095Y-84118438D01*
X131941429Y-84070819D02*
X132179524Y-85070819D01*
X132179524Y-85070819D02*
X132370000Y-84356533D01*
X132370000Y-84356533D02*
X132560476Y-85070819D01*
X132560476Y-85070819D02*
X132798572Y-84070819D01*
X133608095Y-84404152D02*
X133608095Y-85070819D01*
X133370000Y-84023200D02*
X133131905Y-84737485D01*
X133131905Y-84737485D02*
X133750952Y-84737485D01*
X149802381Y-100561200D02*
X149945238Y-100608819D01*
X149945238Y-100608819D02*
X150183333Y-100608819D01*
X150183333Y-100608819D02*
X150278571Y-100561200D01*
X150278571Y-100561200D02*
X150326190Y-100513580D01*
X150326190Y-100513580D02*
X150373809Y-100418342D01*
X150373809Y-100418342D02*
X150373809Y-100323104D01*
X150373809Y-100323104D02*
X150326190Y-100227866D01*
X150326190Y-100227866D02*
X150278571Y-100180247D01*
X150278571Y-100180247D02*
X150183333Y-100132628D01*
X150183333Y-100132628D02*
X149992857Y-100085009D01*
X149992857Y-100085009D02*
X149897619Y-100037390D01*
X149897619Y-100037390D02*
X149850000Y-99989771D01*
X149850000Y-99989771D02*
X149802381Y-99894533D01*
X149802381Y-99894533D02*
X149802381Y-99799295D01*
X149802381Y-99799295D02*
X149850000Y-99704057D01*
X149850000Y-99704057D02*
X149897619Y-99656438D01*
X149897619Y-99656438D02*
X149992857Y-99608819D01*
X149992857Y-99608819D02*
X150230952Y-99608819D01*
X150230952Y-99608819D02*
X150373809Y-99656438D01*
X150707143Y-99608819D02*
X150945238Y-100608819D01*
X150945238Y-100608819D02*
X151135714Y-99894533D01*
X151135714Y-99894533D02*
X151326190Y-100608819D01*
X151326190Y-100608819D02*
X151564286Y-99608819D01*
X151707143Y-100704057D02*
X152469047Y-100704057D01*
X152707143Y-100608819D02*
X152707143Y-99608819D01*
X152707143Y-99608819D02*
X153088095Y-99608819D01*
X153088095Y-99608819D02*
X153183333Y-99656438D01*
X153183333Y-99656438D02*
X153230952Y-99704057D01*
X153230952Y-99704057D02*
X153278571Y-99799295D01*
X153278571Y-99799295D02*
X153278571Y-99942152D01*
X153278571Y-99942152D02*
X153230952Y-100037390D01*
X153230952Y-100037390D02*
X153183333Y-100085009D01*
X153183333Y-100085009D02*
X153088095Y-100132628D01*
X153088095Y-100132628D02*
X152707143Y-100132628D01*
X154135714Y-99942152D02*
X154135714Y-100608819D01*
X153707143Y-99942152D02*
X153707143Y-100465961D01*
X153707143Y-100465961D02*
X153754762Y-100561200D01*
X153754762Y-100561200D02*
X153850000Y-100608819D01*
X153850000Y-100608819D02*
X153992857Y-100608819D01*
X153992857Y-100608819D02*
X154088095Y-100561200D01*
X154088095Y-100561200D02*
X154135714Y-100513580D01*
X154564286Y-100561200D02*
X154659524Y-100608819D01*
X154659524Y-100608819D02*
X154850000Y-100608819D01*
X154850000Y-100608819D02*
X154945238Y-100561200D01*
X154945238Y-100561200D02*
X154992857Y-100465961D01*
X154992857Y-100465961D02*
X154992857Y-100418342D01*
X154992857Y-100418342D02*
X154945238Y-100323104D01*
X154945238Y-100323104D02*
X154850000Y-100275485D01*
X154850000Y-100275485D02*
X154707143Y-100275485D01*
X154707143Y-100275485D02*
X154611905Y-100227866D01*
X154611905Y-100227866D02*
X154564286Y-100132628D01*
X154564286Y-100132628D02*
X154564286Y-100085009D01*
X154564286Y-100085009D02*
X154611905Y-99989771D01*
X154611905Y-99989771D02*
X154707143Y-99942152D01*
X154707143Y-99942152D02*
X154850000Y-99942152D01*
X154850000Y-99942152D02*
X154945238Y-99989771D01*
X155421429Y-100608819D02*
X155421429Y-99608819D01*
X155850000Y-100608819D02*
X155850000Y-100085009D01*
X155850000Y-100085009D02*
X155802381Y-99989771D01*
X155802381Y-99989771D02*
X155707143Y-99942152D01*
X155707143Y-99942152D02*
X155564286Y-99942152D01*
X155564286Y-99942152D02*
X155469048Y-99989771D01*
X155469048Y-99989771D02*
X155421429Y-100037390D01*
X151516667Y-84813200D02*
X151659524Y-84860819D01*
X151659524Y-84860819D02*
X151897619Y-84860819D01*
X151897619Y-84860819D02*
X151992857Y-84813200D01*
X151992857Y-84813200D02*
X152040476Y-84765580D01*
X152040476Y-84765580D02*
X152088095Y-84670342D01*
X152088095Y-84670342D02*
X152088095Y-84575104D01*
X152088095Y-84575104D02*
X152040476Y-84479866D01*
X152040476Y-84479866D02*
X151992857Y-84432247D01*
X151992857Y-84432247D02*
X151897619Y-84384628D01*
X151897619Y-84384628D02*
X151707143Y-84337009D01*
X151707143Y-84337009D02*
X151611905Y-84289390D01*
X151611905Y-84289390D02*
X151564286Y-84241771D01*
X151564286Y-84241771D02*
X151516667Y-84146533D01*
X151516667Y-84146533D02*
X151516667Y-84051295D01*
X151516667Y-84051295D02*
X151564286Y-83956057D01*
X151564286Y-83956057D02*
X151611905Y-83908438D01*
X151611905Y-83908438D02*
X151707143Y-83860819D01*
X151707143Y-83860819D02*
X151945238Y-83860819D01*
X151945238Y-83860819D02*
X152088095Y-83908438D01*
X152421429Y-83860819D02*
X152659524Y-84860819D01*
X152659524Y-84860819D02*
X152850000Y-84146533D01*
X152850000Y-84146533D02*
X153040476Y-84860819D01*
X153040476Y-84860819D02*
X153278572Y-83860819D01*
X153611905Y-83956057D02*
X153659524Y-83908438D01*
X153659524Y-83908438D02*
X153754762Y-83860819D01*
X153754762Y-83860819D02*
X153992857Y-83860819D01*
X153992857Y-83860819D02*
X154088095Y-83908438D01*
X154088095Y-83908438D02*
X154135714Y-83956057D01*
X154135714Y-83956057D02*
X154183333Y-84051295D01*
X154183333Y-84051295D02*
X154183333Y-84146533D01*
X154183333Y-84146533D02*
X154135714Y-84289390D01*
X154135714Y-84289390D02*
X153564286Y-84860819D01*
X153564286Y-84860819D02*
X154183333Y-84860819D01*
X149972381Y-140041200D02*
X150115238Y-140088819D01*
X150115238Y-140088819D02*
X150353333Y-140088819D01*
X150353333Y-140088819D02*
X150448571Y-140041200D01*
X150448571Y-140041200D02*
X150496190Y-139993580D01*
X150496190Y-139993580D02*
X150543809Y-139898342D01*
X150543809Y-139898342D02*
X150543809Y-139803104D01*
X150543809Y-139803104D02*
X150496190Y-139707866D01*
X150496190Y-139707866D02*
X150448571Y-139660247D01*
X150448571Y-139660247D02*
X150353333Y-139612628D01*
X150353333Y-139612628D02*
X150162857Y-139565009D01*
X150162857Y-139565009D02*
X150067619Y-139517390D01*
X150067619Y-139517390D02*
X150020000Y-139469771D01*
X150020000Y-139469771D02*
X149972381Y-139374533D01*
X149972381Y-139374533D02*
X149972381Y-139279295D01*
X149972381Y-139279295D02*
X150020000Y-139184057D01*
X150020000Y-139184057D02*
X150067619Y-139136438D01*
X150067619Y-139136438D02*
X150162857Y-139088819D01*
X150162857Y-139088819D02*
X150400952Y-139088819D01*
X150400952Y-139088819D02*
X150543809Y-139136438D01*
X150877143Y-139088819D02*
X151115238Y-140088819D01*
X151115238Y-140088819D02*
X151305714Y-139374533D01*
X151305714Y-139374533D02*
X151496190Y-140088819D01*
X151496190Y-140088819D02*
X151734286Y-139088819D01*
X151877143Y-140184057D02*
X152639047Y-140184057D01*
X152877143Y-140088819D02*
X152877143Y-139088819D01*
X152877143Y-139088819D02*
X153258095Y-139088819D01*
X153258095Y-139088819D02*
X153353333Y-139136438D01*
X153353333Y-139136438D02*
X153400952Y-139184057D01*
X153400952Y-139184057D02*
X153448571Y-139279295D01*
X153448571Y-139279295D02*
X153448571Y-139422152D01*
X153448571Y-139422152D02*
X153400952Y-139517390D01*
X153400952Y-139517390D02*
X153353333Y-139565009D01*
X153353333Y-139565009D02*
X153258095Y-139612628D01*
X153258095Y-139612628D02*
X152877143Y-139612628D01*
X154305714Y-139422152D02*
X154305714Y-140088819D01*
X153877143Y-139422152D02*
X153877143Y-139945961D01*
X153877143Y-139945961D02*
X153924762Y-140041200D01*
X153924762Y-140041200D02*
X154020000Y-140088819D01*
X154020000Y-140088819D02*
X154162857Y-140088819D01*
X154162857Y-140088819D02*
X154258095Y-140041200D01*
X154258095Y-140041200D02*
X154305714Y-139993580D01*
X154734286Y-140041200D02*
X154829524Y-140088819D01*
X154829524Y-140088819D02*
X155020000Y-140088819D01*
X155020000Y-140088819D02*
X155115238Y-140041200D01*
X155115238Y-140041200D02*
X155162857Y-139945961D01*
X155162857Y-139945961D02*
X155162857Y-139898342D01*
X155162857Y-139898342D02*
X155115238Y-139803104D01*
X155115238Y-139803104D02*
X155020000Y-139755485D01*
X155020000Y-139755485D02*
X154877143Y-139755485D01*
X154877143Y-139755485D02*
X154781905Y-139707866D01*
X154781905Y-139707866D02*
X154734286Y-139612628D01*
X154734286Y-139612628D02*
X154734286Y-139565009D01*
X154734286Y-139565009D02*
X154781905Y-139469771D01*
X154781905Y-139469771D02*
X154877143Y-139422152D01*
X154877143Y-139422152D02*
X155020000Y-139422152D01*
X155020000Y-139422152D02*
X155115238Y-139469771D01*
X155591429Y-140088819D02*
X155591429Y-139088819D01*
X156020000Y-140088819D02*
X156020000Y-139565009D01*
X156020000Y-139565009D02*
X155972381Y-139469771D01*
X155972381Y-139469771D02*
X155877143Y-139422152D01*
X155877143Y-139422152D02*
X155734286Y-139422152D01*
X155734286Y-139422152D02*
X155639048Y-139469771D01*
X155639048Y-139469771D02*
X155591429Y-139517390D01*
X151686667Y-124293200D02*
X151829524Y-124340819D01*
X151829524Y-124340819D02*
X152067619Y-124340819D01*
X152067619Y-124340819D02*
X152162857Y-124293200D01*
X152162857Y-124293200D02*
X152210476Y-124245580D01*
X152210476Y-124245580D02*
X152258095Y-124150342D01*
X152258095Y-124150342D02*
X152258095Y-124055104D01*
X152258095Y-124055104D02*
X152210476Y-123959866D01*
X152210476Y-123959866D02*
X152162857Y-123912247D01*
X152162857Y-123912247D02*
X152067619Y-123864628D01*
X152067619Y-123864628D02*
X151877143Y-123817009D01*
X151877143Y-123817009D02*
X151781905Y-123769390D01*
X151781905Y-123769390D02*
X151734286Y-123721771D01*
X151734286Y-123721771D02*
X151686667Y-123626533D01*
X151686667Y-123626533D02*
X151686667Y-123531295D01*
X151686667Y-123531295D02*
X151734286Y-123436057D01*
X151734286Y-123436057D02*
X151781905Y-123388438D01*
X151781905Y-123388438D02*
X151877143Y-123340819D01*
X151877143Y-123340819D02*
X152115238Y-123340819D01*
X152115238Y-123340819D02*
X152258095Y-123388438D01*
X152591429Y-123340819D02*
X152829524Y-124340819D01*
X152829524Y-124340819D02*
X153020000Y-123626533D01*
X153020000Y-123626533D02*
X153210476Y-124340819D01*
X153210476Y-124340819D02*
X153448572Y-123340819D01*
X154305714Y-123340819D02*
X153829524Y-123340819D01*
X153829524Y-123340819D02*
X153781905Y-123817009D01*
X153781905Y-123817009D02*
X153829524Y-123769390D01*
X153829524Y-123769390D02*
X153924762Y-123721771D01*
X153924762Y-123721771D02*
X154162857Y-123721771D01*
X154162857Y-123721771D02*
X154258095Y-123769390D01*
X154258095Y-123769390D02*
X154305714Y-123817009D01*
X154305714Y-123817009D02*
X154353333Y-123912247D01*
X154353333Y-123912247D02*
X154353333Y-124150342D01*
X154353333Y-124150342D02*
X154305714Y-124245580D01*
X154305714Y-124245580D02*
X154258095Y-124293200D01*
X154258095Y-124293200D02*
X154162857Y-124340819D01*
X154162857Y-124340819D02*
X153924762Y-124340819D01*
X153924762Y-124340819D02*
X153829524Y-124293200D01*
X153829524Y-124293200D02*
X153781905Y-124245580D01*
X149872381Y-120041200D02*
X150015238Y-120088819D01*
X150015238Y-120088819D02*
X150253333Y-120088819D01*
X150253333Y-120088819D02*
X150348571Y-120041200D01*
X150348571Y-120041200D02*
X150396190Y-119993580D01*
X150396190Y-119993580D02*
X150443809Y-119898342D01*
X150443809Y-119898342D02*
X150443809Y-119803104D01*
X150443809Y-119803104D02*
X150396190Y-119707866D01*
X150396190Y-119707866D02*
X150348571Y-119660247D01*
X150348571Y-119660247D02*
X150253333Y-119612628D01*
X150253333Y-119612628D02*
X150062857Y-119565009D01*
X150062857Y-119565009D02*
X149967619Y-119517390D01*
X149967619Y-119517390D02*
X149920000Y-119469771D01*
X149920000Y-119469771D02*
X149872381Y-119374533D01*
X149872381Y-119374533D02*
X149872381Y-119279295D01*
X149872381Y-119279295D02*
X149920000Y-119184057D01*
X149920000Y-119184057D02*
X149967619Y-119136438D01*
X149967619Y-119136438D02*
X150062857Y-119088819D01*
X150062857Y-119088819D02*
X150300952Y-119088819D01*
X150300952Y-119088819D02*
X150443809Y-119136438D01*
X150777143Y-119088819D02*
X151015238Y-120088819D01*
X151015238Y-120088819D02*
X151205714Y-119374533D01*
X151205714Y-119374533D02*
X151396190Y-120088819D01*
X151396190Y-120088819D02*
X151634286Y-119088819D01*
X151777143Y-120184057D02*
X152539047Y-120184057D01*
X152777143Y-120088819D02*
X152777143Y-119088819D01*
X152777143Y-119088819D02*
X153158095Y-119088819D01*
X153158095Y-119088819D02*
X153253333Y-119136438D01*
X153253333Y-119136438D02*
X153300952Y-119184057D01*
X153300952Y-119184057D02*
X153348571Y-119279295D01*
X153348571Y-119279295D02*
X153348571Y-119422152D01*
X153348571Y-119422152D02*
X153300952Y-119517390D01*
X153300952Y-119517390D02*
X153253333Y-119565009D01*
X153253333Y-119565009D02*
X153158095Y-119612628D01*
X153158095Y-119612628D02*
X152777143Y-119612628D01*
X154205714Y-119422152D02*
X154205714Y-120088819D01*
X153777143Y-119422152D02*
X153777143Y-119945961D01*
X153777143Y-119945961D02*
X153824762Y-120041200D01*
X153824762Y-120041200D02*
X153920000Y-120088819D01*
X153920000Y-120088819D02*
X154062857Y-120088819D01*
X154062857Y-120088819D02*
X154158095Y-120041200D01*
X154158095Y-120041200D02*
X154205714Y-119993580D01*
X154634286Y-120041200D02*
X154729524Y-120088819D01*
X154729524Y-120088819D02*
X154920000Y-120088819D01*
X154920000Y-120088819D02*
X155015238Y-120041200D01*
X155015238Y-120041200D02*
X155062857Y-119945961D01*
X155062857Y-119945961D02*
X155062857Y-119898342D01*
X155062857Y-119898342D02*
X155015238Y-119803104D01*
X155015238Y-119803104D02*
X154920000Y-119755485D01*
X154920000Y-119755485D02*
X154777143Y-119755485D01*
X154777143Y-119755485D02*
X154681905Y-119707866D01*
X154681905Y-119707866D02*
X154634286Y-119612628D01*
X154634286Y-119612628D02*
X154634286Y-119565009D01*
X154634286Y-119565009D02*
X154681905Y-119469771D01*
X154681905Y-119469771D02*
X154777143Y-119422152D01*
X154777143Y-119422152D02*
X154920000Y-119422152D01*
X154920000Y-119422152D02*
X155015238Y-119469771D01*
X155491429Y-120088819D02*
X155491429Y-119088819D01*
X155920000Y-120088819D02*
X155920000Y-119565009D01*
X155920000Y-119565009D02*
X155872381Y-119469771D01*
X155872381Y-119469771D02*
X155777143Y-119422152D01*
X155777143Y-119422152D02*
X155634286Y-119422152D01*
X155634286Y-119422152D02*
X155539048Y-119469771D01*
X155539048Y-119469771D02*
X155491429Y-119517390D01*
X151586667Y-104293200D02*
X151729524Y-104340819D01*
X151729524Y-104340819D02*
X151967619Y-104340819D01*
X151967619Y-104340819D02*
X152062857Y-104293200D01*
X152062857Y-104293200D02*
X152110476Y-104245580D01*
X152110476Y-104245580D02*
X152158095Y-104150342D01*
X152158095Y-104150342D02*
X152158095Y-104055104D01*
X152158095Y-104055104D02*
X152110476Y-103959866D01*
X152110476Y-103959866D02*
X152062857Y-103912247D01*
X152062857Y-103912247D02*
X151967619Y-103864628D01*
X151967619Y-103864628D02*
X151777143Y-103817009D01*
X151777143Y-103817009D02*
X151681905Y-103769390D01*
X151681905Y-103769390D02*
X151634286Y-103721771D01*
X151634286Y-103721771D02*
X151586667Y-103626533D01*
X151586667Y-103626533D02*
X151586667Y-103531295D01*
X151586667Y-103531295D02*
X151634286Y-103436057D01*
X151634286Y-103436057D02*
X151681905Y-103388438D01*
X151681905Y-103388438D02*
X151777143Y-103340819D01*
X151777143Y-103340819D02*
X152015238Y-103340819D01*
X152015238Y-103340819D02*
X152158095Y-103388438D01*
X152491429Y-103340819D02*
X152729524Y-104340819D01*
X152729524Y-104340819D02*
X152920000Y-103626533D01*
X152920000Y-103626533D02*
X153110476Y-104340819D01*
X153110476Y-104340819D02*
X153348572Y-103340819D01*
X153777143Y-104340819D02*
X153967619Y-104340819D01*
X153967619Y-104340819D02*
X154062857Y-104293200D01*
X154062857Y-104293200D02*
X154110476Y-104245580D01*
X154110476Y-104245580D02*
X154205714Y-104102723D01*
X154205714Y-104102723D02*
X154253333Y-103912247D01*
X154253333Y-103912247D02*
X154253333Y-103531295D01*
X154253333Y-103531295D02*
X154205714Y-103436057D01*
X154205714Y-103436057D02*
X154158095Y-103388438D01*
X154158095Y-103388438D02*
X154062857Y-103340819D01*
X154062857Y-103340819D02*
X153872381Y-103340819D01*
X153872381Y-103340819D02*
X153777143Y-103388438D01*
X153777143Y-103388438D02*
X153729524Y-103436057D01*
X153729524Y-103436057D02*
X153681905Y-103531295D01*
X153681905Y-103531295D02*
X153681905Y-103769390D01*
X153681905Y-103769390D02*
X153729524Y-103864628D01*
X153729524Y-103864628D02*
X153777143Y-103912247D01*
X153777143Y-103912247D02*
X153872381Y-103959866D01*
X153872381Y-103959866D02*
X154062857Y-103959866D01*
X154062857Y-103959866D02*
X154158095Y-103912247D01*
X154158095Y-103912247D02*
X154205714Y-103864628D01*
X154205714Y-103864628D02*
X154253333Y-103769390D01*
X170552381Y-100621200D02*
X170695238Y-100668819D01*
X170695238Y-100668819D02*
X170933333Y-100668819D01*
X170933333Y-100668819D02*
X171028571Y-100621200D01*
X171028571Y-100621200D02*
X171076190Y-100573580D01*
X171076190Y-100573580D02*
X171123809Y-100478342D01*
X171123809Y-100478342D02*
X171123809Y-100383104D01*
X171123809Y-100383104D02*
X171076190Y-100287866D01*
X171076190Y-100287866D02*
X171028571Y-100240247D01*
X171028571Y-100240247D02*
X170933333Y-100192628D01*
X170933333Y-100192628D02*
X170742857Y-100145009D01*
X170742857Y-100145009D02*
X170647619Y-100097390D01*
X170647619Y-100097390D02*
X170600000Y-100049771D01*
X170600000Y-100049771D02*
X170552381Y-99954533D01*
X170552381Y-99954533D02*
X170552381Y-99859295D01*
X170552381Y-99859295D02*
X170600000Y-99764057D01*
X170600000Y-99764057D02*
X170647619Y-99716438D01*
X170647619Y-99716438D02*
X170742857Y-99668819D01*
X170742857Y-99668819D02*
X170980952Y-99668819D01*
X170980952Y-99668819D02*
X171123809Y-99716438D01*
X171457143Y-99668819D02*
X171695238Y-100668819D01*
X171695238Y-100668819D02*
X171885714Y-99954533D01*
X171885714Y-99954533D02*
X172076190Y-100668819D01*
X172076190Y-100668819D02*
X172314286Y-99668819D01*
X172457143Y-100764057D02*
X173219047Y-100764057D01*
X173457143Y-100668819D02*
X173457143Y-99668819D01*
X173457143Y-99668819D02*
X173838095Y-99668819D01*
X173838095Y-99668819D02*
X173933333Y-99716438D01*
X173933333Y-99716438D02*
X173980952Y-99764057D01*
X173980952Y-99764057D02*
X174028571Y-99859295D01*
X174028571Y-99859295D02*
X174028571Y-100002152D01*
X174028571Y-100002152D02*
X173980952Y-100097390D01*
X173980952Y-100097390D02*
X173933333Y-100145009D01*
X173933333Y-100145009D02*
X173838095Y-100192628D01*
X173838095Y-100192628D02*
X173457143Y-100192628D01*
X174885714Y-100002152D02*
X174885714Y-100668819D01*
X174457143Y-100002152D02*
X174457143Y-100525961D01*
X174457143Y-100525961D02*
X174504762Y-100621200D01*
X174504762Y-100621200D02*
X174600000Y-100668819D01*
X174600000Y-100668819D02*
X174742857Y-100668819D01*
X174742857Y-100668819D02*
X174838095Y-100621200D01*
X174838095Y-100621200D02*
X174885714Y-100573580D01*
X175314286Y-100621200D02*
X175409524Y-100668819D01*
X175409524Y-100668819D02*
X175600000Y-100668819D01*
X175600000Y-100668819D02*
X175695238Y-100621200D01*
X175695238Y-100621200D02*
X175742857Y-100525961D01*
X175742857Y-100525961D02*
X175742857Y-100478342D01*
X175742857Y-100478342D02*
X175695238Y-100383104D01*
X175695238Y-100383104D02*
X175600000Y-100335485D01*
X175600000Y-100335485D02*
X175457143Y-100335485D01*
X175457143Y-100335485D02*
X175361905Y-100287866D01*
X175361905Y-100287866D02*
X175314286Y-100192628D01*
X175314286Y-100192628D02*
X175314286Y-100145009D01*
X175314286Y-100145009D02*
X175361905Y-100049771D01*
X175361905Y-100049771D02*
X175457143Y-100002152D01*
X175457143Y-100002152D02*
X175600000Y-100002152D01*
X175600000Y-100002152D02*
X175695238Y-100049771D01*
X176171429Y-100668819D02*
X176171429Y-99668819D01*
X176600000Y-100668819D02*
X176600000Y-100145009D01*
X176600000Y-100145009D02*
X176552381Y-100049771D01*
X176552381Y-100049771D02*
X176457143Y-100002152D01*
X176457143Y-100002152D02*
X176314286Y-100002152D01*
X176314286Y-100002152D02*
X176219048Y-100049771D01*
X176219048Y-100049771D02*
X176171429Y-100097390D01*
X172266667Y-84873200D02*
X172409524Y-84920819D01*
X172409524Y-84920819D02*
X172647619Y-84920819D01*
X172647619Y-84920819D02*
X172742857Y-84873200D01*
X172742857Y-84873200D02*
X172790476Y-84825580D01*
X172790476Y-84825580D02*
X172838095Y-84730342D01*
X172838095Y-84730342D02*
X172838095Y-84635104D01*
X172838095Y-84635104D02*
X172790476Y-84539866D01*
X172790476Y-84539866D02*
X172742857Y-84492247D01*
X172742857Y-84492247D02*
X172647619Y-84444628D01*
X172647619Y-84444628D02*
X172457143Y-84397009D01*
X172457143Y-84397009D02*
X172361905Y-84349390D01*
X172361905Y-84349390D02*
X172314286Y-84301771D01*
X172314286Y-84301771D02*
X172266667Y-84206533D01*
X172266667Y-84206533D02*
X172266667Y-84111295D01*
X172266667Y-84111295D02*
X172314286Y-84016057D01*
X172314286Y-84016057D02*
X172361905Y-83968438D01*
X172361905Y-83968438D02*
X172457143Y-83920819D01*
X172457143Y-83920819D02*
X172695238Y-83920819D01*
X172695238Y-83920819D02*
X172838095Y-83968438D01*
X173171429Y-83920819D02*
X173409524Y-84920819D01*
X173409524Y-84920819D02*
X173600000Y-84206533D01*
X173600000Y-84206533D02*
X173790476Y-84920819D01*
X173790476Y-84920819D02*
X174028572Y-83920819D01*
X174933333Y-84920819D02*
X174361905Y-84920819D01*
X174647619Y-84920819D02*
X174647619Y-83920819D01*
X174647619Y-83920819D02*
X174552381Y-84063676D01*
X174552381Y-84063676D02*
X174457143Y-84158914D01*
X174457143Y-84158914D02*
X174361905Y-84206533D01*
D10*
%TO.C,SW3*%
X167210000Y-125630000D02*
X179910000Y-125630000D01*
X167210000Y-138330000D02*
X167210000Y-125630000D01*
X179910000Y-125630000D02*
X179910000Y-138330000D01*
X179910000Y-138330000D02*
X167210000Y-138330000D01*
%TO.C,SW7*%
X125570000Y-126060000D02*
X138270000Y-126060000D01*
X125570000Y-138760000D02*
X125570000Y-126060000D01*
X138270000Y-126060000D02*
X138270000Y-138760000D01*
X138270000Y-138760000D02*
X125570000Y-138760000D01*
%TO.C,U1*%
X123420000Y-61370000D02*
X141220000Y-61370000D01*
X141220000Y-82345000D01*
X123420000Y-82345000D01*
X123420000Y-61370000D01*
D15*
X124768000Y-62494000D02*
G75*
G02*
X124264000Y-62494000I-252000J0D01*
G01*
X124264000Y-62494000D02*
G75*
G02*
X124768000Y-62494000I252000J0D01*
G01*
D10*
%TO.C,SW8*%
X125310000Y-106600000D02*
X138010000Y-106600000D01*
X125310000Y-119300000D02*
X125310000Y-106600000D01*
X138010000Y-106600000D02*
X138010000Y-119300000D01*
X138010000Y-119300000D02*
X125310000Y-119300000D01*
%TO.C,SW6*%
X167250000Y-105980000D02*
X179950000Y-105980000D01*
X167250000Y-118680000D02*
X167250000Y-105980000D01*
X179950000Y-105980000D02*
X179950000Y-118680000D01*
X179950000Y-118680000D02*
X167250000Y-118680000D01*
%TO.C,SW4*%
X126020000Y-86140000D02*
X138720000Y-86140000D01*
X126020000Y-98840000D02*
X126020000Y-86140000D01*
X138720000Y-86140000D02*
X138720000Y-98840000D01*
X138720000Y-98840000D02*
X126020000Y-98840000D01*
%TO.C,SW2*%
X146500000Y-85930000D02*
X159200000Y-85930000D01*
X146500000Y-98630000D02*
X146500000Y-85930000D01*
X159200000Y-85930000D02*
X159200000Y-98630000D01*
X159200000Y-98630000D02*
X146500000Y-98630000D01*
%TO.C,SW5*%
X146670000Y-125410000D02*
X159370000Y-125410000D01*
X146670000Y-138110000D02*
X146670000Y-125410000D01*
X159370000Y-125410000D02*
X159370000Y-138110000D01*
X159370000Y-138110000D02*
X146670000Y-138110000D01*
%TO.C,SW9*%
X146570000Y-105410000D02*
X159270000Y-105410000D01*
X146570000Y-118110000D02*
X146570000Y-105410000D01*
X159270000Y-105410000D02*
X159270000Y-118110000D01*
X159270000Y-118110000D02*
X146570000Y-118110000D01*
%TO.C,SW1*%
X167250000Y-85990000D02*
X179950000Y-85990000D01*
X167250000Y-98690000D02*
X167250000Y-85990000D01*
X179950000Y-85990000D02*
X179950000Y-98690000D01*
X179950000Y-98690000D02*
X167250000Y-98690000D01*
%TD*%
D11*
%TO.C,SW3*%
X164035000Y-122455000D02*
X183085000Y-122455000D01*
X164035000Y-141505000D02*
X164035000Y-122455000D01*
X183085000Y-122455000D02*
X183085000Y-141505000D01*
X183085000Y-141505000D02*
X164035000Y-141505000D01*
%TO.C,SW7*%
X122395000Y-122885000D02*
X141445000Y-122885000D01*
X122395000Y-141935000D02*
X122395000Y-122885000D01*
X141445000Y-122885000D02*
X141445000Y-141935000D01*
X141445000Y-141935000D02*
X122395000Y-141935000D01*
%TO.C,SW8*%
X122135000Y-103425000D02*
X141185000Y-103425000D01*
X122135000Y-122475000D02*
X122135000Y-103425000D01*
X141185000Y-103425000D02*
X141185000Y-122475000D01*
X141185000Y-122475000D02*
X122135000Y-122475000D01*
%TO.C,SW6*%
X164075000Y-102805000D02*
X183125000Y-102805000D01*
X164075000Y-121855000D02*
X164075000Y-102805000D01*
X183125000Y-102805000D02*
X183125000Y-121855000D01*
X183125000Y-121855000D02*
X164075000Y-121855000D01*
%TO.C,SW4*%
X122845000Y-82965000D02*
X141895000Y-82965000D01*
X122845000Y-102015000D02*
X122845000Y-82965000D01*
X141895000Y-82965000D02*
X141895000Y-102015000D01*
X141895000Y-102015000D02*
X122845000Y-102015000D01*
%TO.C,SW2*%
X143325000Y-82755000D02*
X162375000Y-82755000D01*
X143325000Y-101805000D02*
X143325000Y-82755000D01*
X162375000Y-82755000D02*
X162375000Y-101805000D01*
X162375000Y-101805000D02*
X143325000Y-101805000D01*
%TO.C,SW5*%
X143495000Y-122235000D02*
X162545000Y-122235000D01*
X143495000Y-141285000D02*
X143495000Y-122235000D01*
X162545000Y-122235000D02*
X162545000Y-141285000D01*
X162545000Y-141285000D02*
X143495000Y-141285000D01*
%TO.C,SW9*%
X143395000Y-102235000D02*
X162445000Y-102235000D01*
X143395000Y-121285000D02*
X143395000Y-102235000D01*
X162445000Y-102235000D02*
X162445000Y-121285000D01*
X162445000Y-121285000D02*
X143395000Y-121285000D01*
%TO.C,SW1*%
X164075000Y-82815000D02*
X183125000Y-82815000D01*
X164075000Y-101865000D02*
X164075000Y-82815000D01*
X183125000Y-82815000D02*
X183125000Y-101865000D01*
X183125000Y-101865000D02*
X164075000Y-101865000D01*
%TD*%
M02*
